<?xml version="1.0" encoding="UTF-8"?>
<!-- Generator: Adobe Illustrator 25.2.1, SVG Export Plug-In . SVG Version: 6.00 Build 0)  -->
<svg xmlns="http://www.w3.org/2000/svg" xmlns:xlink="http://www.w3.org/1999/xlink" version="1.1" id="Capa_1" x="0px" y="0px" viewBox="0 0 512 512" style="enable-background:new 0 0 512 512;" xml:space="preserve" width="512" height="512">
<g>
	<path style="fill:#FAF9EF;" d="M22.08,280.389c0.298,0.47,0.596,0.939,0.889,1.384c0.509,0.776,1.029,1.541,1.552,2.307   l0.488,0.717c0.293,0.434,0.586,0.866,0.867,1.267c0.64,0.915,1.296,1.817,2.002,2.784l0.279,0.384   c0.258,0.361,0.518,0.721,0.746,1.023c1.031,1.384,2.079,2.751,3.148,4.098c18.072,22.78,45.877,41.906,80.413,55.309   c25.454,9.88,54.094,16.436,81.967,18.856l0.002,29.928c0,4.814,2.405,9.309,6.412,11.98c2.883,1.923,6.327,2.718,9.675,2.323   c-1.327,5.526-2.274,12.203-1.282,19.528c1.4,11.031,6.784,21.804,15.221,30.393c9.363,9.429,21.48,15.054,34.163,15.843   c0.947,0.055,1.894,0.083,2.841,0.083c11.621,0,23.455-4.078,34.191-11.771c2.726-1.946,5.394-4.095,8.027-6.474   c6.156,4.717,13.636,7.693,21.033,8.389c6.965,0.717,14.237-0.273,21.356-2.903c5.511-2.034,10.912-4.992,16.14-8.857   c7.04-5.286,12.476-11.155,17.273-16.332c1.062-1.148,2.107-2.277,3.204-3.433c4.095-4.36,8.906-9.168,13.714-11.869   c3.324-1.928,6.754-3.035,9.412-3.035c0.171,0,0.34,0.005,0.56,0.018c1.212,0.066,1.918,0.295,2.164,0.416   c0.481,0.237,1.024,0.668,1.409,1.077c1.247,1.375,1.496,2.655,1.521,2.819c0.009,0.065,0.014,0.116,0.017,0.156   c-0.124,0.315-0.242,0.58-0.335,0.799c-4.091,9.466,0.86,15.443,3.341,17.683l-0.009,0.008c0.281,0.247,0.57,0.483,0.867,0.707   c0.045,0.033,0.084,0.063,0.122,0.091c2.473,1.821,5.493,2.822,8.582,2.822c5.547,0,10.242-2.903,13.958-8.629   c3.048-4.618,4.553-10.538,4.236-16.744c-0.399-7.205-3.259-14.46-8.163-20.565c-3.012-3.661-6.562-6.64-10.519-8.844   c-4.327-2.419-9.293-3.909-14.708-4.424c-0.293-0.029-0.589-0.054-0.884-0.077c-2.026-3.084-6.128-7.067-14.734-11.364   c-4.883-2.405-10.305-4.188-16.086-5.293c-7.162-1.386-14.848-1.523-22.31-0.402c-4.485,0.668-8.793,1.778-12.814,3.3   c-4.393,1.594-8.711,3.772-12.708,6.391c-0.436,0.28-0.872,0.566-1.308,0.858c0.94-2.236,1.84-4.401,2.642-6.438   c2.757-6.803,4.864-13.442,6.236-19.547l6.13,0.592c0.478,0.046,0.935,0.064,1.43,0.067h0.002c7.957,0,14.403-6.449,14.403-14.403   c0-1.322-0.178-2.603-0.511-3.82l-5.017-26.902c51.59-16.125,115.363-51.917,142.247-106.337   c17.842-36.11,21.333-73.082,9.574-101.435c-9.178-22.133-27.479-38.375-52.926-46.969c-7.087-2.393-14.682-3.608-22.573-3.608   c-25.918,0-51.37,12.952-69.791,28.817c-18.088-27.706-48.821-51.22-81.939-49.656c-28.616,1.346-51.639,13.218-66.579,34.336   c-1.132,1.602-2.253,3.315-3.249,4.964l-0.307,0.512c-0.97,1.615-1.908,3.301-2.834,5.092c-0.024,0.047-0.131,0.254-0.155,0.301   c-0.317,0.619-0.628,1.245-0.933,1.878c-17.062,4.092-32.911,14.9-46.093,31.49c-7.773,9.785-14.276,21.329-18.892,33.302   c-17.669-9.662-37.975-15.31-56.419-15.31c-14.762,0-27.955,3.402-39.217,10.113c-3.929,2.344-7.685,4.91-11.156,7.625   c-0.04,0.033-0.082,0.066-0.122,0.098c-2.825,2.216-5.544,4.617-8.109,7.158c-0.157,0.149-0.366,0.35-0.476,0.462   c-0.872,0.878-1.688,1.77-2.499,2.667l-0.452,0.494c-0.342,0.365-0.682,0.731-1.017,1.117c-0.731,0.847-1.421,1.709-2.105,2.574   l-0.443,0.554c-0.34,0.421-0.68,0.845-1.006,1.278c-0.645,0.854-1.245,1.72-1.967,2.768l-0.237,0.344   c-0.338,0.485-0.675,0.973-1.008,1.485c-0.591,0.915-1.144,1.84-1.709,2.795l-0.164,0.277c-0.321,0.544-0.64,1.088-0.945,1.642   c-0.513,0.926-0.992,1.861-1.463,2.801c-0.009,0.019-0.112,0.226-0.122,0.245c-0.291,0.586-0.581,1.174-0.872,1.8   c-0.436,0.942-0.849,1.891-1.254,2.871c-0.277,0.669-0.549,1.341-0.835,2.086c-0.359,0.947-0.701,1.9-1.024,2.856   c-0.237,0.702-0.462,1.406-0.68,2.12c-0.298,0.974-0.582,1.952-0.823,2.874c-0.197,0.734-0.373,1.471-0.544,2.198   c-0.228,0.977-0.448,1.953-0.635,2.916c-0.129,0.658-0.242,1.318-0.387,2.188c-0.166,0.988-0.326,1.974-0.45,2.925   c-0.08,0.607-0.145,1.217-0.206,1.827l-0.054,0.518c-0.101,0.946-0.197,1.894-0.26,2.809c-0.037,0.552-0.063,1.105-0.087,1.66   l-0.04,0.908c-0.04,0.866-0.075,1.732-0.087,2.59c-0.005,0.515,0.002,1.028,0.012,1.543l0.012,1.026   c0.009,0.856,0.019,1.711,0.056,2.588c0.021,0.463,0.054,0.927,0.087,1.392l0.033,0.45c0.23,3.629,0.671,7.355,1.313,11.061   l0.089,0.526c0.089,0.552,0.183,1.104,0.286,1.64c0.131,0.674,0.279,1.348,0.429,2.022l0.265,1.204   C2.711,235.746,2.845,236.353,3,237c0.166,0.682,0.347,1.364,0.53,2.046l0.227,0.853c0.183,0.695,0.368,1.39,0.558,2.049   c0.192,0.678,0.401,1.353,0.609,2.028l0.22,0.707c0.234,0.756,0.469,1.51,0.713,2.243c0.265,0.792,0.544,1.582,0.842,2.416   c0.291,0.826,0.586,1.653,0.895,2.477c0.293,0.777,0.598,1.551,0.942,2.414c0.321,0.806,0.647,1.612,0.999,2.453   c0.328,0.777,0.663,1.552,0.994,2.3c0.363,0.821,0.731,1.639,1.118,2.476c0.347,0.747,0.699,1.492,1.06,2.238   c0.399,0.825,0.809,1.646,1.226,2.471c0.366,0.722,0.734,1.442,1.12,2.181c0.436,0.828,0.884,1.65,1.327,2.455   c0.384,0.701,0.769,1.4,1.163,2.093c0.476,0.836,0.964,1.663,1.442,2.469l0.18,0.304c0.338,0.571,0.673,1.14,1.027,1.717   c0.448,0.732,0.907,1.458,1.369,2.182L22.08,280.389z M329.203,434.62c-0.321,0-0.64-0.015-1.17-0.068   c-0.649-0.057-1.31-0.245-1.964-0.546c2.85-3.88,5.561-7.551,8.315-10.918c4.717-5.828,9.075-10.063,13.449-13.032   c2.014-1.396,4.055-2.511,6.067-3.31c0.089-0.035,0.176-0.071,0.262-0.108c1.847-0.776,3.917-1.385,6.189-1.817   c2.651-0.512,5.366-0.725,8.046-0.656c-3.777,3.134-7.167,6.466-10.198,9.587c-1.191,1.218-2.379,2.459-3.573,3.706   c-4.313,4.512-8.388,8.772-12.727,11.961c-4.635,3.354-9.143,5.202-12.694,5.202H329.203z M285.298,430.324   c-3.266,3.496-6.351,6.231-9.6,8.54c-4.93,3.533-10.073,5.48-14.483,5.48c-0.244,0-0.488-0.006-0.706-0.018   c-4.224-0.224-8.664-2.317-12.127-5.691c-3.282-3.234-5.493-7.246-6.102-11.215c-0.612-3.644,0.469-8.143,1.826-13.194l0.244-0.903   c1.36-5.01,2.755-10.155,3.364-15.449l5.685-2.364c4.18-1.737,7.298-5.338,8.423-9.723c1.123-4.384,0.12-9.041-2.708-12.575   l-17.838-22.293l0.685-0.689c1.564-1.597,3.12-3.217,4.611-4.808c0.056-0.059,0.216-0.225,0.272-0.285   c1.66-1.777,3.308-3.588,4.972-5.456l1.034-1.18c1.268-1.442,2.53-2.899,3.793-4.39l1.273-1.512   c1.228-1.466,2.445-2.95,3.655-4.454l1.071-1.328c3.214-4.037,6.329-8.15,9.262-12.235l0.31-0.436   c1.369-1.915,2.717-3.849,4.044-5.799l0.788-1.169c1.219-1.811,2.419-3.632,3.62-5.504l0.64-0.997   c1.517-2.385,2.998-4.792,4.438-7.21c5.879,4.472,11.883,8.703,17.971,12.665l-14.096,26.402   c-2.267,4.247-2.262,9.344,0.012,13.587c2.274,4.243,6.517,7.069,11.309,7.532l3.596,0.347c-1.013,2.871-2.323,6.177-4.018,9.924   c-0.917,2.071-1.909,4.209-2.935,6.429c-1.697,3.668-3.622,7.823-5.49,12.284c-3.015,7.278-6.278,16.105-7.605,26.271   C283.481,416.147,283.767,423.412,285.298,430.324z M220.2,80.585L220.2,80.585L220.2,80.585L220.2,80.585z"/>
	<g>
		<g>
			<path style="fill:#B2305B;" d="M447.613,71.57c-31.574-10.663-70.585,10.231-91.153,35.521     c-12.816-29.973-44.575-60.793-77.863-59.228c-63.321,2.977-78.324,62.681-69.015,113.781     c10.687,58.667,67.281,114.388,119.206,142.734c57.72-12.967,127.459-50.968,153.874-104.431     C505.67,153.38,507.672,91.853,447.613,71.57z"/>
		</g>
		<g>
			<path style="fill:#172E66;" d="M424.017,434.496c0.11,0.096,0.915-0.512,1.941-2.107c1.046-1.565,2.091-4.377,1.904-8.058     c-0.202-3.649-1.611-8.11-4.9-12.205c-1.66-2.016-3.773-3.948-6.427-5.426c-2.682-1.499-5.81-2.35-9.09-2.663     c-6.634-0.651-13.869,1.219-20.507,4.833c-6.752,3.553-12.748,9.09-18.441,14.953c-5.728,5.854-11.346,12.263-18.149,17.262     c-6.753,4.888-15.159,8.684-23.582,7.815c-8.448-0.747-15.289-6.828-18.975-14.122c-1.919-3.634-3.142-7.584-3.772-11.522     c-0.65-3.942-0.62-7.858-0.19-11.749c0.867-7.751,3.284-14.979,5.837-21.639c2.579-6.672,5.358-12.813,7.641-18.599     c4.666-11.516,6.951-21.609,7.039-28.658c0.156-7.064-1.144-10.817-1.432-10.749c-0.461,0.06,0.083,3.867-0.721,10.587     c-0.742,6.728-3.468,16.181-8.502,27.303c-2.466,5.578-5.459,11.638-8.291,18.401c-2.8,6.757-5.542,14.289-6.643,22.741     c-1.167,8.393-0.154,17.93,4.205,26.37c2.186,4.197,5.095,8.273,9.111,11.37c3.945,3.135,8.922,5.292,14.121,5.782     c5.201,0.537,10.31-0.397,14.89-2.089c4.598-1.697,8.748-4.104,12.479-6.861c7.459-5.602,13.076-12.263,18.626-18.108     c5.522-5.882,10.953-11.084,16.986-14.468c5.963-3.46,12.288-5.271,17.982-4.941c2.848,0.156,5.523,0.769,7.741,1.875     c2.256,1.111,4.163,2.657,5.712,4.32c3.079,3.391,4.619,7.216,5.106,10.392c0.474,3.201-0.102,5.765-0.758,7.361     C424.326,433.514,423.83,434.357,424.017,434.496z"/>
		</g>
		<polyline style="fill:#B2305B;" points="326.404,294.218 302.325,339.319 344.404,343.385 335.236,294.218   "/>
		<g>
			<g>
				<path style="fill:#172E66;" d="M323.809,164.089c1.522,0.165,3.609-7.596,4.66-17.334c1.051-9.737,0.669-17.765-0.853-17.929      c-1.523-0.164-3.609,7.596-4.66,17.334C321.905,155.898,322.287,163.925,323.809,164.089z"/>
			</g>
			<g>
				<path style="fill:#172E66;" d="M379.452,167.537c1.523,0.164,3.609-7.596,4.66-17.334c1.051-9.738,0.669-17.765-0.854-17.929      c-1.522-0.165-3.609,7.596-4.66,17.334C377.547,159.345,377.929,167.372,379.452,167.537z"/>
			</g>
			<g>
				<path style="fill:#172E66;" d="M404.739,156.203c-0.434-0.067-0.979,1.959-2.262,5.424c-1.272,3.46-3.421,8.355-7.134,13.681      c-3.75,5.262-9.181,10.937-16.516,15.152c-7.262,4.26-16.538,6.697-26.278,6.41c-9.738-0.359-18.832-3.403-25.796-8.134      c-7.04-4.691-12.083-10.714-15.477-16.212c-3.352-5.56-5.173-10.586-6.213-14.123c-1.051-3.543-1.461-5.6-1.898-5.562      c-0.324,0.021-0.648,2.155-0.217,5.996c0.424,3.826,1.75,9.363,4.907,15.606c3.198,6.172,8.351,13.046,15.995,18.5      c7.588,5.512,17.713,9.085,28.514,9.471c10.803,0.33,21.143-2.566,29.079-7.564c7.989-4.937,13.585-11.454,17.184-17.402      c3.564-6.021,5.253-11.458,5.93-15.248C405.243,158.396,405.061,156.246,404.739,156.203z"/>
			</g>
		</g>
		<g>
			<path style="fill:#172E66;" d="M395.895,397.581c0.179-0.2-2.57-3.175-9.025-6.398c-3.222-1.588-7.405-3.108-12.457-4.073     c-5.044-0.977-10.991-1.267-17.451-0.297c-3.225,0.481-6.58,1.282-9.93,2.559c-3.376,1.216-6.738,2.915-9.949,5.017     c-6.494,4.155-12.408,9.906-17.825,16.374c-10.939,12.82-20.035,29.057-35.169,39.807c-7.408,5.309-16.019,8.564-24.337,8.138     c-8.272-0.437-15.931-4.409-21.477-9.814c-5.537-5.456-9.161-12.306-10.198-19.09c-1.135-6.76,0.514-13.338,2.128-19.341     c1.631-6.028,3.227-11.669,3.41-16.947c0.193-5.212-0.77-9.727-2.335-13.077c-1.511-3.394-3.652-5.489-5.196-6.6     c-1.564-1.132-2.585-1.354-2.646-1.235c-0.129,0.21,0.693,0.762,1.912,2.078c1.208,1.302,2.861,3.386,3.93,6.57     c1.121,3.137,1.699,7.304,1.241,12.061c-0.434,4.727-2.188,10.053-4.082,16.058c-1.842,5.963-3.997,13.091-2.913,21.093     c0.998,7.874,4.961,15.755,11.15,22.057c6.194,6.235,14.912,10.998,24.791,11.612c9.876,0.582,19.728-3.234,27.825-9.037     c8.173-5.827,14.635-13.071,20.254-20.321c5.565-7.265,10.469-14.425,15.643-20.749c5.132-6.342,10.565-11.823,16.435-15.805     c2.916-2.024,5.919-3.654,8.958-4.861c3.02-1.27,6.077-2.12,9.042-2.683c11.964-2.308,22.028,0.116,28.391,2.487     C392.446,395.644,395.615,397.985,395.895,397.581z"/>
		</g>
		<g>
			<path style="fill:#FA4981;" d="M210.875,93.824c-32.874,5.467-57.445,42.273-63.675,74.27     c-25.424-20.403-67.956-32.63-96.583-15.569c-54.454,32.453-39.565,92.185-7.284,132.876     c37.062,46.717,113.231,69.211,172.387,69.757c44.807-38.627,88.425-104.998,86.543-164.601     C300.623,138.642,273.407,83.426,210.875,93.824z"/>
		</g>
		<polyline style="fill:#FA4981;" points="208.831,347.319 208.834,398.445 247.869,382.211 216.621,343.159   "/>
		<g>
			<g>
				<path style="fill:#172E66;" d="M144.442,242.949c1.44-0.52-0.089-8.41-3.416-17.622c-3.327-9.212-7.191-16.258-8.631-15.738      c-1.44,0.52,0.089,8.41,3.415,17.621C139.138,236.423,143.002,243.469,144.442,242.949z"/>
			</g>
			<g>
				<path style="fill:#172E66;" d="M195.958,221.64c1.44-0.52-0.089-8.41-3.416-17.622c-3.327-9.212-7.191-16.258-8.631-15.738      c-1.44,0.52,0.089,8.41,3.415,17.621C190.654,215.114,194.518,222.16,195.958,221.64z"/>
			</g>
			<g>
				<path style="fill:#172E66;" d="M213.712,200.363c-0.419,0.13-0.021,2.19,0.347,5.867c0.375,3.667,0.59,9.009-0.411,15.424      c-1.062,6.373-3.453,13.856-8.196,20.861c-4.658,7.014-11.925,13.272-20.804,17.287c-8.908,3.949-18.416,5.202-26.75,4.005      c-8.384-1.128-15.558-4.328-21.019-7.78c-5.452-3.526-9.293-7.244-11.779-9.966c-2.498-2.723-3.769-4.392-4.145-4.166      c-0.282,0.161,0.363,2.221,2.435,5.483c2.059,3.252,5.68,7.647,11.256,11.872c5.582,4.144,13.227,8.061,22.489,9.609      c9.236,1.625,19.903,0.395,29.779-3.996c9.853-4.442,17.875-11.58,22.814-19.552c5.014-7.94,7.184-16.253,7.81-23.176      c0.562-6.974-0.305-12.601-1.359-16.304C215.127,202.113,214.02,200.26,213.712,200.363z"/>
			</g>
		</g>
	</g>
</g>















</svg>
