<?xml version="1.0" encoding="UTF-8"?>
<!-- Generator: Adobe Illustrator 25.2.1, SVG Export Plug-In . SVG Version: 6.00 Build 0)  -->
<svg xmlns="http://www.w3.org/2000/svg" xmlns:xlink="http://www.w3.org/1999/xlink" version="1.1" id="Capa_1" x="0px" y="0px" viewBox="0 0 512 512" style="enable-background:new 0 0 512 512;" xml:space="preserve" width="512" height="512">
<g>
	<path style="fill:#FAF9EF;" d="M505.519,184.858c-7.702-15.793-21.71-27.82-38.424-32.994L140.67,50.813   c-7.089-2.195-14.517-3.114-22.199-2.723l-0.657,0.035c-1.512,0.096-3.014,0.242-4.639,0.461l-0.635,0.097   c-6.229,0.919-12.274,2.751-18.151,5.529c-3.771,1.782-7.288,3.905-10.562,6.351c-9.219,6.757-16.429,16.058-20.883,26.674   c-0.821,1.976-1.493,3.82-2.056,5.64L2.869,280.295c-3.779,12.208-3.827,25.105-0.134,37.301c0.51,1.684,1.122,3.41,1.873,5.279   c7.198,17.938,21.897,31.497,40.324,37.202l326.425,101.051c18.433,5.706,38.226,2.821,54.285-7.907   c1.674-1.114,3.155-2.196,4.535-3.303c9.936-7.975,17.184-18.644,20.963-30.852l58.019-187.418c4.489-14.5,3.635-30.176-2.4-44.127   C506.404,186.696,506.018,185.887,505.519,184.858z"/>
	<g>
		<path style="fill:#F49E62;" d="M407.009,452.912L20.158,333.155c-7.258-2.247-11.32-9.952-9.073-17.209L87.81,68.103    c2.247-7.258,9.952-11.32,17.209-9.073L491.87,178.787c7.258,2.247,11.32,9.952,9.073,17.209l-76.724,247.843    C421.972,451.097,414.267,455.159,407.009,452.912z"/>
		<g>
			<g>
				<g>
					<path style="fill:#C9753D;" d="M255.682,174.589c1.629,0.504,5.672-7.881,9.03-18.728c3.358-10.847,4.76-20.05,3.13-20.554       c-1.629-0.504-5.672,7.881-9.03,18.728C255.455,164.882,254.053,174.085,255.682,174.589z"/>
				</g>
				<g>
					<path style="fill:#C9753D;" d="M302.268,189.01c1.629,0.504,5.672-7.881,9.031-18.728c3.358-10.847,4.76-20.05,3.13-20.554       c-1.629-0.504-5.672,7.881-9.03,18.728C302.04,179.304,300.639,188.506,302.268,189.01z"/>
				</g>
			</g>
			<g>
				<path style="fill:#C9753D;" d="M343.777,181.988c-0.424-0.226-1.842,1.734-4.492,5.04c-2.63,3.321-6.831,7.815-12.806,12.301      c-2.972,2.264-6.487,4.371-10.362,6.387c-3.959,1.848-8.265,3.691-13.022,4.876c-9.433,2.54-20.447,3.066-31.268,0.278      c-10.768-2.988-20.048-8.943-26.952-15.853c-3.53-3.402-6.34-7.148-8.847-10.726c-2.352-3.681-4.345-7.263-5.79-10.708      c-2.936-6.869-4.333-12.861-4.953-17.051c-0.646-4.188-0.895-6.595-1.376-6.61c-0.369-0.022-0.942,2.369-1.021,6.795      c-0.102,4.42,0.678,10.896,3.282,18.455c1.279,3.787,3.175,7.755,5.521,11.844c2.502,3.985,5.394,8.158,9.114,11.978      c7.271,7.737,17.399,14.516,29.425,17.842c12.08,3.124,24.24,2.307,34.404-0.766c5.13-1.453,9.72-3.624,13.877-5.828      c4.075-2.372,7.699-4.862,10.698-7.505c6.031-5.25,9.941-10.471,12.059-14.351C343.41,184.512,344.107,182.154,343.777,181.988z      "/>
			</g>
		</g>
		<g>
			<g>
				<path style="fill:#C9753D;" d="M250.286,272.937c1.103-0.834-34.966-50.378-80.563-110.658      c-28.739-37.994-54.394-71.171-69.718-90.311c-0.811,0.445-1.607,0.916-2.39,1.41c14.214,19.921,39.247,53.76,68.114,91.923      C211.326,225.581,249.183,273.772,250.286,272.937z"/>
				<path style="fill:#C9753D;" d="M380.147,227.42c-71.68,23.975-129.432,44.475-128.993,45.786      c0.439,1.312,58.902-17.061,130.582-41.037c45.379-15.178,85.152-28.956,108.136-37.361c-0.368-0.85-0.758-1.688-1.176-2.514      C465.238,199.428,425.326,212.308,380.147,227.42z"/>
			</g>
			<g>
				<path style="fill:#C9753D;" d="M251.081,271.907c-0.642-0.71-1.266-1.401-1.854-2.057      c-24.05,4.143-69.965,13.018-122.581,23.797c-41.914,8.586-79.43,16.609-104.97,22.374c0.423,1.054,0.91,2.079,1.41,3.098      c25.728-4.746,63.06-12.063,104.566-20.566C181.295,287.565,227.756,277.495,251.081,271.907z"/>
				<path style="fill:#C9753D;" d="M267.076,267.436c-0.081-0.398-5.583,0.339-15.22,1.967c0.619,0.597,1.253,1.211,1.916,1.855      C262.367,269.165,267.154,267.812,267.076,267.436z"/>
				<path style="fill:#C9753D;" d="M240.409,259.18c-0.277,0.268,2.909,4.088,8.818,10.671c0.912-0.157,1.782-0.305,2.629-0.448      C244.824,262.614,240.701,258.898,240.409,259.18z"/>
				<path style="fill:#C9753D;" d="M341.469,360.15c-37.323-38.621-70.193-71.886-87.697-88.892      c-0.856,0.208-1.761,0.426-2.691,0.649c16.087,17.788,48.734,52.347,86.786,91.723c29.442,30.466,56.11,57.595,74.657,76.048      c0.988-0.559,1.969-1.129,2.914-1.76C397.622,418.731,371.201,390.915,341.469,360.15z"/>
				<path style="fill:#C9753D;" d="M249.227,269.851c0.589,0.656,1.212,1.347,1.854,2.057c0.931-0.223,1.835-0.441,2.691-0.649      c-0.663-0.645-1.298-1.258-1.916-1.855C251.008,269.546,250.138,269.694,249.227,269.851z"/>
			</g>
		</g>
		<g>
			<path style="fill:#B2305B;" d="M308.883,243.167c-3.748-7.47-13.713-9.342-21.979-8.112c-11.365,1.69-22.008,7.649-29.483,16.37     c-1.24-11.419-6.655-22.348-15.077-30.164c-6.126-5.685-15.406-9.771-22.719-5.725c-6.009,3.324-8.263,10.775-9.216,17.576     c-4.079,29.13,6.711,59.883,27.819,80.311c28.957-4.93,55.236-24.207,68.328-50.547     C309.613,256.727,311.963,249.305,308.883,243.167z"/>
		</g>
	</g>
</g>















</svg>
