<?xml version="1.0" encoding="UTF-8"?>
<!-- Generator: Adobe Illustrator 25.2.1, SVG Export Plug-In . SVG Version: 6.00 Build 0)  -->
<svg xmlns="http://www.w3.org/2000/svg" xmlns:xlink="http://www.w3.org/1999/xlink" version="1.1" id="Capa_1" x="0px" y="0px" viewBox="0 0 512 512" style="enable-background:new 0 0 512 512;" xml:space="preserve" width="512" height="512">
<g>
	<g>
		<g>
			<path style="fill:#FFFFFF;" d="M506.161,341.808c-1.009-3.701-3.438-11.118-9.919-26.387c0.186-0.833,0.359-1.651,0.521-2.461     c1.554-7.747,2.342-15.707,2.342-23.658c0-35.981-16.123-69.852-43.608-92.576c9.233-18.388,11.938-33.055,8.036-43.687     c-2.517-6.857-7.594-11.814-14.681-14.334c-3.187-1.132-6.381-1.707-9.489-1.707c-5.509,0-14.595,1.823-21.805,12.153     c-2.541-0.692-5.363-1.166-8.339-1.166c-9.342,0-17.245,4.641-22.251,13.066c-0.634,1.065-1.181,2.146-1.643,3.239     c-2.671-3.166-6.663-5.089-10.895-5.089c-0.212,0-0.424,0.005-0.638,0.014c-8.603-6.4-19.516-9.891-31.105-9.891     c-0.476,0-0.951,0.006-1.49,0.02c-1.001,0.031-1.994,0.075-2.986,0.156c-0.805,0.055-1.599,0.133-2.192,0.212     c-0.715,0.081-1.43,0.191-2.146,0.297c5.922-6.939,10.44-14.538,11.653-22.31c1.344-8.611-1.159-16.643-7.239-23.228     c-6.205-6.719-13.902-10.271-22.261-10.271c-6.032,0-12.136,1.812-18.238,5.403c-8.567-8.999-17.245-11.176-23.634-11.176     c-5.594,0-11.129,1.659-16.452,4.93c-7.634,4.692-12.219,11.745-13.258,20.397c-0.084,0.697-0.132,1.401-0.166,2.109     c-3.393-3.352-7.024-6.313-10.876-8.829c-10.025-6.548-21.857-10.155-33.314-10.155c-9.634,0-18.73,2.568-26.321,7.421     c-3.599-3.062-6.575-6.822-8.71-11.04l0.207-4.631c0.009-0.266,0.011-0.709,0.002-0.973c-0.248-7.72-6.493-13.767-14.215-13.767     c-0.128,0-0.332,0.004-0.459,0.008c-7.839,0.252-14.011,6.835-13.759,14.672l0.72,22.398c-3.043,1.04-5.953,2.354-8.654,3.916     c-3.265,1.891-6.029,4.146-8.432,6.602c-2.02-2.97-4.876-5.311-8.401-6.794c-2.697-1.133-5.449-1.709-8.181-1.709     c-2.821,0-8.524,0.714-13.77,5.723c-1.345-0.255-2.683-0.382-4.01-0.382c-6.724,0-12.59,3.213-16.518,9.046     c-3.335,4.953-4.193,10.758-2.414,16.346c3.279,10.304,15.297,17.552,24,21.586c-1.706,1.698-3.469,3.395-5.263,5.116     c-2.178,2.089-4.356,4.18-6.464,6.304c-0.452,0.455-0.902,0.91-1.349,1.366c-5.035-10.315-14.201-14.311-22.665-14.311     c-0.689,0-1.395,0.024-2.124,0.075c-7.369,0.516-13.672,4.077-17.748,10.029c-10.853,15.848-3.056,45.96-0.081,55.757     c0.329,1.301,0.882,2.559,1.658,3.714c0.707,1.053,1.561,1.965,2.524,2.721c-5.417,17.231-6.582,35.844-3.277,54.014     c-0.251,1.501-0.216,3.062,0.134,4.6c0.774,3.401,1.727,6.814,2.847,10.201c-9.842,12.051-20.777,26.06-26.018,34.888     c-8.076,6.596-13.118,16.705-13.339,27.045c-0.023,1.002-0.095,4.05,1.609,7.25c2.013,3.788,5.685,6.303,9.826,6.824     c0.306,0.243,0.631,0.482,0.976,0.708c2.219,1.471,4.794,2.248,7.446,2.248c2.9,0,5.729-0.965,8-2.725     c0.374-0.052,0.747-0.119,1.113-0.203c5.142-1.17,9.127-5.347,10.157-10.664c0.106-0.551,0.172-1.08,0.209-1.581     c0.952-0.578,1.833-1.281,2.622-2.099c4.049-4.202,4.779-10.534,1.857-16.138c-0.662-1.268-1.409-2.495-2.236-3.675     c2.839-3.981,6.569-8.905,11.028-14.558c8.39,12.669,19.265,23.618,32.069,32.193c6.857,4.604,14.027,7.916,21.086,10.938     l-5.077,25.875c-1.88-0.336-3.804-0.508-5.753-0.508c-13.664,0-25.942,8.635-30.553,21.489c-1.307,3.644-0.76,7.695,1.469,10.861     c2.227,3.165,5.856,5.049,9.727,5.049h38.69c3.872,0,7.501-1.885,9.729-5.051c2.228-3.166,2.774-7.22,1.465-10.863     c-0.193-0.536-0.402-1.07-0.625-1.601l6.669-33.992c5.454,2.413,11.617,4.818,19.127,4.818l0.614-0.005     c6.728-0.104,12.158-2.16,16.946-4.376l6.582,33.556c-0.224,0.533-0.433,1.069-0.627,1.608     c-1.305,3.642-0.757,7.694,1.472,10.858c2.228,3.165,5.856,5.048,9.726,5.048h38.69c3.871,0,7.499-1.884,9.727-5.049     c2.229-3.166,2.776-7.217,1.47-10.861c-4.612-12.854-16.89-21.489-30.554-21.489c-1.949,0-3.873,0.172-5.754,0.508l-5.003-25.503     c9.646-4.623,19.499-9.789,28.247-16.432c7.33-5.583,14.321-12.724,20.5-20.908c1.161,2.117,2.204,4.076,3.125,5.854     c-0.002,0.002-0.927,1.461-0.927,1.461c-1.023,1.629-2.297,3.657-3.323,6.074c-2.87,6.758-3.367,13.591-1.431,19.766     c1.98,6.315,6.665,10.959,12.126,14.379c2.784,1.45,6.096,2.067,9.303,2.067c0.501,0,0.997-0.021,1.486-0.062     c8.668-0.738,16.343-7.136,19.098-15.92c1.034-3.292,1.389-6.773,1.072-10.334c10.973,14.513,25.196,26.54,41.646,34.862     c3.092,1.565,6.276,3.003,9.53,4.303l-0.303,1.544c-1.389-0.193-2.802-0.291-4.227-0.291c-12.794,0-24.292,8.086-28.612,20.122     c-1.308,3.644-0.759,7.695,1.467,10.861c2.229,3.166,5.856,5.05,9.728,5.05h34.809c3.87,0,7.497-1.883,9.726-5.047     c2.228-3.164,2.778-7.215,1.472-10.858c-0.139-0.392-0.289-0.782-0.448-1.171l2.564-13.068c6.12,0.958,12.291,1.44,18.45,1.44     c6.294,0,12.6-0.506,18.86-1.508l2.576,13.137c-0.155,0.383-0.303,0.767-0.442,1.154c-1.312,3.643-0.767,7.698,1.461,10.866     c2.227,3.168,5.856,5.054,9.73,5.054h34.809c3.87,0,7.499-1.884,9.728-5.049c2.227-3.165,2.776-7.216,1.468-10.86     c-4.316-12.037-15.814-20.125-28.61-20.125c-1.427,0-2.838,0.098-4.227,0.291l-0.335-1.701c2.776-1.121,5.505-2.344,8.171-3.665     c0.141-0.064,0.281-0.13,0.42-0.199c16.549-8.269,30.869-20.275,41.927-34.795c-0.272,5.145,2.392,9.982,6.896,12.413     c0.19,0.101,0.383,0.198,0.577,0.29c2.436,3.034,6.181,4.826,10.148,4.826c1.395,0,2.774-0.217,4.112-0.65     c0.238-0.077,0.468-0.159,0.694-0.246c0.444,0.048,0.892,0.07,1.342,0.07c3.51,0,6.916-1.469,9.358-4.042     c2.445-2.585,3.161-5.442,3.389-6.35C513.321,359.369,511.444,349.48,506.161,341.808z"/>
		</g>
	</g>
	<g>
		<g>
			<g>
				<g>
					<g>
						<g>
							<path style="fill:#4F021B;" d="M285.084,306.833c0.454-0.735,0.226-1.7-0.51-2.153c-0.734-0.454-1.7-0.226-2.153,0.51         c-1.492,2.417-2.959,4.849-4.418,7.286c-2.954,4.934-5.859,9.898-8.682,14.908c-2.287,4.058-4.543,8.136-6.63,12.302         c-1.044,2.084-1.999,4.211-3.072,6.28c-1.091,2.104-2.406,4.043-3.664,6.046c-0.89,1.418-1.793,2.857-2.449,4.402         c-1.543,3.635-2.211,7.787-1.029,11.554c1.182,3.768,4.486,6.999,8.421,7.334c1.951,0.166,4.287-0.722,4.654-2.645         c0.474-2.487-2.603-4.478-2.481-7.007c1.239-0.13,2.232,0.925,3.238,1.66c1.006,0.735,2.73,1.026,3.257-0.104         c0.363-0.779-0.148-1.671-0.678-2.346c-1.703-2.17-3.845-4.016-5.198-6.42c-0.668-1.188-0.707-4.217-0.983-5.559         c-0.271-1.316-0.661-3.216-0.476-4.734C266.958,336.251,284.893,307.142,285.084,306.833z"/>
						</g>
					</g>
					<g>
						<g>
							<g>
								<path style="fill:#4F021B;" d="M237.874,304.839c-0.472-0.764-0.235-1.768,0.53-2.24c0.764-0.472,1.768-0.235,2.24,0.53          c1.552,2.514,3.078,5.044,4.596,7.579c3.072,5.133,6.095,10.296,9.031,15.507c2.379,4.222,4.726,8.464,6.897,12.797          c1.086,2.167,2.08,4.38,3.196,6.532c1.135,2.189,2.503,4.205,3.811,6.289c0.926,1.475,1.865,2.971,2.547,4.579          c1.605,3.781,2.3,8.1,1.071,12.019c-1.229,3.919-4.666,7.281-8.759,7.629c-2.03,0.172-4.46-0.751-4.841-2.751          c-0.493-2.588,2.708-4.658,2.581-7.289c-1.289-0.135-2.322,0.962-3.368,1.727c-1.047,0.765-2.84,1.067-3.388-0.108          c-0.377-0.81,0.153-1.738,0.705-2.441c1.772-2.257,3.999-4.177,5.407-6.678c0.695-1.236,0.735-4.387,1.023-5.782          c0.282-1.369,0.688-3.345,0.495-4.924C256.73,335.441,238.073,305.16,237.874,304.839z"/>
							</g>
						</g>
						<g>
							<g>
								<path style="fill:#600626;" d="M237.874,304.839c-0.472-0.764-0.235-1.768,0.53-2.24c0.764-0.472,1.768-0.235,2.24,0.53          c1.552,2.514,3.078,5.044,4.596,7.579c3.072,5.133,6.095,10.296,9.031,15.507c2.379,4.222,4.726,8.464,6.897,12.797          c1.086,2.167,2.08,4.38,3.196,6.532c1.135,2.189,2.503,4.205,3.811,6.289c0.926,1.475,1.865,2.971,2.547,4.579          c1.605,3.781,2.3,8.1,1.071,12.019c-1.229,3.919-4.666,7.281-8.759,7.629c-2.03,0.172-4.46-0.751-4.841-2.751          c-0.493-2.588,2.708-4.658,2.581-7.289c-1.289-0.135-2.322,0.962-3.368,1.727c-1.047,0.765-2.84,1.067-3.388-0.108          c-0.377-0.81,0.153-1.738,0.705-2.441c1.772-2.257,3.999-4.177,5.407-6.678c0.695-1.236,0.735-4.387,1.023-5.782          c0.282-1.369,0.688-3.345,0.495-4.924C256.73,335.441,238.073,305.16,237.874,304.839z"/>
							</g>
						</g>
					</g>
				</g>
				<g>
					<g>
						<g>
							<path style="fill:#4F021B;" d="M60.739,301.838c-0.766-0.648-1.915-0.552-2.563,0.215         c-1.167,1.38-28.32,33.555-34.676,45.731c-6.304,4.28-10.426,11.687-10.59,19.32c-0.01,0.474-0.001,0.969,0.221,1.388         c0.222,0.418,0.725,0.726,1.173,0.573c0.495-0.169,0.676-0.763,0.788-1.274c0.485-2.232,1.483-4.353,1.969-6.585         c-0.052,3.161,0.346,6.397,1.872,9.167c0.275,0.5,0.59,1.004,1.066,1.318c0.476,0.315,1.156,0.389,1.601,0.031         c0.513-0.414,0.516-1.183,0.464-1.84c-0.226-2.848,0.313-6.288-0.299-9.079c0.499,2.88,1.547,6,3.805,7.856         c0.508,0.418,1.14,0.815,1.782,0.669c0.59-0.134,0.997-0.712,1.113-1.307c0.115-0.595-0.084-1.195-0.135-1.798         c-0.144-1.693-0.433-3.376-0.595-5.069c-0.005-0.051-0.019-0.235-0.036-0.496c-0.069-1.042-0.191-3.311-0.008-3.263         c1.539,0.411,3.082,0.8,4.632,1.167c0.716,0.17,1.58,0.295,2.09-0.234c0.591-0.613,0.271-1.625-0.123-2.38         c-1.626-3.115-3.994-5.766-6.833-7.808c7.342-12.747,33.225-43.415,33.498-43.739         C61.603,303.634,61.507,302.486,60.739,301.838z"/>
						</g>
					</g>
					<g>
						<g>
							<path style="fill:#600626;" d="M60.739,301.838c-0.766-0.648-1.915-0.552-2.563,0.215         c-1.167,1.38-28.32,33.555-34.676,45.731c-6.304,4.28-10.426,11.687-10.59,19.32c-0.01,0.474-0.001,0.969,0.221,1.388         c0.222,0.418,0.725,0.726,1.173,0.573c0.495-0.169,0.676-0.763,0.788-1.274c0.485-2.232,1.483-4.353,1.969-6.585         c-0.052,3.161,0.346,6.397,1.872,9.167c0.275,0.5,0.59,1.004,1.066,1.318c0.476,0.315,1.156,0.389,1.601,0.031         c0.513-0.414,0.516-1.183,0.464-1.84c-0.226-2.848,0.313-6.288-0.299-9.079c0.499,2.88,1.547,6,3.805,7.856         c0.508,0.418,1.14,0.815,1.782,0.669c0.59-0.134,0.997-0.712,1.113-1.307c0.115-0.595-0.084-1.195-0.135-1.798         c-0.144-1.693-0.433-3.376-0.595-5.069c-0.005-0.051-0.019-0.235-0.036-0.496c-0.069-1.042-0.191-3.311-0.008-3.263         c1.539,0.411,3.082,0.8,4.632,1.167c0.716,0.17,1.58,0.295,2.09-0.234c0.591-0.613,0.271-1.625-0.123-2.38         c-1.626-3.115-3.994-5.766-6.833-7.808c7.342-12.747,33.225-43.415,33.498-43.739         C61.603,303.634,61.507,302.486,60.739,301.838z"/>
						</g>
					</g>
				</g>
				<g>
					<g>
						<g>
							<g>
								<path style="fill:#4F021B;" d="M111.581,423.936c-0.116,0-0.234-0.011-0.352-0.034c-0.986-0.194-1.628-1.149-1.435-2.135          l12.694-64.708c0.194-0.987,1.153-1.632,2.135-1.435c0.986,0.193,1.628,1.149,1.435,2.135l-12.694,64.709          C113.194,423.334,112.433,423.936,111.581,423.936z"/>
							</g>
						</g>
						<g>
							<g>
								<path style="fill:#4F021B;" d="M115.284,426.214h-38.69c2.848-7.94,10.435-13.611,19.357-13.611          C104.849,412.604,112.435,418.275,115.284,426.214z"/>
							</g>
						</g>
					</g>
					<g>
						<g>
							<g>
								<path style="fill:#4F021B;" d="M190.063,423.936c-0.852,0-1.613-0.601-1.783-1.469l-12.693-64.709          c-0.193-0.986,0.449-1.941,1.435-2.135c0.991-0.195,1.941,0.449,2.135,1.435l12.694,64.708          c0.193,0.986-0.449,1.942-1.435,2.135C190.296,423.925,190.178,423.936,190.063,423.936z"/>
							</g>
						</g>
						<g>
							<g>
								<path style="fill:#4F021B;" d="M186.361,426.214h38.689c-2.848-7.94-10.435-13.611-19.357-13.611          C196.796,412.604,189.209,418.275,186.361,426.214z"/>
							</g>
						</g>
					</g>
				</g>
				<g>
					<g>
						<path style="fill:#FFE3B2;" d="M255.066,279.135c-0.346,2.656-0.782,5.293-1.31,7.913        c-2.728,13.642-7.821,26.793-15.515,38.434c-5.984,9.04-13.642,17.771-22.264,24.337        c-9.295,7.057-20.499,12.533-31.031,17.462c-5.602,2.638-11.587,4.566-17.134,7.239c-5.075,2.456-9.877,4.911-15.734,5.002        c-6.657,0.127-12.314-2.728-18.244-5.366c-2.073-0.91-4.129-1.837-6.184-2.747c-3.838-1.71-7.676-3.42-11.55-5.038        c-8.203-3.456-16.352-6.857-23.774-11.841c-44.746-30.049-58.752-92.093-29.667-137.748        c7.385-11.605,16.552-21.936,26.229-31.668c8.986-9.058,19.044-17.225,25.502-28.43c6.348-10.986,9.768-24.719,21.482-31.504        c10.313-5.966,23.955-6.802,35.087-2.237c1.892,0.764,3.711,1.692,5.421,2.765c13.315,8.385,16.625,22.718,24.537,35.069        c8.822,13.751,22.591,23.628,33.141,35.924c4.711,5.493,8.586,11.259,11.678,17.243c4.838,9.24,7.858,19.026,9.386,29.194        v0.018C256.867,254.725,256.703,266.784,255.066,279.135z"/>
					</g>
				</g>
				<g>
					<g>
						<g>
							<path style="fill:#FFACB3;" d="M110.952,321.807c0,13.915-7.476,26.102-18.626,32.723         c-21.536-14.424-36.625-37.147-42.518-63.013c6.512-5.202,14.088-7.799,23.074-7.799         C93.908,283.719,110.952,300.78,110.952,321.807z"/>
						</g>
					</g>
					<g>
						<g>
							<path style="fill:#FFACB3;" d="M253.757,287.047c-2.728,13.642-7.821,26.793-15.515,38.434         c-6.603,9.986-14.702,19.025-24.234,25.79c-8.44-6.967-13.873-17.659-13.873-29.464c0-21.027,17.043-38.088,38.071-38.088         C243.753,283.719,249.009,284.901,253.757,287.047z"/>
						</g>
					</g>
				</g>
				<g>
					<g>
						<g>
							<g>
								<g>
									<path style="fill:#FFFFFF;" d="M132.232,283.528c0,14.588-9.834,26.876-23.22,30.6c-2.712,0.755-5.578,1.167-8.547,1.167           c-17.54,0-31.767-14.21-31.767-31.767c0-17.54,14.227-31.767,31.767-31.767c2.969,0,5.835,0.412,8.547,1.167           C122.398,256.652,132.232,268.958,132.232,283.528z"/>
								</g>
							</g>
							<g>
								<g>
									<ellipse style="fill:#4F021B;" cx="109.012" cy="283.528" rx="23.22" ry="30.6"/>
								</g>
							</g>
						</g>
						<g>
							<g>
								<g>
									<path style="fill:#FFFFFF;" d="M239.137,283.528c0,14.588-9.834,26.876-23.22,30.6c-2.712,0.755-5.578,1.167-8.547,1.167           c-17.54,0-31.767-14.21-31.767-31.767c0-17.54,14.227-31.767,31.767-31.767c2.969,0,5.835,0.412,8.547,1.167           C229.304,256.652,239.137,268.958,239.137,283.528z"/>
								</g>
							</g>
							<g>
								<g>
									<ellipse style="fill:#4F021B;" cx="215.917" cy="283.528" rx="23.22" ry="30.6"/>
								</g>
							</g>
						</g>
					</g>
					<g>
						<g>
							<path style="fill:#4F021B;" d="M157.624,325.458c-0.16,0-0.322-0.002-0.484-0.006c-7.886-0.212-13.116-4.663-14.348-12.215         c-0.161-0.991,0.511-1.926,1.503-2.087c0.989-0.17,1.926,0.513,2.088,1.502c0.938,5.747,4.792,9.001,10.855,9.163         c6.157,0.208,10.668-3.52,11.352-9.169c0.121-0.999,1.019-1.71,2.025-1.589c0.997,0.121,1.708,1.027,1.587,2.025         C171.311,320.428,165.349,325.458,157.624,325.458z"/>
						</g>
					</g>
				</g>
				<g>
					<g>
						<g>
							<path style="fill:#A44043;" d="M122.529,186.252c1.333,1.2,0.506,4.294-1.848,6.91c-2.354,2.616-5.344,3.764-6.678,2.563         c-1.333-1.2-0.506-4.294,1.848-6.91C118.206,186.199,121.195,185.051,122.529,186.252z"/>
						</g>
					</g>
					<g>
						<g>
							<path style="fill:#A44043;" d="M110.508,185.804c1.161,1.045,0.44,3.738-1.609,6.015c-2.049,2.277-4.652,3.276-5.812,2.231         c-1.161-1.045-0.441-3.738,1.609-6.015C106.744,185.758,109.347,184.759,110.508,185.804z"/>
						</g>
					</g>
					<g>
						<g>
							<path style="fill:#A44043;" d="M122.969,172.723c1.161,1.045,0.44,3.737-1.609,6.015c-2.049,2.277-4.652,3.276-5.812,2.231         c-1.161-1.045-0.441-3.737,1.609-6.015C119.206,172.677,121.808,171.678,122.969,172.723z"/>
						</g>
					</g>
				</g>
				<g>
					<g>
						<g>
							<path style="fill:#FFDCA4;" d="M245.735,213.944c-14.37,0.473-28.848-1.928-41.836-7.967         c-15.97-7.439-29.521-20.645-35.779-37.106c-5.62-14.806-4.856-32.177,2.837-45.928c1.892,0.764,3.711,1.692,5.421,2.765         c13.315,8.385,16.625,22.718,24.537,35.069c8.822,13.751,22.591,23.628,33.141,35.924         C238.769,202.194,242.643,207.96,245.735,213.944z"/>
						</g>
					</g>
					<g>
						<g>
							<g>
								<path style="fill:#A44043;" d="M156.472,124.661c0,1.026-2.079,1.858-4.644,1.858c-2.565,0-4.644-0.832-4.644-1.858          c0-1.026,2.079-1.858,4.644-1.858C154.393,122.804,156.472,123.636,156.472,124.661z"/>
							</g>
						</g>
						<g>
							<g>
								<path style="fill:#A44043;" d="M150.919,125.12l-1.187-36.93c-0.041-1.286,0.968-2.362,2.254-2.404          c1.286-0.041,2.362,0.968,2.404,2.254c0.002,0.058,0.001,0.122-0.001,0.179l-1.651,36.912          c-0.022,0.502-0.448,0.891-0.95,0.869C151.31,125.979,150.935,125.59,150.919,125.12z"/>
							</g>
						</g>
						<g>
							<g>
								<path style="fill:#A44043;" d="M175.053,122.039c-0.233,0-0.469-0.057-0.69-0.172c-10.209-5.363-18.34-14.153-22.893-24.748          c-0.325-0.755,0.024-1.629,0.778-1.954c0.757-0.319,1.63,0.024,1.953,0.779c4.286,9.972,11.937,18.244,21.545,23.291          c0.727,0.382,1.006,1.28,0.625,2.009C176.105,121.748,175.588,122.039,175.053,122.039z"/>
							</g>
						</g>
						<g>
							<g>
								<g>
									<path style="fill:#B8E3C5;" d="M268.526,207.541h-0.236c-0.655,0.036-1.309,0.055-1.965,0.055           c-4.384,0.145-8.785,0.163-13.169,0.018c-0.618-0.018-1.219-0.037-1.819-0.055c-8.731-0.382-17.425-1.4-25.902-3.42           c-1.055-0.254-2.11-0.528-3.165-0.8c-0.637-0.182-1.273-0.346-1.892-0.528c-10.222-2.983-20.008-7.53-28.43-13.951           c-0.691-0.509-1.382-1.055-2.055-1.619c-0.946-0.764-1.855-1.564-2.765-2.383c-10.695-9.731-18.335-23.137-19.699-37.525           c-0.873-9.258,1.255-19.208,6.766-26.484c0.346-0.491,0.728-0.982,1.146-1.437c1.583-1.855,3.42-3.511,5.511-4.875           c13.988-9.167,33.05-6.694,47.056,2.455c5.766,3.765,10.714,8.549,14.897,13.97c0.528,0.655,1.018,1.309,1.473,1.983           c5.293,7.312,9.295,15.643,12.205,24.174c1.037,3.056,2.037,6.184,2.965,9.386c0.218,0.691,0.418,1.401,0.618,2.092           C263.706,181.367,266.526,194.9,268.526,207.541z"/>
								</g>
							</g>
							<g>
								<g>
									<path style="fill:#4F021B;" d="M268.29,207.541c-0.655,0.036-1.309,0.055-1.965,0.055           c-2.947-6.785-6.802-13.533-11.568-20.19c-0.491-0.709-1-1.401-1.51-2.11c-2.747-3.711-5.766-7.385-9.058-11.023           c-3.092-3.42-6.312-6.767-9.64-10.041h-0.018c-0.182-0.2-0.364-0.382-0.564-0.546v-0.018           c-3.911-3.802-7.967-7.494-12.15-11.041c-0.564-0.491-1.128-0.964-1.692-1.419c-9.677-8.094-20.008-15.461-30.831-21.973           c-0.6-0.364-1.182-0.728-1.782-1.055c-4.347-2.583-8.767-5.02-13.26-7.294c-0.018-0.018-0.036-0.018-0.055-0.037           c-0.4-0.254-0.546-0.764-0.346-1.201c0.237-0.436,0.782-0.618,1.237-0.382c0.091,0.036,0.164,0.091,0.255,0.146           c8.021,4.074,15.861,8.64,23.41,13.642c0.6,0.382,1.201,0.782,1.801,1.201h0.018c12.46,8.367,24.174,17.862,34.796,28.248           c0.655,0.618,1.309,1.273,1.946,1.928h0.018c2.819,2.819,5.548,5.693,8.203,8.622           C255.667,184.259,263.306,195.827,268.29,207.541z"/>
								</g>
							</g>
							<g>
								<g>
									<path style="fill:#4F021B;" d="M191.949,188.861c-0.691-0.509-1.382-1.055-2.055-1.619           c-2.601-19.554-3.401-39.38-2.383-59.061c0.018-0.073,0.018-0.146,0.018-0.218c0.036-0.509,0.455-0.91,0.964-0.855           c0.491,0.018,0.873,0.455,0.855,0.946c-0.018,0.4-0.036,0.782-0.055,1.182           C188.311,149.135,189.203,169.144,191.949,188.861z"/>
								</g>
							</g>
							<g>
								<g>
									<path style="fill:#4F021B;" d="M244.28,132.947c-14.533-1.691-29.376-1.273-43.709,1.31c-0.309,0.055-0.6,0.109-0.91,0.164           c-0.491,0.091-0.964-0.236-1.055-0.728c-0.036-0.236,0-0.455,0.146-0.637c0.109-0.218,0.327-0.382,0.582-0.418           c14.224-2.656,28.994-3.219,43.473-1.673C243.334,131.619,243.825,132.274,244.28,132.947z"/>
								</g>
							</g>
							<g>
								<g>
									<path style="fill:#4F021B;" d="M222.271,203.34c-0.637-0.182-1.273-0.346-1.892-0.528           c-2.201-17.116-2.292-34.451-0.255-51.603c0.018-0.036,0.018-0.055,0.018-0.091c0.073-0.491,0.527-0.855,1.018-0.782           c0.509,0.054,0.855,0.509,0.8,1c-0.055,0.436-0.109,0.855-0.146,1.291C219.888,169.489,220.052,186.514,222.271,203.34z"/>
								</g>
							</g>
							<g>
								<g>
									<path style="fill:#4F021B;" d="M260.068,168.598c-7.403-2.219-15.061-3.62-22.737-4.165           c-0.855-0.055-1.71-0.109-2.565-0.146c-0.073,0-0.146-0.018-0.218-0.055c-0.273-0.073-0.491-0.273-0.582-0.546           c-0.055-0.109-0.055-0.218-0.055-0.346c0.018-0.509,0.437-0.91,0.946-0.873c0.164,0,0.346,0.018,0.51,0.036           c8.13,0.382,16.243,1.746,24.083,4.002C259.668,167.197,259.868,167.907,260.068,168.598z"/>
								</g>
							</g>
							<g>
								<g>
									<path style="fill:#4F021B;" d="M255.066,185.441c-0.109,0.655-0.2,1.309-0.309,1.964c-1,6.676-1.546,13.442-1.601,20.209           c-0.618-0.018-1.219-0.037-1.819-0.055c0.073-7.458,0.71-14.915,1.91-22.264c0-0.055,0.018-0.091,0.018-0.146           c0.073-0.491,0.546-0.837,1.037-0.746C254.794,184.477,255.139,184.95,255.066,185.441z"/>
								</g>
							</g>
						</g>
					</g>
				</g>
			</g>
			<g>
				<g>
					<g>
						<path style="fill:#FFFFFF;" d="M237.345,241.536c1.462,1.805,3.623,3.516,5.613,2.693c1.224-0.506,2.003-1.894,2.244-3.333        c0.241-1.439,0.029-2.937-0.227-4.39c-0.784-4.464-2.055-9.023-4.812-12.436c-2.691-3.33-7.697-4.253-8.651,0.849        C230.456,230.576,234.003,237.41,237.345,241.536z"/>
					</g>
				</g>
				<g>
					<g>
						<path style="fill:#FFFFFF;" d="M249.509,253.457c0.321,2.217-1.021,4.247-2.999,4.533c-1.978,0.286-3.841-1.278-4.163-3.496        c-0.321-2.217,1.021-4.247,2.999-4.533C247.324,249.675,249.187,251.24,249.509,253.457z"/>
					</g>
				</g>
			</g>
			<g>
				<g>
					<g>
						<g>
							<g>
								<path style="fill:#4F021B;" d="M344.921,424.164c-0.105,0-0.21-0.009-0.316-0.03c-0.887-0.174-1.465-1.034-1.291-1.921          l11.421-58.218c0.174-0.888,1.037-1.468,1.921-1.291c0.887,0.174,1.465,1.034,1.291,1.921l-11.421,58.218          C346.372,423.623,345.687,424.164,344.921,424.164z"/>
							</g>
						</g>
						<g>
							<g>
								<path style="fill:#4F021B;" d="M348.252,426.214h-34.809c2.563-7.143,9.388-12.246,17.416-12.246          C338.864,413.969,345.69,419.071,348.252,426.214z"/>
							</g>
						</g>
					</g>
					<g>
						<g>
							<g>
								<path style="fill:#4F021B;" d="M415.531,424.164c-0.767,0-1.451-0.541-1.605-1.322l-11.42-58.218          c-0.173-0.887,0.405-1.747,1.291-1.921c0.892-0.175,1.746,0.404,1.921,1.291l11.421,58.218          c0.173,0.887-0.405,1.747-1.292,1.921C415.741,424.155,415.635,424.164,415.531,424.164z"/>
							</g>
						</g>
						<g>
							<g>
								<path style="fill:#4F021B;" d="M412.2,426.214h34.809c-2.562-7.143-9.388-12.246-17.416-12.246          C421.589,413.969,414.763,419.071,412.2,426.214z"/>
							</g>
						</g>
					</g>
				</g>
				<g>
					<g>
						<g>
							<path style="fill:#4F021B;" d="M494.327,349.186c-0.554-0.153-1.002-0.605-1.12-1.207         c-2.12-10.795-17.975-45.245-18.135-45.592c-0.362-0.784-0.019-1.715,0.766-2.076c0.784-0.362,1.715-0.019,2.076,0.766         c0.659,1.429,16.172,35.14,18.364,46.299c0.166,0.849-0.386,1.671-1.234,1.837         C494.798,349.262,494.553,349.249,494.327,349.186z"/>
						</g>
					</g>
					<g>
						<g>
							<path style="fill:#4F021B;" d="M489.752,356.66c-0.074,0.212-0.128,0.362-0.143,0.403c-0.522,1.367-1.148,2.696-1.655,4.067         c-0.181,0.488-0.483,0.941-0.524,1.46c-0.041,0.519,0.164,1.092,0.623,1.339c0.499,0.268,1.114,0.083,1.631-0.147         c2.298-1.022,3.882-3.368,4.957-5.642c-1.147,2.174-1.489,5.15-2.329,7.46c-0.194,0.534-0.367,1.171-0.037,1.632         c0.286,0.399,0.867,0.493,1.334,0.342c0.467-0.152,0.843-0.497,1.186-0.849c1.9-1.947,2.972-4.538,3.653-7.172         c-0.109,1.962,0.232,3.95,0.123,5.912c-0.025,0.45-0.011,0.983,0.361,1.237c0.337,0.23,0.824,0.09,1.104-0.206         c0.28-0.296,0.401-0.705,0.502-1.1c1.758-6.935-0.431-14.732-5.541-19.739c-3.675,0.905-7.047,2.82-9.629,5.587         c-0.5,0.535-0.997,1.302-0.647,1.945c0.302,0.556,1.047,0.65,1.679,0.673c1.369,0.05,2.738,0.082,4.108,0.094         C490.669,353.959,490.048,355.812,489.752,356.66z"/>
						</g>
					</g>
				</g>
				<g>
					<g>
						<path style="fill:#FFACAC;" d="M488.223,289.303c0,7.294-0.728,14.424-2.11,21.318c-6.621,33.159-28.394,60.844-57.806,75.541        c-0.018,0-0.018,0-0.018,0c-14.533,7.257-30.94,11.35-48.275,11.35c-17.553,0-34.123-4.184-48.784-11.605        c-29.303-14.824-50.948-42.581-57.406-75.777c-1.328-6.748-2.019-13.697-2.019-20.827c0-59.77,48.438-108.209,108.209-108.209        C439.766,181.094,488.223,229.532,488.223,289.303z"/>
					</g>
				</g>
				<g>
					<g>
						<g>
							<path style="fill:#FC9A9A;" d="M348.273,349.437c0,14.643-6.621,27.757-17.044,36.47         c-29.303-14.824-50.948-42.581-57.406-75.777c7.64-5.239,16.898-8.294,26.848-8.294         C326.956,301.835,348.273,323.153,348.273,349.437z"/>
						</g>
					</g>
					<g>
						<g>
							<path style="fill:#FC9A9A;" d="M486.113,310.621c-6.621,33.159-28.394,60.844-57.806,75.541c-0.018,0-0.018,0-0.018,0         c-10.586-8.749-17.316-21.955-17.316-36.724c0-26.284,21.318-47.602,47.602-47.602         C468.851,301.835,478.346,305.091,486.113,310.621z"/>
						</g>
					</g>
				</g>
				<g>
					<g>
						<g>
							<path style="fill:#4F021B;" d="M378.823,344.337c-0.159,0-0.319-0.002-0.479-0.006c-7.889-0.214-13.119-4.667-14.35-12.217         c-0.161-0.991,0.512-1.926,1.503-2.087c0.996-0.155,1.926,0.511,2.088,1.502c0.937,5.745,4.792,9.001,10.857,9.165         c6.066,0.137,10.664-3.522,11.35-9.169c0.121-0.999,1.007-1.694,2.025-1.589c0.997,0.121,1.708,1.027,1.587,2.025         C392.513,339.304,386.549,344.337,378.823,344.337z"/>
						</g>
					</g>
					<g>
						<g>
							<g>
								<path style="fill:#FFFFFF;" d="M424.991,337.349c2.712,0.755,5.578,1.167,8.547,1.167c17.539,0,31.767-14.21,31.767-31.767          c0-17.54-14.227-31.767-31.767-31.767c-2.969,0-5.835,0.412-8.547,1.167C411.605,279.873,411.605,333.625,424.991,337.349z"/>
							</g>
						</g>
						<g>
							<g>
								<ellipse style="fill:#4F021B;" cx="424.991" cy="306.749" rx="23.22" ry="30.6"/>
							</g>
						</g>
					</g>
					<g>
						<g>
							<g>
								<path style="fill:#FFFFFF;" d="M317.157,334.562c2.712,0.755,5.578,1.167,8.547,1.167c17.54,0,31.767-14.21,31.767-31.767          c0-17.54-14.227-31.767-31.767-31.767c-2.969,0-5.835,0.412-8.547,1.167C303.771,277.087,303.771,330.838,317.157,334.562z"/>
							</g>
						</g>
						<g>
							<g>
								<ellipse style="fill:#4F021B;" cx="317.157" cy="303.962" rx="23.22" ry="30.6"/>
							</g>
						</g>
					</g>
				</g>
				<g>
					<g>
						<g>
							<g>
								<path style="fill:#A44043;" d="M445.428,231.096c-1.206,1.329-4.296,0.488-6.902-1.878c-2.606-2.366-3.741-5.36-2.535-6.688          c1.206-1.329,4.296-0.488,6.902,1.878C445.499,226.772,446.634,229.767,445.428,231.096z"/>
							</g>
						</g>
						<g>
							<g>
								<path style="fill:#A44043;" d="M445.927,219.076c-1.05,1.156-3.74,0.425-6.008-1.634c-2.268-2.059-3.256-4.666-2.206-5.822          c1.05-1.157,3.739-0.425,6.008,1.634C445.988,215.313,446.976,217.92,445.927,219.076z"/>
							</g>
						</g>
						<g>
							<g>
								<path style="fill:#A44043;" d="M458.954,231.593c-1.05,1.156-3.739,0.425-6.008-1.634c-2.268-2.059-3.256-4.666-2.207-5.822          c1.05-1.157,3.74-0.425,6.008,1.634C459.016,227.83,460.004,230.437,458.954,231.593z"/>
							</g>
						</g>
					</g>
					<g>
						<g>
							<g>
								<g>
									<path style="fill:#A44043;" d="M388.523,190.84c0,1.539-3.535,2.786-7.895,2.786c-4.36,0-7.895-1.247-7.895-2.786           c0-1.539,3.535-2.786,7.895-2.786C384.988,188.054,388.523,189.301,388.523,190.84z"/>
								</g>
							</g>
							<g>
								<g>
									<path style="fill:#A44043;" d="M381.029,192.561c-1.111,0-2.095-0.799-2.291-1.932c-0.908-5.242-2.722-10.691-5.391-16.187           c-0.562-1.157-0.08-2.55,1.078-3.113c1.157-0.555,2.548-0.079,3.111,1.078c2.859,5.89,4.807,11.754,5.79,17.427           c0.219,1.268-0.63,2.473-1.896,2.693C381.296,192.549,381.162,192.561,381.029,192.561z"/>
								</g>
							</g>
						</g>
						<g>
							<g>
								<g>
									<path style="fill:#A2E0B1;" d="M297.253,243.86l0.042-0.178c0.09-0.498,0.193-0.993,0.311-1.484           c0.676-3.317,1.45-6.625,2.344-9.889c0.124-0.461,0.246-0.908,0.367-1.356c1.85-6.486,4.172-12.83,7.205-18.832           c0.38-0.746,0.774-1.489,1.168-2.232c0.25-0.445,0.487-0.894,0.735-1.326c4.07-7.14,9.236-13.672,15.564-18.844           c0.506-0.428,1.04-0.849,1.583-1.253c0.743-0.573,1.507-1.113,2.284-1.649c9.22-6.287,20.652-9.621,31.697-8.069           c7.107,1.002,14.195,4.382,18.669,9.822c0.307,0.347,0.607,0.722,0.874,1.117c1.109,1.52,2.023,3.196,2.673,5.01           c4.377,12.142-0.893,26.009-10.269,34.885c-3.859,3.654-8.336,6.512-13.154,8.681c-0.586,0.279-1.165,0.53-1.752,0.751           c-6.437,2.664-13.407,4.176-20.332,4.834c-2.48,0.231-5.007,0.422-7.577,0.545c-0.558,0.04-1.126,0.063-1.681,0.09           C317.765,244.928,307.101,244.622,297.253,243.86z"/>
								</g>
							</g>
							<g>
								<g>
									<path style="fill:#4F021B;" d="M297.295,243.682c0.09-0.498,0.193-0.993,0.311-1.484           c5.621-0.997,11.377-2.683,17.228-5.069c0.62-0.241,1.23-0.5,1.854-0.756c3.278-1.397,6.576-3.006,9.897-4.826           c3.121-1.709,6.21-3.526,9.264-5.439l0.003-0.014c0.183-0.101,0.352-0.205,0.51-0.326l0.014,0.003           c3.554-2.255,7.052-4.639,10.464-7.144c0.47-0.335,0.925-0.674,1.368-1.016c7.809-5.815,15.189-12.251,22.015-19.21           c0.381-0.385,0.758-0.757,1.111-1.149c2.718-2.801,5.339-5.683,7.85-8.648c0.017-0.01,0.02-0.024,0.037-0.034           c0.263-0.255,0.671-0.273,0.963-0.045c0.285,0.256,0.324,0.698,0.065,0.997c-0.044,0.062-0.098,0.107-0.155,0.165           c-4.495,5.292-9.326,10.36-14.433,15.131c-0.394,0.382-0.802,0.761-1.224,1.137l-0.003,0.014           c-8.512,7.855-17.737,14.949-27.436,21.063c-0.581,0.381-1.19,0.755-1.796,1.116l-0.003,0.014           c-2.621,1.611-5.267,3.145-7.941,4.614C317.034,238.375,306.981,242.039,297.295,243.682z"/>
								</g>
							</g>
							<g>
								<g>
									<path style="fill:#4F021B;" d="M324.988,189.719c0.506-0.428,1.04-0.849,1.583-1.253           c15.145,1.549,30.171,4.498,44.763,8.787c0.051,0.027,0.106,0.04,0.161,0.053c0.376,0.118,0.601,0.504,0.469,0.877           c-0.102,0.365-0.498,0.574-0.863,0.473c-0.297-0.086-0.581-0.168-0.878-0.253           C355.461,194.102,340.282,191.188,324.988,189.719z"/>
								</g>
							</g>
							<g>
								<g>
									<path style="fill:#4F021B;" d="M357.592,239.015c3.872-10.607,6.216-21.824,6.844-33.047           c0.014-0.242,0.025-0.47,0.04-0.712c0.02-0.385,0.35-0.681,0.735-0.662c0.184,0.015,0.341,0.081,0.452,0.223           c0.144,0.121,0.228,0.314,0.21,0.512c-0.554,11.153-2.775,22.342-6.528,32.934           C358.758,238.543,358.179,238.795,357.592,239.015z"/>
								</g>
							</g>
							<g>
								<g>
									<path style="fill:#4F021B;" d="M308.69,209.889c0.25-0.445,0.487-0.894,0.735-1.326           c13.243,1.413,26.272,4.448,38.783,9.049c0.024,0.02,0.038,0.023,0.065,0.03c0.356,0.142,0.548,0.549,0.405,0.905           c-0.132,0.372-0.535,0.55-0.894,0.422c-0.318-0.119-0.622-0.235-0.943-0.341           C334.528,214.161,321.718,211.235,308.69,209.889z"/>
								</g>
							</g>
							<g>
								<g>
									<path style="fill:#4F021B;" d="M328.002,244.484c2.991-5.16,5.414-10.658,7.198-16.322           c0.194-0.632,0.388-1.264,0.568-1.899c0.013-0.055,0.04-0.106,0.08-0.154c0.103-0.192,0.293-0.32,0.514-0.339           c0.092-0.021,0.174-0.002,0.269,0.021c0.379,0.105,0.605,0.49,0.486,0.866c-0.029,0.123-0.075,0.256-0.118,0.376           c-1.743,6.035-4.219,11.881-7.316,17.362C329.125,244.434,328.557,244.457,328.002,244.484z"/>
								</g>
							</g>
							<g>
								<g>
									<path style="fill:#4F021B;" d="M316.253,237.713c-0.472-0.199-0.947-0.385-1.419-0.584           c-4.832-1.946-9.814-3.568-14.884-4.82c0.124-0.461,0.246-0.908,0.367-1.356c5.585,1.39,11.07,3.203,16.371,5.42           c0.041,0.01,0.065,0.03,0.106,0.04c0.356,0.142,0.53,0.559,0.374,0.912C317.026,237.681,316.609,237.855,316.253,237.713z"/>
								</g>
							</g>
						</g>
						<g>
							<g>
								<g>
									<path style="fill:#B8E3C5;" d="M292.39,188.123l0.115-0.11c0.302-0.323,0.612-0.637,0.931-0.942           c2.066-2.113,4.199-4.173,6.401-6.145c0.309-0.279,0.61-0.55,0.911-0.821c4.427-3.882,9.133-7.438,14.199-10.405           c0.632-0.368,1.273-0.726,1.913-1.085c0.395-0.208,0.781-0.425,1.166-0.625c6.365-3.311,13.247-5.658,20.337-6.457           c0.574-0.074,1.164-0.131,1.755-0.17c0.816-0.069,1.632-0.103,2.456-0.129c9.74-0.247,19.704,2.717,27.072,9.084           c4.739,4.099,8.339,9.933,9.047,16.042c0.061,0.4,0.104,0.817,0.112,1.233c0.094,1.64-0.028,3.302-0.411,4.941           c-2.536,10.979-12.966,18.658-24.046,20.731c-4.561,0.854-9.198,0.831-13.759,0.142c-0.562-0.073-1.106-0.163-1.641-0.278           c-5.983-1.092-11.812-3.282-17.204-6.078c-1.928-1.004-3.873-2.061-5.816-3.186c-0.428-0.235-0.856-0.487-1.276-0.73           C306.932,198.615,299.254,193.343,292.39,188.123z"/>
								</g>
							</g>
							<g>
								<g>
									<path style="fill:#4F021B;" d="M292.505,188.012c0.302-0.323,0.612-0.637,0.931-0.942           c4.595,1.929,9.616,3.417,15.038,4.436c0.569,0.116,1.14,0.215,1.718,0.323c3.066,0.526,6.247,0.908,9.545,1.144           c3.099,0.223,6.225,0.352,9.37,0.395l0.009-0.008c0.182,0.013,0.355,0.016,0.529,0.003l0.008,0.009           c3.675,0.028,7.369-0.065,11.058-0.288c0.503-0.024,0.998-0.056,1.484-0.098c8.481-0.569,16.942-1.798,25.244-3.672           c0.462-0.103,0.914-0.197,1.359-0.317c3.319-0.769,6.606-1.642,9.852-2.629c0.017,0.001,0.026-0.008,0.043-0.007           c0.314-0.063,0.622,0.118,0.728,0.423c0.088,0.322-0.093,0.665-0.424,0.762c-0.061,0.025-0.122,0.032-0.192,0.048           c-5.802,1.755-11.745,3.186-17.75,4.268c-0.47,0.094-0.949,0.179-1.436,0.255l-0.009,0.008           c-9.963,1.734-20.088,2.571-30.098,2.466c-0.607,0.004-1.231-0.01-1.845-0.032l-0.009,0.008           c-2.686-0.058-5.353-0.186-8.01-0.374C309.497,193.462,300.389,191.391,292.505,188.012z"/>
								</g>
							</g>
							<g>
								<g>
									<path style="fill:#4F021B;" d="M338.364,161.532c0.574-0.074,1.164-0.131,1.755-0.17           c10.377,8.305,20.005,17.581,28.679,27.634c0.025,0.044,0.059,0.079,0.093,0.115c0.22,0.265,0.202,0.655-0.071,0.865           c-0.247,0.22-0.637,0.185-0.857-0.062c-0.178-0.203-0.347-0.398-0.524-0.601           C358.645,179.172,348.888,169.849,338.364,161.532z"/>
								</g>
							</g>
							<g>
								<g>
									<path style="fill:#4F021B;" d="M338.948,213.129c7.862-5.949,14.89-13.068,20.663-21.004           c0.125-0.171,0.241-0.333,0.366-0.504c0.197-0.273,0.579-0.334,0.852-0.137c0.128,0.098,0.212,0.221,0.226,0.378           c0.049,0.157,0.019,0.338-0.088,0.475c-5.685,7.92-12.611,15.077-20.378,21.07           C340.027,213.335,339.483,213.245,338.948,213.129z"/>
								</g>
							</g>
							<g>
								<g>
									<path style="fill:#4F021B;" d="M316.86,168.614c0.395-0.208,0.781-0.425,1.166-0.625           c9.047,7.305,17.168,15.699,24.169,24.996c0.008,0.026,0.017,0.035,0.033,0.053c0.193,0.273,0.142,0.662-0.131,0.855           c-0.273,0.211-0.653,0.15-0.856-0.114c-0.177-0.238-0.345-0.467-0.531-0.696           C333.792,183.979,325.78,175.769,316.86,168.614z"/>
								</g>
							</g>
							<g>
								<g>
									<path style="fill:#4F021B;" d="M314.652,203.135c4.637-2.37,9.017-5.256,13.007-8.567c0.442-0.372,0.883-0.744,1.316-1.124           c0.036-0.034,0.079-0.059,0.132-0.075c0.167-0.092,0.366-0.096,0.537-0.006c0.078,0.028,0.128,0.081,0.188,0.143           c0.229,0.256,0.211,0.646-0.053,0.866c-0.08,0.076-0.177,0.152-0.265,0.22c-4.135,3.602-8.719,6.719-13.585,9.274           C315.5,203.63,315.072,203.378,314.652,203.135z"/>
								</g>
							</g>
							<g>
								<g>
									<path style="fill:#4F021B;" d="M309.238,192.607c-0.252-0.37-0.513-0.73-0.765-1.1c-2.624-3.715-5.511-7.263-8.637-10.581           c0.309-0.279,0.61-0.55,0.911-0.821c3.439,3.663,6.604,7.59,9.444,11.725c0.025,0.027,0.033,0.053,0.059,0.079           c0.193,0.273,0.124,0.661-0.157,0.846C309.821,192.949,309.432,192.879,309.238,192.607z"/>
								</g>
							</g>
						</g>
					</g>
				</g>
			</g>
			<g>
				<g>
					<g>
						<path style="fill:#FFE7E7;" d="M469.661,268.867c1.462,1.805,3.624,3.517,5.614,2.693c1.224-0.507,2.003-1.894,2.244-3.333        c0.241-1.439,0.029-2.937-0.227-4.391c-0.784-4.463-2.055-9.023-4.813-12.435c-2.691-3.33-7.697-4.253-8.651,0.849        C462.772,257.908,466.319,264.742,469.661,268.867z"/>
					</g>
				</g>
				<g>
					<g>
						<path style="fill:#FFE7E7;" d="M481.825,280.789c0.321,2.217-1.021,4.247-2.999,4.533c-1.978,0.287-3.841-1.278-4.163-3.495        c-0.321-2.217,1.021-4.247,2.999-4.533C479.639,277.006,481.503,278.572,481.825,280.789z"/>
					</g>
				</g>
			</g>
		</g>
		<g>
			<g>
				<path style="fill:#F8627F;" d="M330.561,112.543c-14.354-15.544-31.821,1.648-34.096,3.649      c-1.715-2.712-13.608-23.711-31.524-12.7c-26.495,16.283,22.784,66.251,24.097,67.576c-0.001,0.01-0.003,0.025-0.003,0.025      s0.007-0.004,0.018-0.01c0.008,0.008,0.014,0.014,0.014,0.014s0.002-0.015,0.002-0.025      C290.688,170.156,351.659,135.392,330.561,112.543z"/>
			</g>
		</g>
		<g>
			<g>
				<path style="fill:#F8627F;" d="M445.877,149.912c-15.255-5.423-20.971,12.439-21.801,14.604      c-2.127-1.227-17.655-11.221-25.875,2.613c-12.156,20.458,39.008,36.776,40.369,37.206c0.003,0.007,0.007,0.018,0.007,0.018      s0.003-0.005,0.008-0.013c0.008,0.003,0.015,0.005,0.015,0.005s-0.004-0.011-0.007-0.018      C439.364,203.131,468.301,157.886,445.877,149.912z"/>
			</g>
		</g>
		<g>
			<g>
				<path style="fill:#F8627F;" d="M93.882,203.271c-3.967-14.654-20.788-9.52-22.9-9.003c-0.19-2.295-0.781-19.602-15.834-18.548      c-22.261,1.558-7.512,49.709-7.117,50.987c-0.004,0.006-0.01,0.015-0.01,0.015s0.006-0.001,0.014,0      c0.002,0.008,0.004,0.014,0.004,0.014s0.006-0.009,0.01-0.015C49.383,226.675,99.713,224.813,93.882,203.271z"/>
			</g>
		</g>
		<g>
			<g>
				<path style="fill:#F8627F;" d="M108.466,125.659c-8.604-3.618-12.476,6.477-13.024,7.696c-1.184-0.775-9.797-7.034-14.979,0.661      c-7.663,11.38,21.254,22.439,22.024,22.731c0.001,0.004,0.003,0.01,0.003,0.01s0.002-0.003,0.005-0.007      c0.005,0.002,0.008,0.003,0.008,0.003s-0.002-0.006-0.004-0.011C102.983,156.079,121.113,130.979,108.466,125.659z"/>
			</g>
		</g>
	</g>
</g>















</svg>
