<?xml version="1.0" encoding="UTF-8"?>
<!-- Generator: Adobe Illustrator 25.2.0, SVG Export Plug-In . SVG Version: 6.00 Build 0)  -->
<svg xmlns="http://www.w3.org/2000/svg" xmlns:xlink="http://www.w3.org/1999/xlink" version="1.1" id="Capa_1" x="0px" y="0px" viewBox="0 0 512 512" style="enable-background:new 0 0 512 512;" xml:space="preserve" width="512" height="512">
<g>
	<path style="fill:#241726;" d="M98.115,308.137c-0.531,0-1.024-0.343-1.189-0.878c-0.199-0.656,0.17-1.351,0.825-1.551   c0.517-0.158,51.731-15.965,63.66-31.324c0.422-0.545,1.203-0.639,1.742-0.22c0.541,0.421,0.64,1.201,0.218,1.743   c-12.407,15.978-62.755,31.522-64.892,32.176C98.358,308.12,98.234,308.137,98.115,308.137z"/>
	<path style="fill:#241726;" d="M142.284,350.892c-0.039,0-0.078-0.001-0.116-0.006c-24.862-2.346-105.946-10.811-105.461-21.192   c0.437-9.423,26.735-34.325,33.596-40.669c-6.956-3.762-30.777-17.452-27.9-27.036c0.141-0.475,0.553-0.82,1.046-0.877   c0.296-0.034,29.974-3.42,58.873-3.42c35.253,0,54.523,4.937,57.272,14.674c6.497,23.01-15.236,75.537-16.162,77.762   C143.235,350.594,142.782,350.892,142.284,350.892z M44.645,263.479c-0.412,6.646,16.881,18.208,28.366,24.171   c0.361,0.187,0.607,0.539,0.66,0.941c0.051,0.403-0.095,0.805-0.395,1.08c-9.36,8.526-33.725,32.358-34.089,40.141   c-0.25,5.414,52.723,13.795,102.298,18.516c2.805-6.943,21.548-54.641,15.718-75.286c-1.657-5.869-12.523-12.864-54.88-12.864   C76.404,260.177,49.844,262.915,44.645,263.479z"/>
	<path style="fill:#241726;" d="M437.799,456.836c-0.002,0-0.002,0-0.005,0c-31.961,0-96.084-8.594-96.727-8.68   c-0.199-0.027-0.388-0.102-0.553-0.217c-1.169-0.828-28.237-20.948,9.117-78.323c2.936-4.511,9.699-6.704,20.673-6.704   c33.164,0,94.457,20.955,95.073,21.167c0.471,0.161,0.798,0.59,0.835,1.086c0.713,9.981-25.525,18.14-33.133,20.292   c5.311,7.689,25.537,37.733,23.906,47.026C456.608,454.635,454.032,456.836,437.799,456.836z M341.729,445.738   c5.044,0.671,65.458,8.614,96.065,8.614c0,0,0.002,0,0.005,0c16.15,0,16.735-2.277,16.74-2.3   c1.346-7.676-17.23-36.253-24.501-46.616c-0.233-0.332-0.289-0.758-0.15-1.139c0.138-0.382,0.456-0.671,0.849-0.775   c12.509-3.313,31.9-10.818,32.958-17.39c-7.596-2.553-62.787-20.737-93.392-20.737c-9.927,0-16.182,1.877-18.591,5.576   c-18.863,28.971-20.474,47.844-18.506,58.575C335.094,439.832,340.557,444.779,341.729,445.738z"/>
	<g>
		<path style="fill:#A8D5CB;" d="M367.132,157.368c0,0,15.69-34.063,36.277-31.171c20.587,2.892,56.376,7.813,51.047,13.387    c-5.33,5.574-22.822,37.04-47.956,42.745C381.366,188.033,363.671,164.554,367.132,157.368z"/>
		<path style="fill:#241726;" d="M370.208,164.263c-0.354,0-0.706-0.152-0.953-0.445c-0.439-0.526-0.369-1.309,0.155-1.749    c13.224-11.063,55.501-18.83,57.296-19.156c0.662-0.118,1.32,0.324,1.444,1.001c0.121,0.676-0.325,1.322-1.002,1.445    c-0.432,0.078-43.422,7.973-56.142,18.615C370.774,164.169,370.49,164.263,370.208,164.263z"/>
	</g>
	<g>
		<path style="fill:#A8D5CB;" d="M334.864,63.901c0,0,4.739-37.203,25.244-40.626c20.505-3.423,56.121-9.475,52.711-2.558    S402.171,62.901,379.91,75.89C357.649,88.878,333.721,71.795,334.864,63.901z"/>
		<path style="fill:#241726;" d="M339.497,69.613c-0.23,0-0.461-0.063-0.67-0.195c-0.577-0.37-0.747-1.138-0.376-1.716    c9.292-14.522,47.284-34.627,48.897-35.475c0.604-0.317,1.354-0.087,1.676,0.52c0.32,0.608,0.087,1.359-0.522,1.678    c-0.388,0.205-39.021,20.645-47.961,34.616C340.307,69.41,339.904,69.613,339.497,69.613z"/>
	</g>
	<g>
		<path style="fill:#A8D5CB;" d="M356.148,229.384c0,0,14.506-40.745,38.45-39.548s65.56,3.155,60.014,10.107    s-22.39,44.9-50.669,54.046C375.662,263.137,352.915,237.996,356.148,229.384z"/>
		<path style="fill:#241726;" d="M360.266,236.803c-0.318,0-0.636-0.121-0.878-0.363c-0.485-0.485-0.485-1.271,0-1.756    c14.008-14.037,61.719-27.31,63.743-27.868c0.657-0.177,1.344,0.206,1.528,0.867c0.182,0.661-0.206,1.345-0.869,1.527    c-0.49,0.135-49.099,13.655-62.646,27.228C360.902,236.682,360.584,236.803,360.266,236.803z"/>
	</g>
	<g>
		<path style="fill:#A8D5CB;" d="M205.352,116.855c0,0,16.172-33.838,0.79-47.823s-42.039-38.367-42.92-30.706    c-0.881,7.662-13.903,41.225-2.228,64.202S202.036,124.109,205.352,116.855z"/>
		<path style="fill:#241726;" d="M199.037,119.344c-0.621,0.004-1.245-0.558-1.242-1.246c0.056-16.589-21.347-54.697-21.563-55.08    c-0.337-0.597-0.126-1.355,0.471-1.692c0.594-0.336,1.354-0.13,1.693,0.472c0.895,1.587,21.941,39.068,21.883,56.308    C200.277,118.79,199.721,119.344,199.037,119.344z"/>
	</g>
	<g>
		<path style="fill:#A8D5CB;" d="M172.031,202.842c0,0,5.035-37.164-13.89-45.769c-18.925-8.605-51.767-23.653-50.26-16.09    c1.507,7.563-0.613,43.502,17.536,61.801S171.095,210.764,172.031,202.842z"/>
		<path style="fill:#241726;" d="M166.399,207.205c-0.526,0-1.017-0.337-1.184-0.866c-5.022-15.807-37.065-45.534-37.388-45.832    c-0.505-0.466-0.536-1.251-0.07-1.755c0.466-0.501,1.252-0.535,1.754-0.069c1.339,1.236,32.851,30.473,38.072,46.904    c0.209,0.654-0.153,1.353-0.808,1.56C166.649,207.187,166.523,207.205,166.399,207.205z"/>
	</g>
	<g>
		<path style="fill:#F6D76E;" d="M431.171,89.346c0,0-20.553-3.094-19.084,8.273s19.783,18.279,27.409,3.289    c0,0-6.28,12.197,2.495,12.259C450.767,113.228,453.237,97.538,431.171,89.346z"/>
		<path style="fill:#F6D76E;" d="M435.461,85.892c0,0-11.063-17.595-0.059-20.8c11.004-3.204,24.67,10.81,13.987,23.8    c0,0,10.595-8.959,14.164-0.942C467.123,95.967,451.802,102.832,435.461,85.892z"/>
		<path style="fill:#241726;" d="M410.03,87.342c-0.121,0-0.243-0.017-0.364-0.055c-0.655-0.201-1.024-0.895-0.825-1.551    c1.06-3.456,2.94-5.593,5.592-6.353c6.274-1.794,14.36,5.168,14.702,5.465c0.517,0.45,0.573,1.234,0.121,1.752    c-0.449,0.518-1.232,0.573-1.752,0.124c-2.05-1.778-8.283-6.131-12.39-4.952c-1.815,0.522-3.091,2.056-3.896,4.692    C411.054,86.999,410.561,87.342,410.03,87.342z"/>
		<path style="fill:#241726;" d="M430.55,84.463c-0.233,0-0.466-0.064-0.674-0.199c-12.082-7.807-7.681-17.458-7.637-17.554    c0.296-0.621,1.041-0.883,1.657-0.59c0.616,0.294,0.881,1.031,0.59,1.65c-0.153,0.336-3.44,7.829,6.74,14.407    c0.575,0.372,0.74,1.141,0.369,1.718C431.355,84.263,430.955,84.463,430.55,84.463z"/>
	</g>
	<g>
		<path style="fill:#F6D76E;" d="M152.44,464.287c0,0,20.668-2.191,16.38-12.819s-23.754-12.698-27.353,3.731    c0,0,3-13.387-5.507-11.233C127.453,446.12,129.021,461.926,152.44,464.287z"/>
		<path style="fill:#F6D76E;" d="M149.16,468.712c0,0,15.144,14.236,5.304,20.112s-26.599-4.238-19.538-19.502    c0,0-7.993,11.342-13.469,4.485C115.98,466.95,129.074,456.441,149.16,468.712z"/>
		<path style="fill:#241726;" d="M166.21,470.886c-5.027,0-10.367-2.612-10.667-2.761c-0.614-0.304-0.864-1.049-0.56-1.664    c0.306-0.611,1.05-0.866,1.664-0.562c2.433,1.205,9.554,3.847,13.239,1.667c1.625-0.962,2.472-2.768,2.589-5.523    c0.029-0.687,0.509-1.246,1.296-1.189c0.684,0.029,1.218,0.608,1.189,1.293c-0.155,3.612-1.436,6.155-3.811,7.558    C169.694,470.565,167.971,470.886,166.21,470.886z"/>
		<path style="fill:#241726;" d="M165.574,484.948c-0.078,0-0.155-0.007-0.235-0.022c-0.672-0.129-1.114-0.776-0.987-1.448    c0.066-0.381,1.339-8.448-10.153-12.242c-0.653-0.215-1.007-0.917-0.791-1.568c0.214-0.65,0.915-1.013,1.567-0.79    c13.659,4.508,11.837,14.956,11.817,15.061C166.678,484.534,166.159,484.948,165.574,484.948z"/>
	</g>
	<path style="fill:#241726;" d="M346.159,495.015c-0.934,0-1.82,0.001-4.333-10.009c-8.496-1.633-9.234-2.621-9.481-2.953   c-0.23-0.309-0.33-0.886-0.226-1.257c0.153-0.537,0.505-1.784,10.199-5.689c3.477-9.069,4.639-9.069,5.41-9.069   c0.393,0,0.939,0.285,1.174,0.6c0.619,0.83,1.182,3,2.035,6.476c0.272,1.1,0.599,2.431,0.786,3.002   c0.502,0.227,1.642,0.636,2.586,0.974c4.966,1.781,6.247,2.384,6.475,3.551c0.082,0.429-0.138,1.064-0.466,1.356   c-1.007,0.905-5.84,2.698-8.36,3.594c-4.102,9.336-4.966,9.38-5.73,9.42C346.21,495.015,346.181,495.015,346.159,495.015z    M335.47,480.984c1.681,0.495,4.842,1.215,7.598,1.729c0.478,0.09,0.861,0.451,0.978,0.924c0.704,2.849,1.625,6.099,2.278,7.902   c0.941-1.676,2.397-4.733,3.576-7.433c0.138-0.315,0.4-0.56,0.725-0.674c2.356-0.828,5.022-1.85,6.635-2.563   c-1.145-0.489-2.756-1.066-3.79-1.436c-2.834-1.017-3.367-1.236-3.726-1.716c-0.315-0.423-0.512-1.137-1.218-4.005   c-0.274-1.117-0.701-2.849-1.075-4.106c-0.849,1.601-2.062,4.411-3.003,6.896c-0.124,0.325-0.378,0.585-0.701,0.713   C340.693,478.431,337.226,479.987,335.47,480.984z"/>
	<path style="fill:#241726;" d="M74.068,235.278c-0.936,0-1.822,0.001-4.333-10.009c-8.499-1.633-9.236-2.623-9.484-2.955   c-0.23-0.309-0.33-0.883-0.226-1.254c0.153-0.537,0.505-1.783,10.199-5.689c3.477-9.069,4.639-9.069,5.413-9.069   c0.393,0,0.939,0.285,1.172,0.599c0.619,0.83,1.181,2.996,2.035,6.465c0.272,1.106,0.599,2.443,0.786,3.014   c0.505,0.227,1.645,0.637,2.591,0.975c4.964,1.78,6.242,2.384,6.473,3.549c0.082,0.429-0.138,1.063-0.463,1.355   c-1.012,0.906-5.844,2.699-8.365,3.595c-4.1,9.333-4.964,9.379-5.726,9.42C74.119,235.278,74.092,235.278,74.068,235.278z    M63.379,221.246c1.681,0.496,4.842,1.217,7.598,1.73c0.478,0.09,0.861,0.451,0.978,0.924c0.704,2.849,1.625,6.099,2.278,7.9   c0.939-1.676,2.395-4.733,3.574-7.432c0.138-0.315,0.4-0.56,0.725-0.674c2.356-0.829,5.022-1.85,6.635-2.563   c-1.145-0.489-2.751-1.065-3.785-1.435c-2.839-1.018-3.372-1.238-3.731-1.72c-0.313-0.42-0.512-1.137-1.22-4.015   c-0.274-1.115-0.699-2.841-1.07-4.095c-0.852,1.601-2.065,4.411-3.006,6.897c-0.124,0.325-0.378,0.585-0.701,0.713   C68.602,218.693,65.135,220.25,63.379,221.246z"/>
	<path style="fill:#241726;" d="M110.782,68.428c-0.934,0-1.82,0.001-4.333-10.009c-8.496-1.633-9.234-2.623-9.481-2.955   c-0.23-0.309-0.33-0.883-0.226-1.254c0.153-0.537,0.505-1.783,10.199-5.689c3.477-9.069,4.639-9.069,5.41-9.069   c0.393,0,0.939,0.285,1.174,0.6c0.619,0.83,1.181,3,2.035,6.476c0.272,1.1,0.599,2.431,0.786,3.002   c0.502,0.227,1.642,0.636,2.586,0.974c4.966,1.781,6.247,2.384,6.475,3.551c0.082,0.429-0.138,1.064-0.466,1.356   c-1.007,0.905-5.842,2.698-8.363,3.594c-4.1,9.336-4.964,9.38-5.728,9.42C110.833,68.428,110.804,68.428,110.782,68.428z    M100.092,54.395c1.681,0.496,4.842,1.217,7.598,1.73c0.478,0.09,0.861,0.451,0.978,0.924c0.704,2.849,1.625,6.099,2.278,7.9   c0.941-1.676,2.397-4.732,3.574-7.431c0.138-0.317,0.4-0.562,0.725-0.676c2.358-0.829,5.022-1.85,6.638-2.563   c-1.145-0.489-2.756-1.066-3.79-1.436c-2.834-1.017-3.367-1.236-3.726-1.716c-0.315-0.423-0.512-1.137-1.218-4.005   c-0.274-1.117-0.701-2.849-1.075-4.106c-0.849,1.601-2.062,4.411-3.003,6.896c-0.124,0.325-0.378,0.585-0.701,0.713   C105.316,51.843,101.851,53.399,100.092,54.395z"/>
	<path style="fill:#241726;" d="M117.597,103.814c-0.002,0-0.036,0-0.039,0c-4.969-0.021-8.996-4.082-8.976-9.053   c0.022-4.949,4.066-8.975,9.013-8.975c5.01,0.021,9.037,4.082,9.018,9.052C126.59,99.788,122.546,103.814,117.597,103.814z    M117.626,88.27c-3.615,0-6.543,2.916-6.56,6.502c-0.015,3.6,2.902,6.542,6.502,6.558l0.029,1.242v-1.242   c3.586,0,6.514-2.917,6.531-6.503C124.142,91.228,121.226,88.286,117.626,88.27z"/>
	<path style="fill:#241726;" d="M471.844,364.99c-0.002,0-0.036,0-0.039,0c-4.969-0.021-8.996-4.082-8.976-9.053   c0.022-4.95,4.066-8.976,9.015-8.976c5.007,0.023,9.035,4.083,9.015,9.053C480.837,360.964,476.793,364.99,471.844,364.99z    M471.873,349.445c-3.615,0-6.543,2.917-6.56,6.503c-0.015,3.6,2.902,6.542,6.502,6.558l0.029,1.242v-1.242   c3.586,0,6.514-2.917,6.531-6.503C478.389,352.404,475.471,349.461,471.873,349.445z"/>
	<path style="fill:#241726;" d="M448.238,46.417c0,0-0.036,0-0.039,0c-4.969-0.023-8.996-4.083-8.976-9.053   c0.022-4.95,4.066-8.976,9.015-8.976c5.007,0.023,9.035,4.083,9.015,9.053C457.232,42.391,453.187,46.417,448.238,46.417z    M448.267,30.872c-3.615,0-6.543,2.917-6.56,6.503c-0.015,3.599,2.904,6.542,6.502,6.558l0.029,1.242v-1.242   c3.586,0,6.514-2.917,6.531-6.503C454.784,33.831,451.865,30.888,448.267,30.872z"/>
	<path style="fill:#F6CBC0;" d="M138.404,224.29c0,0,232.214,18.613,261.56,25.517s-78.226,222.018-150.669,198.568   C176.853,424.924,121.333,236.933,138.404,224.29z"/>
	<path style="fill:#F6CBC0;" d="M295.086,501.975c0,0-83.448-4.783-93.304-7.102c-9.856-2.319,31.732-76.032,56.061-68.156   C282.174,434.592,300.82,497.728,295.086,501.975z"/>
	<path style="fill:#241726;" d="M340.523,445.948c-0.073,0-0.146-0.006-0.216-0.018c-0.677-0.119-1.128-0.763-1.009-1.439   c3.663-20.892,51.365-40.81,53.395-41.647c0.64-0.261,1.363,0.04,1.621,0.673c0.262,0.634-0.039,1.361-0.674,1.622   c-0.483,0.2-48.466,20.227-51.896,39.781C341.639,445.524,341.115,445.948,340.523,445.948z"/>
	<path style="fill:#EB7E95;" d="M99.248,305.038c0,0,198.135,19.593,307.144,24.328c25.244,1.096,9.375,72.984-21.101,81.59   c-30.477,8.606-247.299-1.215-266.686-12.421C72.205,371.715,91.396,312.192,99.248,305.038z"/>
	<path style="fill:#241726;" d="M247.098,473.913c-0.286,0-0.575-0.098-0.808-0.3c-0.522-0.446-0.582-1.23-0.136-1.75   c4.139-4.828,2.373-22.809,0.944-27.58c-2.55,2.361-9.338,13.214-15.008,23.362c-0.337,0.599-1.097,0.808-1.691,0.478   c-0.599-0.335-0.813-1.092-0.478-1.691c9.285-16.613,15.209-25.036,17.608-25.036c0.007,0,0.015,0,0.024,0   c0.624,0.015,1.169,0.37,1.46,0.95c1.693,3.387,4.391,24.876-0.973,31.133C247.794,473.767,247.447,473.913,247.098,473.913z"/>
	<path style="fill:#241726;" d="M268.015,473.108c-0.466,0-0.912-0.263-1.123-0.712c-5.66-11.986-11.997-26.797-10.049-29.289   c0.41-0.526,1.077-0.761,1.761-0.619c4.226,0.844,17.007,8.425,17.887,16.367c0.075,0.682-0.417,1.296-1.099,1.372   c-0.674,0.074-1.296-0.415-1.371-1.098c-0.687-6.193-10.978-12.653-15.165-14.007c0.281,3.356,5.315,15.695,10.282,26.212   c0.294,0.62,0.027,1.36-0.592,1.653C268.374,473.07,268.195,473.108,268.015,473.108z"/>
	<path style="fill:#241726;" d="M387.317,286.297c-5.808,0-9.302-1.925-11.395-4.128c-0.82-0.861-1.487-1.828-2.016-2.87   c-7.744,1.475-17.895-1.411-24.739-5.595c-3.372,3.084-9.19,6.031-19.166,6.309c-10.74,0.309-16.597-1.747-19.721-4.344   c-3.253,2.788-8.144,5.36-15.486,6.736c-10.221,1.926-18.128-1.422-21.796-8.991c-3.367,2.022-8.016,3.791-14.411,4.969   c-16.213,2.991-21.616-1.573-23.305-5.923c-0.286-0.735-0.48-1.502-0.592-2.289c-1.963,0.763-4.19,1.378-6.706,1.781   c-12.305,1.954-21.798-4.816-25.743-11.846c-3.986,2.661-9.634,4.876-17.004,5.422c-11.296,0.831-15.76-3.631-17.521-6.899   c-2.637,1.201-5.752,1.765-9.297,1.258c-17.645-2.521-19.547-17.834-19.564-17.988c-0.075-0.681,0.415-1.293,1.094-1.37   c0.67-0.082,1.298,0.41,1.376,1.093c0.063,0.552,1.747,13.562,17.443,15.805c3.079,0.442,5.762-0.035,8.03-1.076   c-1.514-5.456,0.956-12.039,5.641-14.85c2.375-1.428,3.77-0.708,4.389-0.152c1.562,1.408,1.46,4.692-0.26,8.364   c-1.31,2.795-3.574,5.706-6.689,7.728c2.171,4.197,7.465,6.18,15.173,5.609c7.084-0.525,12.446-2.705,16.109-5.221   c-0.216-0.551-0.393-1.099-0.534-1.638c-1.041-4.013,0.264-7.215,3.404-8.357c2.615-0.949,3.988-0.319,4.682,0.381   c0.539,0.545,1.312,1.813,0.422,4.189c-0.687,1.838-2.302,4.085-4.874,6.203c3.409,6.281,12.213,12.667,23.329,10.891   c2.693-0.431,5.015-1.117,7.004-1.966c0.381-6.166,4.634-12.765,7.822-14.755c2.011-1.26,3.331-0.722,3.942-0.284   c1.235,0.886,1.633,2.717,1.089,5.023c-0.75,3.177-3.736,8.252-10.374,11.595c0.058,0.859,0.226,1.684,0.522,2.449   c1.936,4.982,9.035,6.497,20.539,4.379c6.347-1.169,10.798-2.915,13.911-4.862c-0.097-0.285-0.187-0.575-0.274-0.87   c-2.247-7.729-0.039-16.469,4.631-18.337c0.446-0.18,1.354-0.332,2.428,0.638c1.795,1.616,3.68,6.165,2.251,11.218   c-0.728,2.579-2.402,5.571-5.988,8.275c2.06,4.389,7.13,10.223,19.241,7.962c6.793-1.274,11.274-3.603,14.229-6.099   c-0.517-0.706-0.888-1.422-1.15-2.117c-1.934-5.117,1.276-10.926,4.054-13.241c1.055-0.879,2.249-1.046,3.287-0.45   c1.679,0.967,2.436,3.806,1.883,7.067c-0.279,1.638-1.249,5.243-4.571,8.827c2.703,2.148,7.914,3.868,17.863,3.577   c8.098-0.224,13.637-2.422,17.075-5.269c-2.365-1.738-4.122-3.623-4.93-5.472c-1.264-2.888-0.386-5.567,2.47-7.543   c2.603-1.807,5.197-2.035,7.111-0.626c2.193,1.612,2.926,5.063,1.822,8.587c-0.313,0.998-1.041,2.785-2.62,4.714   c6.143,3.611,15.185,6.146,22.114,5.022c-1.41-4.748-0.565-10.414,1.533-14.703c1.735-3.541,4.001-5.456,6.271-5.22   c3.697,0.37,6.25,3.359,6.502,7.617c0.308,5.164-2.999,11.503-10.888,14.03c0.371,0.647,0.813,1.248,1.329,1.792   c3.333,3.503,11.068,6.062,28.994-1.621c0.628-0.272,1.359,0.018,1.633,0.653c0.269,0.63-0.022,1.36-0.653,1.63   C398.858,284.908,392.252,286.297,387.317,286.297z M380.429,259.487c-0.917,0-2.38,1.167-3.69,3.844   c-1.839,3.756-2.608,8.895-1.334,13.04c6.793-2.085,9.651-7.335,9.396-11.587c-0.141-2.367-1.337-4.999-4.27-5.292   C380.497,259.488,380.466,259.487,380.429,259.487z M313.465,260.199c-0.133,0-0.354,0.177-0.403,0.218   c-2.319,1.931-4.762,6.639-3.321,10.455c0.155,0.411,0.361,0.832,0.636,1.252c2.766-3.043,3.578-6.032,3.814-7.415   c0.451-2.647-0.216-4.235-0.672-4.498C313.504,260.202,313.487,260.199,313.465,260.199z M348.818,260.19   c-0.832,0-1.805,0.37-2.858,1.098c-2.46,1.703-2.094,3.387-1.606,4.504c0.699,1.601,2.273,3.245,4.403,4.768   c1.155-1.327,1.926-2.728,2.353-4.095c0.774-2.472,0.393-4.876-0.924-5.844C349.796,260.333,349.335,260.19,348.818,260.19z    M277.096,254.281c-2.965,1.488-4.915,8.426-2.936,15.233c0.002,0.015,0.007,0.03,0.012,0.045c3.595-2.949,4.646-6.119,4.872-8.342   C279.41,257.62,277.841,254.825,277.096,254.281z M244.769,254.48c-0.194,0-0.546,0.098-1.036,0.403   c-2.458,1.537-5.672,6.535-6.487,11.325c4.935-2.879,7.196-6.758,7.785-9.262c0.357-1.503,0.068-2.301-0.119-2.435   C244.885,254.492,244.837,254.48,244.769,254.48z M206.408,249.838c-0.332,0-0.827,0.078-1.526,0.331   c-2.581,0.939-2.266,3.786-1.849,5.399c0.058,0.217,0.121,0.438,0.194,0.66c1.883-1.655,3.074-3.333,3.583-4.693   c0.34-0.905,0.264-1.443,0.141-1.57C206.895,249.91,206.725,249.838,206.408,249.838z M174.983,243.147   c-0.23,0-0.655,0.119-1.266,0.484c-3.537,2.124-5.539,7.173-4.673,11.426c2.399-1.695,4.17-4.038,5.274-6.396   c1.366-2.916,1.279-5.077,0.847-5.467C175.133,243.165,175.072,243.147,174.983,243.147z"/>
	<path style="fill:#241726;" d="M428.927,335.528c-0.64,0-1.184-0.492-1.235-1.143c-0.056-0.684,0.454-1.282,1.138-1.338   c0.019-0.001,1.919-0.158,4.838-0.67c0.641-0.11,1.317,0.332,1.436,1.009c0.119,0.676-0.332,1.32-1.009,1.439   c-3.042,0.534-4.986,0.691-5.066,0.699C428.995,335.527,428.961,335.528,428.927,335.528z M438.759,333.827   c-0.56,0-1.07-0.381-1.208-0.95c-0.16-0.667,0.25-1.338,0.917-1.499c1.613-0.392,3.2-0.831,4.716-1.306   c0.657-0.201,1.351,0.159,1.555,0.813c0.206,0.655-0.158,1.351-0.813,1.558c-1.565,0.492-3.207,0.946-4.876,1.35   C438.954,333.816,438.854,333.827,438.759,333.827z M448.245,330.83c-0.492,0-0.958-0.295-1.152-0.78   c-0.255-0.636,0.053-1.36,0.689-1.615c1.553-0.624,3.04-1.299,4.423-2.01c0.609-0.309,1.361-0.073,1.672,0.537   c0.315,0.61,0.075,1.359-0.536,1.673c-1.451,0.745-3.008,1.453-4.631,2.105C448.556,330.801,448.401,330.83,448.245,330.83z    M457.062,326.259c-0.4,0-0.793-0.194-1.034-0.552c-0.381-0.57-0.228-1.342,0.344-1.723c1.371-0.917,2.644-1.902,3.787-2.928   c0.505-0.461,1.293-0.42,1.754,0.092c0.459,0.511,0.417,1.296-0.095,1.754c-1.228,1.106-2.598,2.165-4.069,3.147   C457.54,326.191,457.299,326.259,457.062,326.259z M464.379,319.602c-0.267,0-0.536-0.086-0.764-0.263   c-0.541-0.421-0.638-1.202-0.216-1.743c0.983-1.259,1.827-2.597,2.506-3.975c0.303-0.614,1.058-0.864,1.662-0.564   c0.616,0.303,0.869,1.048,0.565,1.663c-0.754,1.53-1.689,3.012-2.773,4.405C465.114,319.438,464.747,319.602,464.379,319.602z    M468.721,310.771c-0.099,0-0.201-0.012-0.303-0.038c-0.665-0.167-1.067-0.842-0.902-1.507c0.374-1.486,0.602-3.05,0.679-4.651   c0.032-0.684,0.636-1.207,1.298-1.182c0.687,0.033,1.215,0.615,1.182,1.3c-0.082,1.764-0.335,3.492-0.747,5.136   C469.784,310.395,469.279,310.771,468.721,310.771z M469.248,300.92c-0.621,0-1.157-0.465-1.23-1.097   c-0.182-1.527-0.483-3.114-0.895-4.714c-0.17-0.664,0.228-1.342,0.893-1.513c0.672-0.171,1.342,0.232,1.514,0.894   c0.439,1.707,0.759,3.403,0.953,5.041c0.082,0.681-0.405,1.298-1.087,1.379C469.347,300.918,469.296,300.92,469.248,300.92z    M466.836,291.304c-0.505,0-0.978-0.309-1.165-0.809c-0.536-1.447-1.172-2.956-1.885-4.486c-0.291-0.622-0.022-1.361,0.602-1.651   c0.616-0.288,1.359-0.022,1.65,0.6c0.742,1.59,1.402,3.161,1.963,4.67c0.238,0.644-0.09,1.359-0.733,1.598   C467.127,291.28,466.979,291.304,466.836,291.304z M462.651,282.304c-0.437,0-0.861-0.232-1.087-0.643   c-0.837-1.518-1.655-2.938-2.453-4.266c-0.354-0.587-0.163-1.35,0.425-1.704c0.59-0.351,1.351-0.164,1.706,0.426   c0.813,1.353,1.645,2.8,2.496,4.346c0.332,0.6,0.114,1.356-0.488,1.687C463.061,282.254,462.855,282.304,462.651,282.304z    M439.366,277.943c-1.582,0-2.965-0.824-3.896-2.318c-0.361-0.582-0.184-1.348,0.398-1.71c0.585-0.36,1.349-0.187,1.713,0.398   c0.713,1.146,1.521,1.146,1.786,1.146c0.315,0,0.657-0.067,1.021-0.199c0.648-0.233,1.356,0.097,1.591,0.742   c0.235,0.644-0.097,1.357-0.742,1.591C440.601,277.825,439.97,277.943,439.366,277.943z M445.033,275.078   c-0.366,0-0.73-0.163-0.975-0.473c-0.425-0.537-0.332-1.319,0.206-1.744c1.133-0.895,2.348-1.978,3.61-3.218   c0.49-0.479,1.276-0.477,1.756,0.015c0.48,0.489,0.476,1.276-0.015,1.756c-1.325,1.304-2.608,2.447-3.814,3.398   C445.574,274.99,445.303,275.078,445.033,275.078z M457.523,273.798c-0.4,0-0.793-0.194-1.034-0.552   c-0.949-1.419-1.904-2.754-2.841-3.967c-0.42-0.542-0.32-1.322,0.223-1.742c0.536-0.419,1.32-0.321,1.742,0.223   c0.973,1.257,1.963,2.638,2.943,4.105c0.381,0.57,0.228,1.342-0.344,1.723C458.001,273.73,457.76,273.798,457.523,273.798z    M435.344,271.441c-0.672,0-1.225-0.536-1.242-1.212l-0.002-0.337c0-1.689,0.264-3.407,0.769-4.971   c0.206-0.653,0.91-1.009,1.562-0.803c0.653,0.21,1.012,0.91,0.801,1.562c-0.425,1.322-0.648,2.778-0.648,4.212l0.002,0.277   c0.017,0.687-0.526,1.255-1.213,1.272C435.363,271.441,435.353,271.441,435.344,271.441z M452.171,268.159   c-0.294,0-0.587-0.103-0.825-0.313c-0.512-0.456-0.56-1.241-0.104-1.754c0.029-0.033,0.061-0.067,0.09-0.101   c-0.303-0.016-0.599-0.142-0.825-0.377c-1.228-1.269-2.424-2.308-3.557-3.087c-0.565-0.389-0.708-1.162-0.32-1.727   c0.388-0.565,1.162-0.706,1.727-0.32c1.271,0.873,2.593,2.021,3.935,3.41c0.172,0.176,0.279,0.391,0.325,0.615   c0.59-0.699,1.182-1.423,1.776-2.17c0.429-0.537,1.213-0.621,1.744-0.2c0.539,0.427,0.628,1.208,0.201,1.746   c-1.087,1.368-2.171,2.659-3.239,3.862C452.855,268.018,452.513,268.159,452.171,268.159z M438.561,262.318   c-0.332,0-0.667-0.133-0.912-0.398c-0.466-0.503-0.434-1.289,0.068-1.755c1.538-1.424,3.435-2.067,5.558-1.805   c0.682,0.082,1.167,0.702,1.082,1.384c-0.082,0.682-0.706,1.185-1.383,1.081c-1.373-0.161-2.559,0.226-3.569,1.162   C439.165,262.209,438.864,262.318,438.561,262.318z M458.365,260.381c-0.252,0-0.507-0.076-0.725-0.234   c-0.558-0.4-0.684-1.177-0.284-1.733c0.939-1.304,1.87-2.659,2.78-4.055c0.374-0.574,1.145-0.731,1.72-0.363   c0.575,0.375,0.735,1.145,0.361,1.719c-0.934,1.43-1.885,2.817-2.843,4.15C459.131,260.201,458.75,260.381,458.365,260.381z    M463.792,252.049c-0.214,0-0.429-0.055-0.628-0.17c-0.592-0.347-0.791-1.109-0.444-1.701c0.822-1.402,1.618-2.837,2.38-4.297   c0.323-0.608,1.072-0.839,1.676-0.526c0.609,0.318,0.844,1.069,0.526,1.676c-0.781,1.496-1.596,2.965-2.438,4.403   C464.631,251.83,464.216,252.049,463.792,252.049z M468.384,243.232c-0.172,0-0.347-0.035-0.512-0.11   c-0.626-0.284-0.902-1.02-0.619-1.645c0.674-1.491,1.308-2.999,1.89-4.517c0.245-0.64,0.966-0.961,1.604-0.716   c0.64,0.245,0.961,0.962,0.716,1.604c-0.597,1.565-1.249,3.119-1.948,4.656C469.309,242.961,468.855,243.232,468.384,243.232z    M471.921,233.946c-0.119,0-0.24-0.017-0.361-0.053c-0.657-0.2-1.026-0.894-0.827-1.55c0.488-1.601,0.9-3.185,1.228-4.708   c0.146-0.672,0.801-1.101,1.477-0.953c0.67,0.144,1.097,0.804,0.953,1.475c-0.342,1.592-0.774,3.242-1.281,4.909   C472.948,233.602,472.455,233.946,471.921,233.946z M473.991,224.237c-0.049,0-0.095-0.002-0.143-0.008   c-0.682-0.078-1.172-0.693-1.094-1.374c0.177-1.551,0.267-3.082,0.267-4.549v-0.268c0-0.687,0.556-1.242,1.242-1.242   c0.687,0,1.242,0.556,1.242,1.242v0.268c0,1.561-0.095,3.185-0.281,4.83C475.15,223.769,474.612,224.237,473.991,224.237z    M468.612,214.643c-1.121-0.001-2.227-0.108-3.29-0.317c-0.672-0.132-1.111-0.786-0.978-1.459c0.131-0.674,0.774-1.116,1.458-0.979   c1.439,0.283,2.948,0.349,4.568,0.173c0.645-0.068,1.296,0.419,1.368,1.1c0.075,0.683-0.42,1.296-1.101,1.37   C469.944,214.607,469.27,214.643,468.612,214.643z M473.874,214.329c-0.602,0-1.131-0.439-1.225-1.054   c-0.245-1.598-0.616-3.153-1.106-4.623c-0.216-0.651,0.136-1.354,0.786-1.571c0.66-0.218,1.354,0.137,1.572,0.787   c0.34,1.025,0.628,2.086,0.861,3.173c0.046-0.023,0.092-0.044,0.143-0.061c1.402-0.506,2.851-1.18,4.301-2.005   c0.597-0.34,1.354-0.132,1.693,0.466c0.34,0.597,0.131,1.355-0.466,1.693c-1.575,0.895-3.151,1.629-4.69,2.182   c-0.218,0.078-0.446,0.092-0.657,0.051c-0.112,0.48-0.505,0.867-1.021,0.946C474.001,214.324,473.937,214.329,473.874,214.329z    M460.936,212.612c-0.211,0-0.425-0.053-0.619-0.165c-1.511-0.869-2.909-1.985-4.156-3.319c-0.468-0.501-0.442-1.287,0.058-1.755   c0.502-0.471,1.288-0.44,1.756,0.059c1.077,1.154,2.283,2.116,3.578,2.86c0.594,0.342,0.801,1.101,0.459,1.696   C461.783,212.389,461.366,212.612,460.936,212.612z M483.972,208.573c-0.378,0-0.752-0.173-0.997-0.501   c-0.41-0.549-0.296-1.328,0.255-1.738c1.23-0.913,2.492-1.951,3.748-3.08c0.509-0.461,1.293-0.417,1.754,0.095   c0.459,0.511,0.415,1.296-0.095,1.754c-1.313,1.18-2.635,2.265-3.923,3.225C484.491,208.493,484.231,208.573,483.972,208.573z    M454.194,205.49c-0.442,0-0.871-0.238-1.094-0.656c-0.854-1.591-1.497-3.306-1.863-4.956c-0.148-0.67,0.274-1.333,0.944-1.482   c0.682-0.139,1.334,0.277,1.482,0.944c0.318,1.433,0.881,2.928,1.625,4.323c0.325,0.605,0.097,1.357-0.507,1.681   C454.594,205.442,454.393,205.49,454.194,205.49z M470.73,204.961c-0.437,0-0.859-0.23-1.087-0.64   c-0.759-1.37-1.657-2.682-2.671-3.9c-0.437-0.528-0.366-1.311,0.163-1.75c0.524-0.434,1.308-0.364,1.749,0.161   c1.111,1.338,2.099,2.78,2.933,4.286c0.332,0.599,0.116,1.355-0.485,1.689C471.143,204.911,470.934,204.961,470.73,204.961z    M491.378,201.969c-0.311,0-0.624-0.116-0.864-0.349c-0.492-0.478-0.507-1.264-0.029-1.756c1.082-1.117,2.181-2.322,3.299-3.617   c0.454-0.523,1.235-0.574,1.754-0.129c0.519,0.449,0.575,1.232,0.129,1.752c-1.152,1.334-2.285,2.573-3.396,3.722   C492.026,201.843,491.704,201.969,491.378,201.969z M464.444,197.336c-0.289,0-0.58-0.101-0.815-0.304   c-1.354-1.179-2.635-2.128-3.806-2.82c-0.59-0.349-0.786-1.111-0.437-1.701c0.352-0.591,1.114-0.785,1.703-0.437   c1.3,0.769,2.703,1.806,4.17,3.082c0.517,0.451,0.573,1.235,0.121,1.753C465.136,197.191,464.791,197.336,464.444,197.336z    M452.362,195.924c-0.102,0-0.206-0.012-0.311-0.039c-0.665-0.172-1.063-0.849-0.893-1.514c0.628-2.438,2.3-3.889,4.583-3.981   c0.704-0.051,1.264,0.506,1.293,1.191c0.027,0.685-0.507,1.263-1.191,1.291c-0.434,0.018-1.749,0.07-2.278,2.12   C453.42,195.552,452.916,195.924,452.362,195.924z M497.875,194.459c-0.267,0-0.536-0.086-0.764-0.263   c-0.541-0.421-0.638-1.202-0.216-1.743c1.038-1.329,2.004-2.643,2.902-3.944c0.388-0.565,1.162-0.702,1.727-0.317   c0.565,0.389,0.706,1.163,0.315,1.729c-0.922,1.337-1.917,2.689-2.984,4.06C498.611,194.296,498.244,194.459,497.875,194.459z    M503.509,186.282c-0.218,0-0.437-0.056-0.636-0.175c-0.59-0.351-0.784-1.114-0.432-1.703c0.849-1.424,1.633-2.863,2.331-4.275   c0.303-0.616,1.058-0.862,1.664-0.563c0.616,0.304,0.866,1.049,0.563,1.664c-0.728,1.469-1.543,2.965-2.424,4.445   C504.343,186.066,503.931,186.282,503.509,186.282z M507.881,177.376c-0.148,0-0.298-0.027-0.446-0.082   c-0.64-0.246-0.958-0.966-0.713-1.606c0.59-1.532,1.092-3.077,1.495-4.595c0.177-0.661,0.852-1.057,1.519-0.882   c0.665,0.176,1.058,0.856,0.883,1.52c-0.425,1.602-0.956,3.234-1.577,4.85C508.851,177.074,508.38,177.376,507.881,177.376z    M510.406,167.787c-0.058,0-0.114-0.004-0.172-0.012c-0.679-0.093-1.155-0.721-1.06-1.4c0.221-1.595,0.335-3.205,0.342-4.787   c0.002-0.684,0.558-1.236,1.242-1.236h0.005c0.687,0.004,1.24,0.562,1.237,1.248c-0.007,1.69-0.131,3.411-0.366,5.114   C511.549,167.337,511.015,167.787,510.406,167.787z M510.423,157.899c-0.609,0-1.143-0.451-1.228-1.072   c-0.216-1.561-0.546-3.134-0.985-4.676c-0.187-0.66,0.197-1.348,0.856-1.534c0.662-0.19,1.349,0.195,1.536,0.855   c0.468,1.653,0.822,3.341,1.053,5.016c0.095,0.681-0.381,1.306-1.06,1.4C510.537,157.895,510.481,157.899,510.423,157.899z    M507.733,148.381c-0.48,0-0.936-0.28-1.14-0.748c-0.621-1.439-1.354-2.882-2.176-4.29c-0.347-0.592-0.146-1.353,0.446-1.698   c0.587-0.346,1.351-0.148,1.698,0.446c0.873,1.494,1.65,3.027,2.312,4.555c0.272,0.63-0.017,1.361-0.648,1.634   C508.065,148.348,507.898,148.381,507.733,148.381z M502.766,139.812c-0.381,0-0.759-0.176-1.002-0.508   c-0.932-1.269-1.955-2.54-3.047-3.775c-0.454-0.514-0.405-1.299,0.109-1.754c0.512-0.455,1.3-0.405,1.754,0.109   c1.14,1.292,2.213,2.621,3.188,3.952c0.405,0.553,0.286,1.331-0.267,1.736C503.278,139.735,503.021,139.812,502.766,139.812z    M496.214,132.357c-0.313,0-0.624-0.116-0.866-0.351c-1.128-1.097-2.348-2.202-3.625-3.284c-0.524-0.444-0.587-1.228-0.143-1.75   c0.444-0.522,1.228-0.586,1.749-0.144c1.317,1.118,2.579,2.26,3.751,3.395c0.49,0.478,0.502,1.264,0.024,1.756   C496.861,132.231,496.539,132.357,496.214,132.357z M488.637,125.916c-0.26,0-0.522-0.081-0.745-0.249   c-1.322-0.993-2.661-1.942-4.005-2.848c-0.57-0.383-0.721-1.156-0.335-1.725c0.383-0.569,1.162-0.713,1.723-0.335   c1.378,0.93,2.751,1.903,4.107,2.921c0.551,0.412,0.66,1.191,0.247,1.739C489.387,125.745,489.013,125.916,488.637,125.916z    M480.391,120.349c-0.221,0-0.444-0.058-0.645-0.181c-1.436-0.875-2.863-1.699-4.26-2.473c-0.599-0.332-0.818-1.089-0.485-1.689   c0.332-0.6,1.094-0.818,1.689-0.485c1.427,0.791,2.882,1.633,4.348,2.524c0.587,0.357,0.771,1.121,0.415,1.707   C481.218,120.137,480.808,120.349,480.391,120.349z M471.684,115.521c-0.189,0-0.381-0.042-0.56-0.133   c-1.548-0.781-3.037-1.496-4.445-2.142c-0.623-0.286-0.895-1.024-0.609-1.647c0.286-0.626,1.029-0.895,1.647-0.609   c1.431,0.659,2.95,1.385,4.527,2.181c0.611,0.309,0.856,1.055,0.548,1.668C472.574,115.271,472.137,115.521,471.684,115.521z    M462.637,111.358c-0.16,0-0.323-0.03-0.478-0.096c-1.844-0.769-3.409-1.373-4.593-1.812c-0.643-0.239-0.97-0.953-0.733-1.596   c0.24-0.643,0.949-0.973,1.596-0.733c1.208,0.449,2.802,1.064,4.685,1.849c0.633,0.263,0.932,0.991,0.67,1.624   C463.585,111.071,463.122,111.358,462.637,111.358z"/>
	<g>
		<path style="fill:#EC7E96;" d="M286.91,233.336c0,0-20.229,19.875-36.854-0.45c-18.391-22.484-18.363-69.959-2.865-67.622    s15.971,25.372,10.662,27.605c-5.309,2.233,1.726-39.479,20.986-30.57s11.486,38.951,5.946,37.618    c-9.996-2.405,13.443-36.338,25.193-21.788C321.73,192.678,286.91,233.336,286.91,233.336z"/>
		<path style="fill:#241726;" d="M281.186,210.33c-0.725,0-1.475-0.159-2.23-0.482c-1.339-0.574-2.002-1.731-1.815-3.175    c0.332-2.562,3.627-6.182,7.87-8.968c-0.337-2.392-1.191-4.825-2.649-6.851c-2.018-2.803-4.83-3.783-8.329-2.911    c-2.734,0.678-5.391,2.304-7.598,4.241c1.9,4.913,1.761,9.131-0.07,11.436c-1.453,1.835-3.748,2.118-6.145,0.751    c-1.465-0.836-2.125-2.356-1.858-4.281c0.352-2.536,2.322-5.749,5.119-8.545c-1.208-2.598-3.103-5.501-5.917-8.539    c-2.392-2.579-4.789-3.661-7.111-3.193c-5.527,1.097-10.153,10.525-11.468,14.066c-0.24,0.643-0.958,0.975-1.596,0.731    c-0.643-0.239-0.97-0.955-0.733-1.598c0.213-0.573,5.306-14.048,13.312-15.637c3.239-0.642,6.398,0.684,9.416,3.941    c2.647,2.852,4.629,5.749,6.002,8.499c2.411-1.986,5.216-3.582,8.05-4.286c4.52-1.12,8.307,0.215,10.942,3.872    c1.499,2.078,2.443,4.5,2.911,6.94c2.397-1.297,4.964-2.267,7.397-2.626c4.913-0.719,8.632,1.15,10.485,5.279    c0.281,0.626,0.002,1.361-0.624,1.642c-0.626,0.278-1.363,0-1.642-0.625c-1.395-3.11-4.027-4.407-7.856-3.839    c-2.47,0.364-5.078,1.448-7.438,2.831c0.194,3.678-0.665,7.124-2.319,9.191C284.163,209.603,282.734,210.33,281.186,210.33z     M285.172,200.602c-3.101,2.251-5.362,4.816-5.565,6.39c-0.044,0.332,0.017,0.439,0.325,0.571    c1.351,0.573,2.462,0.271,3.421-0.921C284.449,205.274,285.092,203.071,285.172,200.602z M264.488,194.097    c-2.05,2.25-3.43,4.631-3.666,6.334c-0.182,1.32,0.386,1.644,0.631,1.783c1.303,0.744,2.302,0.7,2.967-0.138    C265.376,200.873,265.74,197.966,264.488,194.097z"/>
	</g>
	<g>
		<path style="fill:#EC7E96;" d="M356.494,176.28c0,0-27.954,4.778-30.008-21.399c-2.272-28.958,24.84-67.929,36.234-57.166    s-1.363,29.949-6.996,28.754c-5.634-1.196,23.945-31.436,34.678-13.13s-12.794,38.54-16.582,34.285    c-6.836-7.679,31.775-22.17,33.122-3.517S356.494,176.28,356.494,176.28z"/>
		<path style="fill:#241726;" d="M389.867,159.516c-0.078,0-0.153-0.007-0.23-0.021c-0.674-0.127-1.118-0.776-0.992-1.45    c0.628-3.354-0.808-5.924-4.263-7.638c-2.234-1.109-4.998-1.708-7.722-1.918c-1.941,3.13-4.612,5.47-7.15,6.222    c-2.54,0.751-4.775-0.072-6.145-2.257c-0.774-1.236-0.655-2.563,0.323-3.643c1.735-1.913,6.507-3.017,11.58-2.874    c1.087-2.157,1.773-4.642,1.732-7.139c-0.058-3.452-1.8-5.855-5.175-7.142c-2.632-1.002-5.74-1.184-8.661-0.853    c-1.242,5.119-3.765,8.502-6.584,9.352c-2.239,0.674-4.289-0.406-5.473-2.889c-0.728-1.524-0.403-3.149,0.915-4.577    c1.737-1.884,5.187-3.396,9.081-4.096c0.49-2.824,0.592-6.288,0.012-10.39c-0.492-3.483-1.844-5.73-4.015-6.678    c-6.225-2.72-17.337,4.929-17.448,5.006c-0.568,0.395-1.339,0.25-1.727-0.312c-0.393-0.563-0.252-1.337,0.311-1.729    c0.5-0.349,12.373-8.507,19.857-5.244c3.016,1.316,4.862,4.213,5.483,8.609c0.543,3.851,0.519,7.362,0.08,10.404    c3.108-0.254,6.325,0.034,9.054,1.074c4.357,1.661,6.701,4.919,6.776,9.423c0.044,2.562-0.563,5.09-1.572,7.361    c2.71,0.302,5.369,0.97,7.574,2.063c4.445,2.205,6.434,5.871,5.599,10.32C390.973,159.099,390.452,159.516,389.867,159.516z     M373.743,148.408c-3.828,0.08-7.15,0.895-8.215,2.071c-0.226,0.249-0.235,0.371-0.058,0.656c0.774,1.235,1.851,1.632,3.333,1.195    C370.485,151.831,372.271,150.389,373.743,148.408z M360.473,131.262c-2.967,0.679-5.459,1.847-6.626,3.111    c-0.902,0.979-0.621,1.571-0.5,1.823c0.645,1.355,1.477,1.89,2.516,1.581C357.333,137.333,359.291,135.154,360.473,131.262z"/>
	</g>
	<g>
		<path style="fill:#EC7E96;" d="M302.765,159.806c0,0-19.485,20.605-36.845,0.905c-19.204-21.793-20.921-69.237-5.347-67.471    c15.574,1.766,16.892,24.768,11.669,27.195s0.274-39.516,19.848-31.321s12.909,38.502,7.325,37.374    c-10.078-2.037,12.099-36.808,24.376-22.699S302.765,159.806,302.765,159.806z"/>
		<path style="fill:#241726;" d="M296.017,137.03c-0.667,0-1.359-0.133-2.062-0.404c-1.359-0.524-2.062-1.656-1.929-3.105    c0.238-2.573,3.394-6.31,7.533-9.252c-0.425-2.376-1.368-4.777-2.899-6.748c-2.12-2.726-4.956-3.604-8.431-2.603    c-2.705,0.778-5.301,2.5-7.436,4.517c2.079,4.839,2.094,9.059,0.352,11.43c-1.39,1.889-3.671,2.254-6.114,0.977    c-1.497-0.781-2.213-2.277-2.016-4.21c0.257-2.547,2.108-5.829,4.801-8.725c-1.303-2.553-3.302-5.385-6.228-8.317    c-2.487-2.492-4.93-3.473-7.22-2.931c-6.596,1.56-10.905,14.35-10.949,14.48c-0.216,0.649-0.905,1.003-1.57,0.788    c-0.65-0.216-1.004-0.918-0.788-1.568c0.192-0.581,4.789-14.235,12.732-16.116c3.2-0.759,6.415,0.449,9.551,3.593    c2.749,2.754,4.838,5.575,6.313,8.273c2.334-2.073,5.08-3.771,7.885-4.578c4.471-1.287,8.307-0.092,11.077,3.466    c1.572,2.023,2.606,4.408,3.164,6.829c2.346-1.384,4.876-2.448,7.295-2.897c4.874-0.899,8.668,0.832,10.672,4.892    c0.303,0.615,0.051,1.36-0.563,1.663c-0.609,0.3-1.361,0.056-1.664-0.564c-1.511-3.059-4.209-4.25-7.991-3.549    c-2.453,0.455-5.022,1.634-7.329,3.103c0.33,3.669-0.403,7.146-1.982,9.272C299.105,136.247,297.635,137.03,296.017,137.03z     M299.826,127.159c-3.016,2.363-5.18,5.009-5.328,6.589c-0.029,0.334,0.036,0.438,0.349,0.558    c1.363,0.523,2.467,0.183,3.379-1.043C299.275,131.855,299.835,129.629,299.826,127.159z M278.918,121.417    c-1.965,2.324-3.258,4.755-3.43,6.465c-0.136,1.325,0.446,1.629,0.694,1.759c1.334,0.695,2.324,0.613,2.962-0.247    C280.053,128.156,280.308,125.239,278.918,121.417z"/>
	</g>
	<g>
		<path style="fill:#EC7E96;" d="M281.488,74.678c0,0-12.683,25.365-35.004,11.537c-24.693-15.298-40.077-60.21-24.659-63.03    s23.342,18.815,19.045,22.65c-4.297,3.835-11.182-37.902,9.927-35.727s23.506,33.114,17.835,33.651    c-10.236,0.969,0.92-38.734,16.757-28.786C301.226,24.92,281.488,74.678,281.488,74.678z"/>
		<path style="fill:#241726;" d="M248.18,56.078c-0.425,0-0.871-0.044-1.337-0.132c-1.657-0.315-2.775-1.539-3.147-3.446    c-0.492-2.515,0.328-6.191,2.067-9.743c-1.985-2.067-4.719-4.197-8.368-6.156c-3.105-1.665-5.716-1.906-7.763-0.712    c-4.872,2.83-6.186,13.251-6.281,17.027c-0.017,0.684-0.536,1.218-1.274,1.211c-0.687-0.018-1.228-0.588-1.211-1.274    c0.017-0.611,0.461-15.011,7.518-19.113c2.843-1.653,6.271-1.43,10.185,0.672c3.428,1.839,6.242,3.935,8.435,6.091    c1.635-2.661,3.77-5.083,6.223-6.668c3.913-2.53,7.926-2.49,11.604,0.112c2.091,1.481,3.773,3.464,5.005,5.621    c1.846-2.005,3.959-3.756,6.145-4.885c4.406-2.281,8.537-1.713,11.633,1.59c0.468,0.501,0.442,1.287-0.058,1.755    c-0.5,0.469-1.283,0.443-1.756-0.057c-2.331-2.489-5.255-2.854-8.678-1.082c-2.215,1.145-4.333,3.018-6.114,5.091    c1.376,3.416,1.684,6.956,0.788,9.447c-0.893,2.487-2.851,3.808-5.456,3.616c-1.453-0.107-2.453-0.987-2.746-2.414    c-0.517-2.53,1.424-7.022,4.532-11.035c-1.094-2.153-2.693-4.178-4.731-5.62c-2.819-1.995-5.781-2.016-8.819-0.052    c-2.365,1.528-4.35,3.928-5.81,6.479c3.392,4.03,4.627,8.064,3.644,10.84C251.763,55.07,250.225,56.078,248.18,56.078z     M247.544,44.841c-1.208,2.794-1.739,5.495-1.41,7.181c0.255,1.308,0.922,1.435,1.174,1.482c1.475,0.278,2.404-0.086,2.761-1.093    C250.581,50.962,249.982,48.096,247.544,44.841z M269.219,44.282c-2.2,3.134-3.508,6.294-3.188,7.85    c0.066,0.328,0.158,0.409,0.495,0.434c1.431,0.113,2.416-0.537,2.933-1.978C270.051,48.935,269.944,46.643,269.219,44.282z"/>
	</g>
	<g>
		<path style="fill:#C17B99;" d="M335.588,98.126c0,0-25.66,12.075-34.635-12.602c-9.928-27.298,5.784-72.097,19.64-64.77    c13.856,7.327,6.69,29.224,0.942,29.578c-5.748,0.353,14.674-36.692,29.908-21.919s-2.03,40.558-6.817,37.469    c-8.64-5.573,24.695-29.855,30.978-12.24S335.588,98.126,335.588,98.126z"/>
		<path style="fill:#241726;" d="M339.366,74.791c-1.252,0-2.462-0.49-3.525-1.462c-1.075-0.984-1.315-2.294-0.662-3.595    c1.16-2.308,5.466-4.636,10.391-5.864c0.473-2.369,0.471-4.948-0.238-7.342c-0.978-3.312-3.299-5.161-6.897-5.499    c-2.819-0.274-5.849,0.392-8.571,1.492c0.17,5.265-1.356,9.2-3.845,10.772c-1.98,1.248-4.241,0.757-6.048-1.321    c-1.109-1.274-1.23-2.927-0.342-4.657c1.172-2.278,4.093-4.659,7.657-6.373c-0.281-2.852-1.109-6.217-2.763-10.014    c-1.407-3.227-3.309-5.03-5.658-5.364c-5.597-0.791-13.062,6.581-15.473,9.487c-0.437,0.529-1.218,0.602-1.749,0.163    c-0.529-0.438-0.602-1.222-0.163-1.749c0.391-0.472,9.702-11.521,17.735-10.359c3.261,0.462,5.81,2.76,7.584,6.831    c1.555,3.566,2.47,6.954,2.858,10.004c2.928-1.077,6.092-1.661,9.013-1.385c4.641,0.435,7.771,2.949,9.047,7.27    c0.725,2.456,0.818,5.055,0.454,7.512c2.69-0.432,5.432-0.502,7.848-0.035c4.872,0.938,7.768,3.938,8.154,8.45    c0.058,0.683-0.449,1.285-1.131,1.343c-0.694,0.051-1.286-0.448-1.344-1.132c-0.291-3.399-2.361-5.493-6.15-6.222    c-2.445-0.469-5.269-0.312-7.953,0.216c-1.031,3.535-2.982,6.504-5.226,7.908C341.375,74.484,340.358,74.791,339.366,74.791z     M344.764,66.657c-3.671,1.101-6.652,2.774-7.366,4.192c-0.15,0.3-0.126,0.421,0.121,0.648c1.077,0.987,2.234,1.072,3.53,0.261    C342.537,70.828,343.873,68.961,344.764,66.657z M327.391,53.682c-2.676,1.447-4.767,3.239-5.553,4.768    c-0.609,1.185-0.177,1.68,0.005,1.891c0.983,1.132,1.943,1.423,2.848,0.85C325.991,60.372,327.294,57.748,327.391,53.682z"/>
	</g>
	<g>
		<path style="fill:#C17B99;" d="M239.518,131.545c0,0,2.255,28.27-24.001,27.97c-29.046-0.331-65.431-30.825-53.69-41.209    c11.741-10.384,29.707,4.04,28.011,9.544c-1.696,5.504-29.165-26.665-9.97-35.715s37.239,16.195,32.662,19.587    c-8.261,6.121-19.235-33.633-0.536-33.304S239.518,131.545,239.518,131.545z"/>
		<path style="fill:#241726;" d="M177.421,144.826c-0.432,0-0.849-0.226-1.08-0.627c-0.303-0.531-7.366-13.089-3.443-20.247    c1.579-2.887,4.629-4.465,9.064-4.691c3.884-0.194,7.38,0.142,10.369,0.854c0.027-3.124,0.602-6.298,1.883-8.923    c2.043-4.19,5.502-6.243,9.991-5.904c2.557,0.187,5.02,1.015,7.191,2.223c0.543-2.671,1.446-5.261,2.734-7.358    c2.591-4.229,6.417-5.875,10.779-4.652c0.66,0.187,1.046,0.873,0.859,1.533c-0.187,0.659-0.878,1.042-1.533,0.859    c-3.287-0.923-5.968,0.271-7.987,3.559c-1.305,2.125-2.149,4.823-2.603,7.52c2.945,2.213,5.037,5.084,5.558,7.68    c0.522,2.592-0.5,4.748-2.8,5.915c-1.305,0.662-2.613,0.421-3.598-0.647c-1.752-1.898-2.414-6.747-1.827-11.789    c-2.05-1.276-4.464-2.183-6.953-2.365c-3.44-0.237-5.992,1.269-7.579,4.516c-1.235,2.53-1.693,5.61-1.623,8.548    c4.986,1.697,8.13,4.51,8.724,7.395c0.471,2.294-0.788,4.236-3.37,5.194c-1.579,0.588-3.171,0.116-4.476-1.322    c-1.72-1.898-2.919-5.471-3.265-9.411c-2.768-0.742-6.206-1.152-10.347-0.943c-3.513,0.178-5.874,1.322-7.011,3.401    c-2.707,4.942,1.553,14.542,3.423,17.824c0.34,0.596,0.131,1.355-0.466,1.695C177.841,144.774,177.63,144.826,177.421,144.826z     M195.037,123.55c0.41,3.016,1.351,5.604,2.506,6.878c0.895,0.992,1.507,0.757,1.771,0.661c1.41-0.523,2.014-1.319,1.8-2.364    C200.803,127.22,198.807,125.076,195.037,123.55z M213.302,111.869c-0.262,3.821,0.252,7.201,1.327,8.366    c0.226,0.247,0.349,0.272,0.648,0.116c1.303-0.661,1.79-1.712,1.49-3.211C216.42,115.422,215.144,113.514,213.302,111.869z"/>
	</g>
	<path style="fill:#241726;" d="M104.653,457.108c-1.519,0-3.008-0.085-4.428-0.251c-0.682-0.08-1.167-0.698-1.089-1.378   c0.08-0.681,0.674-1.177,1.38-1.089c1.322,0.155,2.715,0.234,4.136,0.234l0.662-0.006c0.674-0.036,1.249,0.536,1.262,1.222   c0.01,0.687-0.536,1.252-1.223,1.263L104.653,457.108z M110.287,456.737c-0.614,0-1.15-0.457-1.23-1.083   c-0.087-0.681,0.393-1.303,1.075-1.391c2.817-0.363,4.69-0.878,4.709-0.883c0.648-0.189,1.344,0.201,1.528,0.862   s-0.201,1.345-0.861,1.53c-0.082,0.023-2.05,0.568-5.061,0.956C110.394,456.733,110.34,456.737,110.287,456.737z M95.505,455.89   c-0.116,0-0.233-0.016-0.352-0.051c-1.737-0.512-3.363-1.183-4.83-1.994c-0.602-0.331-0.82-1.087-0.488-1.687   c0.33-0.602,1.092-0.819,1.686-0.486c1.313,0.723,2.771,1.323,4.335,1.786c0.657,0.194,1.034,0.884,0.839,1.543   C96.536,455.54,96.041,455.89,95.505,455.89z M86.916,451.09c-0.306,0-0.614-0.113-0.854-0.341   c-1.264-1.196-2.382-2.57-3.324-4.084c-0.361-0.582-0.184-1.349,0.4-1.712c0.58-0.355,1.349-0.184,1.71,0.399   c0.83,1.334,1.812,2.544,2.921,3.594c0.497,0.471,0.519,1.258,0.049,1.755C87.574,450.96,87.246,451.09,86.916,451.09z    M81.669,442.776c-0.512,0-0.992-0.319-1.172-0.83c-0.546-1.555-0.978-3.239-1.279-5.006c-0.114-0.676,0.34-1.317,1.017-1.433   c0.667-0.11,1.317,0.338,1.434,1.015c0.277,1.629,0.672,3.177,1.172,4.599c0.228,0.648-0.112,1.356-0.759,1.584   C81.945,442.754,81.805,442.776,81.669,442.776z M79.932,433.039c-0.66,0-1.211-0.519-1.24-1.185   c-0.032-0.656-0.046-1.292-0.046-1.908c0-1.143,0.051-2.217,0.143-3.225c0.066-0.683,0.672-1.181,1.351-1.123   c0.684,0.063,1.186,0.668,1.123,1.351c-0.087,0.938-0.133,1.935-0.133,2.997c0,0.58,0.015,1.177,0.041,1.794   c0.032,0.685-0.497,1.266-1.184,1.298C79.968,433.039,79.949,433.039,79.932,433.039z M80.99,423.216   c-0.126,0-0.257-0.019-0.383-0.061c-0.223-0.072-0.41-0.2-0.553-0.364c-0.978-0.03-1.936-0.085-2.865-0.166   c-0.684-0.059-1.191-0.661-1.131-1.345c0.058-0.684,0.677-1.202,1.344-1.129c0.932,0.08,1.895,0.135,2.875,0.161   c0.539-1.306,1.208-2.476,2.004-3.491c0.425-0.54,1.203-0.636,1.744-0.211c0.539,0.423,0.633,1.203,0.211,1.744   c-0.502,0.639-0.946,1.36-1.327,2.156c0.354,0.216,0.592,0.605,0.594,1.052c0.005,0.687-0.548,1.246-1.235,1.251l-0.364,0.002   C81.671,423.068,81.339,423.216,80.99,423.216z M87.22,422.56c-0.636,0-1.177-0.485-1.235-1.131   c-0.061-0.683,0.442-1.287,1.126-1.349c1.594-0.143,3.222-0.349,4.842-0.614c0.66-0.109,1.315,0.347,1.424,1.026   c0.112,0.678-0.349,1.316-1.026,1.427c-1.676,0.273-3.365,0.486-5.017,0.636C87.295,422.558,87.259,422.56,87.22,422.56z    M72.379,421.917c-0.085,0-0.172-0.008-0.257-0.027c-1.742-0.365-3.409-0.842-4.954-1.418c-0.643-0.239-0.97-0.955-0.73-1.598   c0.24-0.645,0.956-0.967,1.599-0.729c1.429,0.531,2.974,0.974,4.595,1.314c0.672,0.141,1.101,0.798,0.961,1.47   C73.471,421.515,72.954,421.917,72.379,421.917z M97.023,420.963c-0.565,0-1.075-0.385-1.208-0.957   c-0.158-0.667,0.255-1.337,0.922-1.494c2.404-0.566,3.942-1.076,4.646-1.328c0.638-0.237,1.356,0.102,1.589,0.747   c0.233,0.645-0.104,1.357-0.75,1.589c-1.298,0.468-3.042,0.969-4.913,1.411C97.213,420.952,97.118,420.963,97.023,420.963z    M63.136,418.401c-0.221,0-0.444-0.058-0.645-0.181c-1.519-0.922-2.914-1.993-4.149-3.183c-0.492-0.477-0.507-1.263-0.029-1.756   s1.262-0.507,1.756-0.032c1.099,1.063,2.348,2.021,3.712,2.848c0.585,0.355,0.771,1.12,0.417,1.707   C63.963,418.189,63.553,418.401,63.136,418.401z M101.456,416.507c-0.206,0-0.417-0.051-0.609-0.159   c-1.172-0.66-2.703-1.208-4.309-1.544c-0.672-0.141-1.101-0.798-0.961-1.47c0.138-0.672,0.791-1.103,1.47-0.961   c1.849,0.386,3.629,1.029,5.017,1.809c0.597,0.337,0.81,1.094,0.473,1.692C102.31,416.279,101.89,416.507,101.456,416.507z    M87.072,415.724c-0.459,0-0.898-0.255-1.114-0.694c-0.303-0.615-0.051-1.36,0.565-1.663c1.562-0.768,3.321-1.23,5.233-1.372   c0.67-0.045,1.281,0.461,1.332,1.146c0.051,0.684-0.463,1.28-1.148,1.331c-1.592,0.119-3.045,0.497-4.321,1.124   C87.443,415.683,87.256,415.724,87.072,415.724z M56.059,411.563c-0.405,0-0.805-0.199-1.043-0.566   c-0.922-1.422-1.713-2.985-2.353-4.647c-0.245-0.641,0.073-1.359,0.713-1.606c0.648-0.244,1.356,0.074,1.606,0.713   c0.577,1.502,1.291,2.91,2.12,4.189c0.371,0.575,0.209,1.345-0.366,1.718C56.525,411.499,56.292,411.563,56.059,411.563z    M52.447,402.383c-0.577,0-1.097-0.408-1.215-0.997c-0.323-1.601-0.546-3.31-0.667-5.08c-0.046-0.684,0.471-1.276,1.155-1.323   c0.691-0.009,1.276,0.471,1.325,1.156c0.112,1.662,0.323,3.262,0.624,4.758c0.136,0.672-0.301,1.327-0.973,1.463   C52.612,402.376,52.529,402.383,52.447,402.383z M51.731,391.261l-1.24-0.099c0.066-1.81,0.165-3.44,0.301-4.967   c0.061-0.687,0.706-1.208,1.346-1.128c0.684,0.061,1.189,0.664,1.128,1.346c-0.131,1.488-0.23,3.075-0.291,4.77L51.731,391.261z    M42.992,383.565c-0.667,0-1.218-0.528-1.242-1.2c-0.022-0.685,0.514-1.26,1.198-1.283c1.582-0.056,3.21-0.188,4.842-0.394   c0.66-0.084,1.3,0.394,1.388,1.076c0.085,0.682-0.395,1.303-1.077,1.389c-1.706,0.216-3.411,0.354-5.066,0.411   C43.022,383.565,43.007,383.565,42.992,383.565z M38.034,383.472c-0.032,0-0.063-0.001-0.095-0.004   c-1.73-0.129-3.435-0.358-5.068-0.684c-0.672-0.133-1.109-0.788-0.975-1.461c0.133-0.674,0.796-1.115,1.46-0.975   c1.533,0.306,3.137,0.522,4.767,0.643c0.684,0.051,1.196,0.647,1.148,1.331C39.222,382.975,38.677,383.472,38.034,383.472z    M52.634,382.618c-0.068,0-0.133-0.005-0.201-0.016c-0.677-0.109-1.138-0.747-1.026-1.424c0.291-1.804,0.65-3.481,1.07-4.987   c0.184-0.659,0.864-1.04,1.528-0.865c0.662,0.184,1.048,0.869,0.864,1.53c-0.23,0.83-0.442,1.718-0.633,2.655   c1.031-0.244,2.065-0.514,3.091-0.808c0.662-0.184,1.349,0.195,1.536,0.853c0.189,0.66-0.192,1.348-0.852,1.537   c-1.482,0.423-2.979,0.799-4.462,1.121C53.318,382.465,52.988,382.618,52.634,382.618z M28.324,381.507   c-0.136,0-0.274-0.022-0.41-0.069c-1.635-0.573-3.224-1.264-4.721-2.056c-0.604-0.321-0.837-1.072-0.517-1.679   c0.323-0.607,1.072-0.836,1.681-0.517c1.385,0.734,2.858,1.376,4.377,1.906c0.648,0.227,0.99,0.935,0.762,1.583   C29.319,381.187,28.839,381.507,28.324,381.507z M62.403,379.617c-0.509,0-0.987-0.315-1.169-0.822   c-0.23-0.647,0.104-1.357,0.75-1.589c1.708-0.613,3.239-1.229,4.549-1.798c0.636-0.271,1.361,0.016,1.635,0.647   c0.272,0.63-0.017,1.361-0.645,1.634c-1.354,0.586-2.938,1.224-4.699,1.856C62.685,379.594,62.542,379.617,62.403,379.617z    M19.581,376.878c-0.26,0-0.519-0.08-0.742-0.245c-1.349-1.006-2.657-2.139-3.884-3.366c-0.485-0.485-0.485-1.272,0-1.756   c0.485-0.485,1.271-0.485,1.756,0c1.143,1.144,2.358,2.196,3.612,3.128c0.548,0.41,0.665,1.188,0.255,1.738   C20.333,376.704,19.959,376.878,19.581,376.878z M72.222,375.399l-0.721-1.019l-0.611-1.081c0.177-0.102,0.26-0.149,0.26-0.406   c0.002-0.526-0.349-1.312-0.941-2.107c-0.41-0.551-0.294-1.328,0.255-1.738c0.546-0.409,1.325-0.297,1.739,0.256   c0.655,0.881,1.436,2.22,1.431,3.593C73.634,373.988,73.132,374.879,72.222,375.399z M55.392,373.114   c-0.184,0-0.371-0.041-0.548-0.127c-0.616-0.302-0.869-1.047-0.568-1.663c0.893-1.812,1.943-3.289,3.13-4.386   c0.505-0.466,1.288-0.438,1.756,0.067c0.466,0.503,0.434,1.289-0.068,1.755c-0.961,0.89-1.832,2.122-2.586,3.661   C56.292,372.859,55.851,373.114,55.392,373.114z M12.574,369.887c-0.374,0-0.745-0.169-0.987-0.49   c-1.007-1.32-1.963-2.746-2.848-4.238c-0.349-0.591-0.153-1.353,0.437-1.702c0.587-0.351,1.351-0.158,1.703,0.435   c0.835,1.411,1.737,2.756,2.683,4.001c0.417,0.546,0.311,1.325-0.235,1.741C13.101,369.805,12.836,369.887,12.574,369.887z    M67.445,368.097c-0.197,0-0.395-0.046-0.58-0.143c-1.363-0.722-2.751-1.048-4.088-0.927c-0.708,0.064-1.288-0.439-1.354-1.122   c-0.063-0.683,0.439-1.288,1.121-1.353c1.841-0.171,3.668,0.247,5.48,1.203c0.607,0.32,0.839,1.072,0.519,1.679   C68.321,367.857,67.889,368.097,67.445,368.097z M7.499,361.374c-0.466,0-0.915-0.266-1.126-0.717   c-0.694-1.488-1.346-3.064-1.943-4.684c-0.235-0.644,0.095-1.357,0.738-1.594c0.65-0.237,1.356,0.093,1.596,0.738   c0.57,1.554,1.196,3.064,1.861,4.489c0.291,0.622,0.022,1.361-0.602,1.651C7.853,361.337,7.676,361.374,7.499,361.374z    M4.059,352.069c-0.539,0-1.036-0.353-1.194-0.895c-0.167-0.577-0.33-1.163-0.488-1.759c-0.279-1.059-0.534-2.103-0.759-3.134   c-0.148-0.67,0.277-1.333,0.946-1.48c0.684-0.147,1.332,0.279,1.48,0.946c0.221,1,0.466,2.01,0.735,3.034   c0.153,0.575,0.311,1.141,0.473,1.699c0.192,0.659-0.189,1.349-0.847,1.539C4.289,352.053,4.173,352.069,4.059,352.069z    M1.922,342.372c-0.604,0-1.135-0.443-1.225-1.06c-0.252-1.685-0.437-3.378-0.556-5.032c-0.049-0.684,0.468-1.277,1.152-1.326   c0.619-0.055,1.279,0.465,1.327,1.151c0.112,1.589,0.291,3.218,0.531,4.842c0.102,0.678-0.366,1.31-1.046,1.411   C2.045,342.367,1.982,342.372,1.922,342.372z M1.242,332.469c-0.007,0-0.012,0-0.019,0c-0.687-0.011-1.232-0.576-1.223-1.262   c0.027-1.703,0.131-3.407,0.313-5.068c0.075-0.682,0.728-1.177,1.368-1.1c0.684,0.074,1.177,0.688,1.101,1.37   c-0.172,1.584-0.274,3.212-0.298,4.838C2.475,331.925,1.919,332.469,1.242,332.469z M2.334,322.616   c-0.087,0-0.175-0.008-0.26-0.027c-0.672-0.143-1.101-0.803-0.958-1.474c0.357-1.678,0.803-3.335,1.327-4.922   c0.213-0.651,0.915-1.008,1.567-0.792c0.653,0.215,1.007,0.917,0.791,1.568c-0.495,1.504-0.917,3.073-1.254,4.663   C3.423,322.216,2.907,322.616,2.334,322.616z M5.432,313.203c-0.175,0-0.349-0.036-0.517-0.113   c-0.623-0.285-0.898-1.023-0.611-1.646c0.704-1.538,1.507-3.057,2.39-4.514c0.357-0.585,1.123-0.769,1.706-0.419   c0.587,0.355,0.774,1.12,0.42,1.707c-0.832,1.374-1.592,2.808-2.256,4.259C6.352,312.934,5.903,313.203,5.432,313.203z    M10.573,304.729c-0.267,0-0.536-0.085-0.762-0.261c-0.541-0.422-0.64-1.202-0.218-1.743c1.031-1.327,2.159-2.62,3.358-3.844   c0.478-0.489,1.266-0.5,1.756-0.019c0.49,0.479,0.5,1.266,0.019,1.757c-1.133,1.157-2.2,2.379-3.173,3.631   C11.308,304.564,10.942,304.729,10.573,304.729z M17.516,297.651c-0.361,0-0.721-0.158-0.966-0.46   c-0.432-0.533-0.349-1.315,0.184-1.747c1.317-1.07,2.712-2.074,4.144-2.986c0.575-0.365,1.344-0.201,1.715,0.378   c0.369,0.579,0.199,1.346-0.381,1.715c-1.351,0.862-2.669,1.812-3.916,2.822C18.069,297.56,17.793,297.651,17.516,297.651z    M58.612,293.015c-0.281,0-0.563-0.095-0.796-0.289c-1.087-0.907-2.324-1.698-3.675-2.351c-0.619-0.297-0.878-1.04-0.58-1.658   c0.298-0.619,1.05-0.879,1.657-0.579c1.538,0.74,2.948,1.642,4.19,2.681c0.526,0.439,0.597,1.223,0.158,1.749   C59.32,292.863,58.966,293.015,58.612,293.015z M25.872,292.314c-0.459,0-0.9-0.255-1.116-0.695   c-0.301-0.616-0.046-1.36,0.57-1.662c1.533-0.752,3.117-1.419,4.707-1.982c0.648-0.228,1.354,0.107,1.587,0.756   c0.228,0.647-0.112,1.356-0.757,1.585c-1.502,0.531-2.996,1.161-4.445,1.87C26.243,292.274,26.056,292.314,25.872,292.314z    M35.219,289.007c-0.57,0-1.082-0.392-1.213-0.97c-0.15-0.668,0.272-1.333,0.941-1.484c1.691-0.38,3.396-0.649,5.066-0.799   c0.679-0.075,1.286,0.44,1.349,1.126c0.061,0.684-0.442,1.287-1.126,1.349c-1.562,0.141-3.159,0.392-4.745,0.748   C35.399,288.997,35.309,289.007,35.219,289.007z M50.001,288.854c-0.095,0-0.192-0.011-0.289-0.034   c-1.48-0.354-3.059-0.582-4.694-0.678c-0.684-0.04-1.208-0.627-1.167-1.312c0.039-0.684,0.623-1.205,1.312-1.167   c1.781,0.104,3.506,0.353,5.126,0.741c0.667,0.16,1.08,0.83,0.919,1.497C51.074,288.471,50.564,288.854,50.001,288.854z"/>
	<g>
		<path style="fill:#EC7E96;" d="M228.337,208.274c0,0-0.27,28.358-26.395,25.723c-28.901-2.915-62.428-36.527-49.809-45.825    c12.618-9.298,29.229,6.668,27.051,11.999c-2.179,5.331-26.676-29.155-6.752-36.46c19.924-7.305,35.65,19.446,30.789,22.416    c-8.773,5.361-16.165-35.212,2.431-33.219C224.246,154.901,228.337,208.274,228.337,208.274z"/>
		<path style="fill:#241726;" d="M165.414,215.98c-0.471,0-0.922-0.269-1.131-0.725c-0.252-0.556-6.169-13.692-1.628-20.472    c1.834-2.735,4.993-4.03,9.45-3.865c3.887,0.149,7.334,0.797,10.25,1.772c0.303-3.108,1.16-6.22,2.669-8.719    c2.407-3.992,6.024-5.717,10.478-4.993c2.528,0.414,4.908,1.459,6.963,2.855c0.779-2.61,1.909-5.111,3.377-7.085    c2.962-3.984,6.931-5.28,11.153-3.674c0.643,0.244,0.963,0.962,0.718,1.604c-0.24,0.642-0.963,0.961-1.601,0.718    c-3.195-1.218-5.973-0.258-8.275,2.835c-1.487,2.002-2.569,4.613-3.261,7.259c2.737,2.465,4.563,5.511,4.852,8.143    c0.289,2.627-0.919,4.685-3.316,5.643c-1.349,0.541-2.637,0.188-3.525-0.964c-1.575-2.046-1.803-6.935-0.769-11.906    c-1.929-1.454-4.253-2.572-6.718-2.974c-3.389-0.558-6.082,0.728-7.95,3.823c-1.453,2.41-2.186,5.437-2.378,8.369    c4.816,2.134,7.698,5.217,8.033,8.142c0.264,2.328-1.162,4.15-3.819,4.874c-1.623,0.443-3.168-0.165-4.343-1.715    c-1.543-2.044-2.419-5.709-2.414-9.664c-2.691-0.985-6.082-1.701-10.221-1.86c-3.491-0.14-5.968,0.795-7.288,2.764    c-3.137,4.681,0.252,14.622,1.824,18.057c0.284,0.625,0.01,1.361-0.614,1.646C165.764,215.943,165.589,215.98,165.414,215.98z     M184.743,196.352c0.141,3.04,0.847,5.702,1.883,7.073c0.803,1.064,1.441,0.889,1.706,0.816c1.451-0.395,2.125-1.134,2.004-2.194    C190.16,200.52,188.365,198.206,184.743,196.352z M203.977,186.342c-0.602,3.783-0.391,7.196,0.577,8.454    c0.209,0.268,0.33,0.297,0.636,0.172c1.356-0.542,1.936-1.545,1.769-3.065C206.767,190.159,205.665,188.144,203.977,186.342z"/>
	</g>
	<g>
		<path style="fill:#C17B99;" d="M346.061,248.981c0,0-27.954,4.778-30.008-21.399c-2.272-28.958,24.84-67.929,36.234-57.166    c11.394,10.763-1.363,29.949-6.996,28.754c-5.634-1.196,23.945-31.436,34.678-13.13s-12.794,38.54-16.582,34.285    c-6.836-7.679,31.775-22.17,33.122-3.517S346.061,248.981,346.061,248.981z"/>
		<path style="fill:#241726;" d="M379.432,232.215c-0.078,0-0.153-0.007-0.23-0.022c-0.674-0.126-1.118-0.775-0.992-1.45    c0.628-3.353-0.805-5.922-4.26-7.637c-2.234-1.109-4.998-1.708-7.722-1.918c-1.938,3.131-4.612,5.471-7.15,6.223    c-2.54,0.752-4.774-0.07-6.145-2.257c-0.774-1.236-0.655-2.563,0.323-3.643c1.735-1.915,6.538-3.007,11.58-2.874    c1.087-2.157,1.773-4.643,1.732-7.139c-0.058-3.452-1.8-5.855-5.175-7.142c-2.632-1.002-5.742-1.18-8.661-0.853    c-1.245,5.119-3.765,8.502-6.584,9.352c-2.251,0.671-4.289-0.405-5.476-2.889c-0.725-1.524-0.4-3.149,0.917-4.578    c1.737-1.883,5.187-3.396,9.081-4.095c0.49-2.824,0.592-6.288,0.012-10.39c-0.492-3.484-1.844-5.732-4.018-6.679    c-5.155-2.248-14.343,2.851-17.446,5.006c-0.563,0.393-1.337,0.254-1.727-0.311c-0.393-0.564-0.252-1.338,0.311-1.73    c0.5-0.349,12.356-8.513,19.857-5.244c3.016,1.317,4.862,4.214,5.483,8.61c0.543,3.851,0.519,7.361,0.078,10.404    c3.122-0.256,6.33,0.036,9.059,1.074c4.355,1.661,6.698,4.919,6.774,9.423c0.044,2.561-0.563,5.09-1.572,7.361    c2.71,0.302,5.371,0.969,7.574,2.063c4.445,2.205,6.432,5.87,5.597,10.32C380.539,231.799,380.017,232.215,379.432,232.215z     M363.311,221.107c-3.828,0.081-7.15,0.896-8.215,2.072c-0.226,0.249-0.235,0.371-0.058,0.656    c0.774,1.235,1.854,1.628,3.333,1.195C360.053,224.532,361.839,223.089,363.311,221.107z M350.038,203.962    c-2.965,0.679-5.459,1.847-6.623,3.11c-0.905,0.98-0.611,1.594-0.502,1.824c0.65,1.36,1.509,1.894,2.516,1.581    C346.901,210.034,348.857,207.855,350.038,203.962z"/>
	</g>
	<g>
		<path style="fill:#FFFFFF;" d="M136.731,329.546l-3.365,17.041c0.786,0.371,2.014,0.711,3.685,1.012l2.475,0.449    c0.148-0.18,0.337-0.905,0.568-2.176c0.23-1.271,0.585-4.09,1.065-8.46c0.48-4.367,0.919-7.645,1.315-9.83    c0.092-0.512,0.371-0.905,0.835-1.177c0.466-0.274,0.876-0.378,1.232-0.313s0.64,0.15,0.852,0.257    c0.209,0.107,0.439,0.243,0.687,0.4c0.247,0.163,0.444,0.277,0.592,0.349c-1.072,5.932-2.426,14.636-4.056,26.119    c-1.63,11.483-2.482,17.414-2.55,17.793c-0.068,0.378-0.376,0.708-0.922,0.99c-0.546,0.281-1.116,0.369-1.706,0.262    c-0.592-0.107-0.985-0.628-1.184-1.562c-0.201-0.934-0.206-2.266-0.019-3.993c0.184-1.727,0.369-3.219,0.551-4.476    c0.075-0.539,0.187-1.152,0.332-1.839c0.17-0.936,0.376-2.004,0.616-3.205c0.427-2.108,0.672-3.331,0.733-3.666l0.049-0.267    l0.459-1.955l-0.286-0.708l0.012-0.068c-0.395,0.022-0.815-0.01-1.262-0.09l-4.299-1.434l-1.424,7.858l-1.64,11.342    c-0.116,0.648-0.388,1.191-0.813,1.633c-0.427,0.439-0.951,0.604-1.575,0.49c-0.915-0.165-1.395-1.109-1.439-2.834    c-0.046-1.723,0.194-4.022,0.713-6.897l2.091-10.398c0.393-2.162,0.575-3.363,0.548-3.598l0.061-0.332    c0.609-2.353,0.941-3.675,0.995-3.967l2.329-15.534c0.097-0.534,0.374-0.973,0.827-1.317c0.454-0.344,0.949-0.468,1.482-0.371    C136.745,325.335,137.223,326.827,136.731,329.546z"/>
		<path style="fill:#FFFFFF;" d="M161.528,362l0.036,4.348c-0.092,0.558-0.102,1.958-0.027,4.197    c0.078,2.242,0.058,3.697-0.051,4.367l-0.012,0.068c-0.167,1.004-0.655,1.592-1.463,1.754c-0.961-0.158-1.684-0.439-2.169-0.842    c-0.483-0.4-0.653-1.048-0.505-1.943c0.325-1.946,0.459-4.828,0.403-8.649l-6.606-2.13c-0.677,1.448-1.276,3.059-1.8,4.833    c-0.524,1.773-0.956,3.059-1.293,3.853c-0.684,1.63-1.575,2.356-2.671,2.174c-0.536-0.09-1.004-0.344-1.405-0.767    c-0.4-0.422-0.556-0.902-0.468-1.439l0.269-0.575c5.061-11.403,9.277-22.623,12.65-33.662c0.095-0.306,0.315-1.211,0.657-2.715    c0.779-3.316,1.558-5.381,2.336-6.194l2.312,0.386c0.626,0.102,1.15,0.34,1.572,0.708c0.42,0.369,0.582,0.842,0.488,1.424    c-0.58,3.486-0.975,8.739-1.186,15.755C162.384,353.965,162.027,358.982,161.528,362z M157.712,362.779    c-0.022-0.691,0.104-1.871,0.381-3.537c0.277-1.664,0.524-3.748,0.745-6.25c0.218-2.501,0.422-5.417,0.609-8.753    c0.184-3.333,0.332-5.75,0.444-7.247c-3.988,11.167-6.677,19.057-8.064,23.674C152.525,361.308,154.485,362.014,157.712,362.779z"/>
		<path style="fill:#FFFFFF;" d="M169.82,347.167l1.099-6.536c0.425-2.8,0.57-4.956,0.434-6.465c0.558-1.567,1.296-2.278,2.215-2.14    l3.025,0.461c2.642,0.403,4.333,1.783,5.075,4.141c0.643,2.094,0.774,4.403,0.388,6.936c-0.488,3.202-0.866,5.155-1.133,5.859    c-0.267,0.706-0.541,1.368-0.818,1.992c-0.279,0.621-0.577,1.114-0.898,1.477c-0.318,0.364-0.716,0.757-1.191,1.177    c-0.478,0.422-1,0.759-1.565,1.017c-1.254,0.565-2.729,0.983-4.42,1.252l-1.118,7.358l-1.448,13.12    c-0.085,0.558-0.393,1-0.922,1.32c-0.531,0.32-1.097,0.434-1.703,0.342l-1.317-1.06c-0.175-2.615,0.061-6.029,0.701-10.24    l2.135-12.223c-0.177-0.645-0.226-1.225-0.148-1.742l0.036-0.235C168.833,352.15,169.357,350.214,169.82,347.167z     M174.425,339.961l-1.907,13.426l-0.017,0.099c2.788,0.058,4.745-3.608,5.869-11c0.332-2.174,0.289-3.692-0.131-4.559    c-0.456-0.917-1.288-1.468-2.499-1.652c0.012-0.068-0.23-0.138-0.723-0.214L174.425,339.961z"/>
		<path style="fill:#FFFFFF;" d="M185.548,349.532l1.019-6.548c0.393-2.807,0.512-4.964,0.357-6.473    c0.539-1.57,1.269-2.293,2.191-2.164l3.028,0.425c2.649,0.369,4.357,1.73,5.126,4.081c0.67,2.084,0.827,4.394,0.473,6.929    c-0.449,3.21-0.803,5.168-1.063,5.874c-0.26,0.708-0.524,1.373-0.793,1.999c-0.272,0.626-0.563,1.123-0.878,1.49    c-0.315,0.369-0.708,0.767-1.179,1.191c-0.471,0.427-0.987,0.771-1.55,1.036c-1.249,0.58-2.717,1.017-4.406,1.305l-1.029,7.373    l-1.288,13.135c-0.08,0.56-0.381,1.004-0.907,1.332c-0.526,0.325-1.092,0.446-1.698,0.361l-1.329-1.043    c-0.206-2.615-0.015-6.031,0.575-10.25l1.987-12.247c-0.184-0.643-0.24-1.223-0.167-1.74l0.032-0.235    C184.621,354.528,185.121,352.584,185.548,349.532z M190.066,342.271l-1.744,13.448l-0.015,0.102    c2.788,0.024,4.699-3.666,5.735-11.073c0.306-2.176,0.243-3.695-0.187-4.556c-0.468-0.91-1.305-1.451-2.518-1.621    c0.01-0.068-0.233-0.136-0.725-0.204L190.066,342.271z"/>
		<path style="fill:#FFFFFF;" d="M206.815,378.985c-0.391,3.079-1.339,4.525-2.846,4.333c-0.832-0.107-1.407-0.691-1.73-1.761    c0.645-0.946,1.397-4.813,2.259-11.601c0.155-1.235,0.255-3.003,0.296-5.306c0.039-2.302,0.097-3.938,0.175-4.91l0.228-1.788    c-0.066-0.214-0.553-2.125-1.465-5.735c-2.082-8.096-3.028-12.887-2.839-14.37l0.046-0.371l1.696-0.951    c1.414,0.201,2.647,3.979,3.705,11.33c0.461,3.21,0.689,4.825,0.687,4.847c0.245-0.492,0.822-2.167,1.732-5.022    c2.317-7.288,4.229-10.837,5.733-10.646c0.427,0.053,0.798,0.238,1.114,0.551c0.313,0.315,0.444,0.684,0.391,1.111    c-0.291,2.293-1.371,5.544-3.239,9.748c-1.87,4.204-2.972,7.45-3.307,9.738L206.815,378.985z"/>
		<path style="fill:#FFFFFF;" d="M246.241,341.64c0.112-1.128,0.818-1.625,2.113-1.497s1.89,0.733,1.783,1.815    c-0.146,1.468-0.296,2.409-0.451,2.824l-0.036,0.374c-0.822,1.854-1.346,3.942-1.577,6.264l-0.505,5.073    c-0.286,2.885-1.072,7.196-2.361,12.931c-1.286,5.735-2.057,9.889-2.312,12.458c-0.466,4.69-1.589,6.946-3.37,6.769    c-1.329-0.131-1.897-1.184-1.701-3.156c0.194-1.972,0.325-3.969,0.388-5.99c0.066-2.018,0.063-4.25,0-6.694    c-0.066-2.443-0.133-4.459-0.204-6.048c-0.07-1.589-0.184-3.865-0.344-6.832c-0.163-2.962-0.269-4.971-0.325-6.024    c-0.311,1.516-0.541,3.054-0.696,4.61c-0.155,1.555-0.621,4.474-1.4,8.758c-0.779,4.282-1.822,8.613-3.132,12.992    c-1.312,4.377-2.521,6.512-3.625,6.402c-1.778-0.201-2.642-5.17-2.584-14.908c0.005-4.19,0.058-8.397,0.16-12.62    c0.252-10.813,0.143-16.939-0.33-18.373c0.466-0.774,1.169-1.114,2.118-1.021c1.487,0.148,2.065,1.897,1.732,5.245    c-0.332,3.348-0.354,8.503-0.065,15.464c0.286,6.963,0.33,12.026,0.131,15.194c3.287-13.176,5.279-23.256,5.973-30.248    l1.941-0.626c0.563,0.056,1.034,0.25,1.412,0.585c0.376,0.332,0.536,0.769,0.483,1.31l-0.056,0.575    c0.866,4.573,1.264,11.111,1.194,19.622c-0.022,3.889,0.019,6.912,0.126,9.061c1.492-6.317,2.678-13.906,3.557-22.769    c0.116-1.172,0.463-2.889,1.041-5.155c0.577-2.266,0.924-3.984,1.041-5.155C246.244,342.426,246.205,342.024,246.241,341.64z"/>
		<path style="fill:#FFFFFF;" d="M253.794,352.274l0.078-5.893c0.252-3.275,1.349-4.838,3.292-4.69    c1.242,0.097,2.914,0.514,5.017,1.254c2.101,0.742,3.118,1.565,3.047,2.467c-0.073,0.949-0.805,1.621-2.198,2.014    c-2.091-0.888-3.809-1.463-5.153-1.725c-0.007,1-0.051,1.994-0.126,2.989l-1.07,9.94c-0.005,0.046,0.036,0.412,0.119,1.099    l2.482,0.09c2.237,0.17,3.307,0.89,3.21,2.154c-0.039,0.497-0.274,0.917-0.711,1.257c-0.434,0.342-0.963,0.49-1.584,0.442    c-0.621-0.049-1.291-0.143-2.006-0.291l-1.761-0.133c0,1.771-0.065,3.527-0.199,5.267l-1.271,12.548    c-0.199,2.598-0.255,3.901-0.165,3.908l5.131,0.223c1.761,0.136,2.598,0.769,2.513,1.897c-0.053,0.701-0.398,1.184-1.034,1.456    c-0.633,0.269-1.334,0.374-2.103,0.315l-5.861-0.451c-0.609-0.046-1.148-0.298-1.613-0.755c-0.463-0.456-0.687-0.978-0.662-1.567    l0.141-1.829l0.459-11.759L253.794,352.274z"/>
		<path style="fill:#FFFFFF;" d="M267.207,379.798l1.405-21.878c0.082-1.492,0.073-3.78-0.032-6.861    c-0.102-3.079-0.131-5.037-0.085-5.876c0.046-0.835,0.342-1.473,0.888-1.907s1.114-0.638,1.701-0.604    c4.775,0.262,8.501,3.268,11.179,9.02c1.543,3.285,2.22,6.703,2.023,10.255l-0.328,3.489l-0.211,3.833    c-0.255,4.66-0.636,7.761-1.14,9.297c-0.505,1.538-1.012,2.817-1.521,3.831c-0.509,1.017-1.104,1.914-1.781,2.695    c-1.575,1.773-3.511,3.164-5.813,4.173l-5.022-0.277C267.295,388.924,266.875,385.86,267.207,379.798z M271.846,383.966    l-0.092,1.662c4.027,0.223,6.672-3.717,7.933-11.817c0.284-1.866,0.473-3.671,0.57-5.415c0.767-13.979-1.524-21.434-6.873-22.363    c-0.439,1.812-0.747,4.321-0.924,7.521c-0.175,3.202-0.274,8.217-0.298,15.046S272.033,380.55,271.846,383.966z"/>
		<path style="fill:#FFFFFF;" d="M288.612,380.899l0.759-21.91c0.039-1.494-0.041-3.78-0.235-6.856s-0.279-5.032-0.26-5.871    c0.022-0.837,0.298-1.482,0.832-1.934c0.531-0.451,1.094-0.67,1.681-0.655c4.779,0.121,8.593,3.018,11.441,8.688    c1.64,3.236,2.416,6.633,2.327,10.189l-0.226,3.496l-0.097,3.84c-0.116,4.665-0.405,7.773-0.864,9.326    c-0.461,1.553-0.929,2.843-1.407,3.874c-0.48,1.031-1.048,1.946-1.703,2.744c-1.519,1.822-3.413,3.268-5.684,4.345l-5.029-0.129    C288.971,390.019,288.46,386.969,288.612,380.899z M293.372,384.929l-0.041,1.664c4.03,0.102,6.558-3.913,7.579-12.048    c0.228-1.875,0.366-3.683,0.41-5.427c0.354-13.998-2.157-21.383-7.531-22.155c-0.386,1.827-0.619,4.343-0.701,7.548    c-0.08,3.205-0.034,8.222,0.146,15.046C293.414,376.384,293.46,381.508,293.372,384.929z"/>
		<path style="fill:#FFFFFF;" d="M317.216,366.828l0.449,14.782l0.015,2.072l-0.019,1.938l0.917-0.007l2.006-0.082    c1.902-0.015,2.858,0.556,2.868,1.713c0.002,0.59-0.226,1.094-0.687,1.516c-0.461,0.425-0.997,0.636-1.608,0.64l-3.059,0.024    c-2.108,0.015-3.457-0.019-4.047-0.107c-0.361,0.049-0.643,0.073-0.849,0.075c-1.652,0.012-2.484-0.502-2.492-1.545    c-0.002-0.429,0.131-0.839,0.398-1.228c0.269-0.386,0.541-0.592,0.813-0.616l1.97-0.015l0.129-0.919l-0.585-14.78l0.26-15.5    c-0.019-2.652-0.153-5.143-0.395-7.475l-1.327,0.01l-1.596,0.08c-0.679,0.005-1.213-0.121-1.599-0.378    c-0.388-0.257-0.585-0.75-0.59-1.475c-0.007-1.063,1.133-1.606,3.421-1.623l8.292-0.061c1.88-0.015,2.824,0.466,2.831,1.441    c0.002,0.429-0.197,0.827-0.602,1.194s-0.869,0.551-1.39,0.553l-3.569,0.027c0.197,1.902,0.303,4.054,0.32,6.456L317.216,366.828z    "/>
		<path style="fill:#FFFFFF;" d="M326.775,361.784L326.43,348.8c-0.124-2.15,0.626-3.906,2.249-5.269l0.024,0.439    c0.175-0.121,0.342-0.189,0.5-0.199c1.087-0.063,2.552,1.732,4.396,5.381c1.846,3.649,3.554,7.674,5.126,12.077    s3.139,8.845,4.704,13.326c1.565,4.483,2.528,7.111,2.892,7.885c0.364-9.758,0.148-21.536-0.653-35.333l-0.209-1.861    c-0.08-1.378,0.456-2.103,1.608-2.169c0.657-0.039,1.164,0.204,1.524,0.728c0.359,0.524,0.56,1.148,0.602,1.873l0.306,5.257    c0.269,5.454,0.449,12.747,0.536,21.876c0.087,9.132-0.209,14.307-0.888,15.524c-1.245,0.459-2.111,0.701-2.596,0.73    c-0.488,0.027-0.869-0.116-1.148-0.427c-0.279-0.313-0.519-0.805-0.716-1.475c-0.199-0.67-0.359-1.114-0.485-1.332l0.015-0.308    c-0.099-1.72-2.077-7.084-5.937-16.099c-3.857-9.013-6.635-15.207-8.329-18.581l2.028,34.981c0.051,0.087,0.15,0.24,0.298,0.459    c0.323,0.48,0.497,0.936,0.522,1.366c0.027,0.429-0.16,0.871-0.553,1.325c-0.393,0.456-0.873,0.699-1.439,0.73    c-1.514,0.09-2.353-1.281-2.518-4.107L326.775,361.784z"/>
		<path style="fill:#FFFFFF;" d="M373.809,371.634l1.354,7.259c0.315,2.266-0.23,4.122-1.642,5.565    c-1.412,1.444-3.173,2.312-5.282,2.606c-3.188,0.444-5.665-0.425-7.431-2.603c-1.269-1.538-2.14-3.035-2.618-4.491    c-0.476-1.456-0.827-2.579-1.051-3.372c-0.226-0.791-0.456-1.868-0.691-3.232c-0.357-1.895-0.614-3.426-0.776-4.593l-0.412-2.962    c-0.905-6.485-1.283-10.612-1.143-12.383c0.143-1.771,0.359-3.43,0.645-4.981c0.289-1.548,0.735-2.778,1.339-3.685    c1.453-2.215,3.314-3.481,5.58-3.797c2.266-0.315,3.481,0.112,3.644,1.276c0.075,0.539-0.087,1.014-0.488,1.424    c-0.403,0.41-0.883,0.655-1.444,0.733l-1.47,0.034c-1.594,0.221-2.574,1.96-2.945,5.214c-0.543,4.651-0.371,10.151,0.514,16.502    c0.602,4.331,1.157,7.29,1.664,8.879c0.507,1.587,1.007,2.906,1.494,3.959c0.471,1.08,0.978,1.924,1.521,2.533    c1.276,1.448,2.744,2.055,4.406,1.824c2.22-0.311,2.822-4.122,1.803-11.439l-0.439-3.164c-0.361-0.133-0.912-0.148-1.655-0.044    l-1.342,0.221c-1.594,0.221-2.462-0.194-2.61-1.249c-0.09-0.65,0.07-1.177,0.485-1.577c0.412-0.4,0.944-0.645,1.596-0.738    l0.005,0.034l0.941-0.131c4.129-0.575,6.293-0.155,6.49,1.259L373.809,371.634z"/>
	</g>
</g>















</svg>
