<?xml version="1.0" encoding="UTF-8"?>
<!-- Generator: Adobe Illustrator 25.2.1, SVG Export Plug-In . SVG Version: 6.00 Build 0)  -->
<svg xmlns="http://www.w3.org/2000/svg" xmlns:xlink="http://www.w3.org/1999/xlink" version="1.1" id="Capa_1" x="0px" y="0px" viewBox="0 0 500 500" style="enable-background:new 0 0 500 500;" xml:space="preserve" width="512" height="512">
<g>
	<g>
		<g>
			<g>
				<g>
					<path style="fill-rule:evenodd;clip-rule:evenodd;fill:#FFAD8A;" d="M397.215,285.166c-5.008-0.449-9.925-0.978-14.738-1.605       c1.208-39.116,1.253-80.212-1.876-117.097c-21.072-5.335-53.252-4.831-74.757-0.272c-2.817,37.248-2.791,78.159-1.883,117.629       c-5.218,0.055-9.467,1.075-14.466,1.346c-3.406-32.437-8.841-66.755-8.841-103.705c0-14.663,1.713-29.065,8.841-36.974       c2.7-2.994,6.933-5.523,10.992-7.232c10.087-4.253,22.505-5.798,36.168-6.431c7.874-0.372,19.226-0.071,27.334,1.067       c8.56,1.206,16.65,2.835,22.506,5.364c4.116,1.777,9.157,5.227,11.527,8.301c11.16,14.537,8.217,45.128,6.431,68.597       C402.595,238.458,399.877,262.105,397.215,285.166z"/>
					<g>
						<path style="fill:#B25B1A;" d="M320.942,113.891c2.866,0.952,5.902,1.93,8.905,2.335c6.971,0.936,13.955,2.158,20.917,3.328        c0.341-1.843,0.921-3.634,1.722-5.327c-0.104,1.452-0.135,2.919-0.091,4.377c0.024,0.485,0.069,1.011,0.412,1.368        c0.314,0.323,0.801,0.425,1.244,0.509c3.3,0.604,6.597,1.215,9.887,1.823c0.518-2.133,0.905-4.3,1.164-6.479        c0.376,1.879,0.56,3.782,0.555,5.685c4.366,1.12,8.925,1.509,13.408,1.151c0.56-1.941,1.126-3.913,1.126-5.94        c0-2.023-0.633-4.141-2.149-5.566c-0.374-0.343-0.792-0.651-1.044-1.075c-0.668-1.133,0.095-2.498,0.232-3.775        c0.367-3.505-2.352-7.874-5.482-9.547c-1.288-0.69-2.748-1.122-3.839-2.08c-1.39-1.224-1.923-3.111-1.992-4.904        c-0.078-1.79,0.243-3.569,0.263-5.364c0.073-8.188-5.048-14.575-12.815-17.688c-2.498-1.011-5.18-1.68-7.867-1.58        c-0.821,0.038-1.66,0.135-2.443-0.088c-0.639-0.182-1.191-0.564-1.781-0.881c-3.622-1.978-8.613-1.109-12.162,0.491        c-3.919,1.755-7.114,4.897-8.845,8.697c-1.056,2.317-1.79,5.096-4.118,6.269c-0.949,0.485-2.047,0.615-3.109,0.801        c-5.025,0.856-10.266,3.441-11.737,8.113c-0.662,2.089-0.562,4.53-2.085,6.139c-1.441,1.523-3.875,1.757-5.572,3.003        c-2.348,1.724-2.79,4.906-2.936,7.754c-0.016,0.414-0.024,0.859,0.208,1.215c0.244,0.372,0.702,0.562,1.135,0.708        c1.538,0.535,3.129,0.923,4.745,1.14c0.743-1.549,1.489-3.102,2.228-4.654c-0.155,1.666-0.305,3.339-0.46,5.003        c3.749,1.272,7.613,2.22,11.534,2.824c0.589-1.551,1.184-3.1,1.777-4.643c-0.018,1.33-0.031,2.653-0.046,3.981        c0,0.376,0.004,0.779,0.221,1.098c0.283,0.385,0.806,0.511,1.286,0.611c2.047,0.427,4.094,0.854,6.134,1.283        c0.542-1.564,1.075-3.116,1.613-4.674C321.035,110.855,320.989,112.376,320.942,113.891"/>
						<g>
							<path style="fill-rule:evenodd;clip-rule:evenodd;fill:#FFAD8A;" d="M355.813,90.435c3.404-0.221,7.307,0.85,7.821,3.72         c0.646,3.693-3.021,6.152-5.402,7.261c-1.084,0.509-2.277,0.516-2.976,1.113c-0.662,0.578-1.507,3.08-1.669,4.092         c-1.374,8.203,2.315,34.356-2.638,40.039c-0.783,0.892-2.819,2.516-4.098,3.165c-2.399,1.219-6.723,1.717-10.047,0.743         c-4.222-1.237-8.168-5.324-9.113-9.861c-0.527-2.543-0.323-19.757-0.527-23.291c-4.204-0.943-7.978-3.561-9.861-8.004         c-1.04-2.432-1.487-7.006-0.748-10.602c0.411-2.005,1.496-4.601,2.605-7.44c1.879-4.787,3.587-9.414,5.769-13.955         c1.292-2.689,2.361-5.101,3.536-6.329c2.505-2.62,7.033-4.443,12.465-3.906c7.872,0.777,15.491,7.294,16.376,15.072         C357.699,85.728,356.902,87.925,355.813,90.435"/>
							<g>
								<g>
									<g>
										<path style="fill-rule:evenodd;clip-rule:evenodd;fill:#F5FCFF;" d="M342.255,92.519c-3.249-5.373-7.933-2.72-7.933-2.72            s0.713,1.872,3.45,2.961C339.798,93.566,342.255,92.519,342.255,92.519"/>
										<path style="fill-rule:evenodd;clip-rule:evenodd;fill:#42758A;" d="M334.321,89.799c0,0,2.273-1.308,4.785-0.239            c0.033,0.219,0.128,0.666,0.093,0.903c-0.179,1.04-1.104,1.795-2.244,1.916C334.892,91.293,334.321,89.799,334.321,89.799            "/>
									</g>
									<path style="fill:#B25B1A;" d="M343.335,90.266c-2.419-3.492-6.929-3.658-8.615-3.2l-0.407-1.494           c2.673-0.726,7.641-0.031,10.295,3.811L343.335,90.266z"/>
								</g>
								<g>
									<g>
										<path style="fill-rule:evenodd;clip-rule:evenodd;fill:#F5FCFF;" d="M328.988,88.016            c-3.012-4.992-7.358-2.534-7.358-2.534s0.655,1.744,3.198,2.757C326.711,88.985,328.988,88.016,328.988,88.016"/>
										<path style="fill-rule:evenodd;clip-rule:evenodd;fill:#42758A;" d="M321.63,85.482c0,0,2.107-1.21,4.437-0.219            c0.029,0.21,0.117,0.622,0.084,0.834c-0.159,0.978-1.027,1.673-2.085,1.79C322.159,86.872,321.63,85.482,321.63,85.482"/>
									</g>
									<path style="fill:#B25B1A;" d="M329.947,85.955c-2.231-3.213-6.384-3.368-7.936-2.952l-0.405-1.492           c2.494-0.679,7.13-0.029,9.613,3.561L329.947,85.955z"/>
								</g>
								<path style="fill-rule:evenodd;clip-rule:evenodd;fill:#F28C68;" d="M342.788,113.509          c-0.772,3.921-8.411,8.737-15.623,7.774v-3.868C333.516,118.101,338.869,115.872,342.788,113.509"/>
								<g>
									<path style="fill-rule:evenodd;clip-rule:evenodd;fill:#F5FCFF;" d="M337.953,101.229           c1.095,4.286-4.437,7.973-10.042,7.256c-2.038-0.261-5.335-1.823-5.588-4.094c-0.431-3.964,3.253-3.357,6.515-3.536           C332.007,100.682,337.032,97.633,337.953,101.229"/>
									<path style="fill-rule:evenodd;clip-rule:evenodd;fill:#F28C68;" d="M329.117,99.242c-8.301-2.72-0.801-7.752,1.669-10.797           c0.142-0.168,0.259-0.54,0.56-0.558C332.991,87.801,330.748,96.343,329.117,99.242"/>
									<path style="fill-rule:evenodd;clip-rule:evenodd;fill:#FFAD87;" d="M345.937,98.755c0,1.635-1.325,2.963-2.954,2.963           c-1.642,0-2.963-1.328-2.963-2.963c0-1.64,1.321-2.959,2.963-2.959C344.612,95.796,345.937,97.115,345.937,98.755"/>
									<path style="fill:#FFAD87;" d="M322.29,93.063c0-1.529-1.164-2.77-2.649-2.928c-0.162,0.412-0.316,0.817-0.48,1.233           c-0.562,1.436-1.113,2.806-1.58,4.074c0.489,0.363,1.091,0.586,1.753,0.586C320.966,96.029,322.29,94.699,322.29,93.063z"/>
								</g>
							</g>
						</g>
						<path style="fill:#B25B1A;" d="M338.787,64.888c-1.476,2.363-1.934,5.285-1.25,8.006c0.684,2.715,2.498,5.207,4.972,6.823        c1.434,0.932,3.191,1.713,3.795,3.226c0.626,1.564-0.259,3.237-0.221,4.891c0.024,1.359,0.717,2.713,1.839,3.616        c1.126,0.896,2.662,1.332,4.101,1.151c-0.08,0.79-0.164,1.593,0.004,2.379c0.17,0.79,0.633,1.567,1.385,1.963        c0.954,0.5,2.189,0.272,3.043-0.325c0.852-0.589,1.399-1.492,1.841-2.397c2.915-5.937,2.35-13.324-1.469-19.003        c-3.811-5.683-10.753-9.493-17.863-9.801"/>
						<path style="fill:#B25B1A;" d="M342.883,65.953c-0.232,2.213-1.312,4.468-2.961,6.158c-1.655,1.704-3.875,2.833-6.068,3.112        c-1.272,0.157-2.664,0.086-3.716,0.949c-1.089,0.901-1.348,2.412-2.131,3.581c-0.639,0.963-1.673,1.682-2.746,1.927        c-1.071,0.243-2.175,0.005-2.934-0.637c-0.321,0.591-0.642,1.199-1.102,1.7c-0.46,0.498-1.093,0.896-1.722,0.907        c-0.788,0.018-1.399-0.58-1.631-1.31c-0.221-0.732-0.122-1.567,0.029-2.368c1.04-5.28,4.78-10.348,9.64-13.054        c4.862-2.704,10.688-2.957,14.995-0.655"/>
					</g>
				</g>
				<g>
					<g>
						<g>
							<path style="fill-rule:evenodd;clip-rule:evenodd;fill:#F5FCFF;" d="M317.284,461.504         c-5.771,6.595-9.334,26.126-15.69,28.735c-2.932,1.195-12.012,1.914-11.503,6.28c0.321,2.793,5.437,2.987,9.432,3.129         c6.384,0.224,14.205,0.611,18.228-1.808c5.594-3.359,6.603-8.998,10.662-13.264c0.215,5.169,1.155,9.567,1.277,14.836         c2.618-0.077,5.24-0.151,7.856-0.228c0.347-8.274,3.047-26.662-1.819-37.096L317.284,461.504z"/>
							<path style="fill-rule:evenodd;clip-rule:evenodd;fill:#FFAD8A;" d="M317.218,423.674l19.823,0.682l-1.314,37.733         c-35.146,43.272-18.443-0.584-18.443-0.584L317.218,423.674z"/>
						</g>
						<g>
							<path style="fill-rule:evenodd;clip-rule:evenodd;fill:#F5FCFF;" d="M369.202,461.504         c5.771,6.595,9.334,26.126,15.694,28.735c2.928,1.195,12.007,1.914,11.503,6.28c-0.325,2.793-5.435,2.987-9.436,3.129         c-6.384,0.224-14.205,0.611-18.224-1.808c-5.594-3.359-6.608-8.998-10.662-13.264c-0.215,5.169-1.157,9.567-1.281,14.836         c-2.618-0.077-5.236-0.151-7.856-0.228c-0.343-8.274-3.041-26.662,1.815-37.096L369.202,461.504z"/>
							<path style="fill-rule:evenodd;clip-rule:evenodd;fill:#FFAD8A;" d="M369.273,423.674l-19.832,0.682l1.315,37.733         c35.146,43.272,18.447-0.584,18.447-0.584L369.273,423.674z"/>
						</g>
					</g>
					<g>
						<path style="fill-rule:evenodd;clip-rule:evenodd;fill:#F5FCFF;" d="M383.778,147.566c-2.729-2.379-5.165,2.547-6.588,3.213        c0.427-2.206,1.704-6.491,0-8.04c-2.308-2.111-5.373,3.534-7.101,5.895c-0.013-1.868-0.478-3.93-1.843-4.554        c-3.574-1.642-5.229,2.337-5.789,4.286c-2.151-7.172-6.022,1.075-6.847,4.289c-0.491-2.138-1.545-3.99-3.421-3.485        c-1.576,0.427-1.467,2.95-1.839,4.826c-1.392-2.043-6.026-2.136-6.935,1.365c-1.084-3.43-5.751-3.408-7.137-1.365        c-0.376-1.877-0.268-4.399-1.839-4.826c-1.885-0.505-2.939,1.348-3.428,3.485c-0.819-3.213-4.696-11.461-6.845-4.289        c-0.564-1.949-2.22-5.928-5.783-4.286c-1.376,0.624-1.832,2.687-1.845,4.554c-1.739-2.361-4.798-8.006-7.11-5.895        c-1.695,1.549-0.423,5.833,0,8.04c-1.419-0.666-3.855-5.592-6.586-3.213c-2.686,2.341,1.091,10.308,3.165,13.391        c0.794,0.102,0.447-0.969,1.051-1.067c10.688-2.638,22.813-0.033,30.8,3.751c1.162,0.556,2.315,1.463,3.53,2.08        c-0.06,0.102-0.128,0.199-0.197,0.303c0.356,0.133,0.697,0.243,0.994,0.301c0.387,0.066,0.759,0.06,1.126,0.02        c0.363,0.04,0.741,0.046,1.129-0.02c0.301-0.058,0.635-0.168,0.989-0.301c-0.071-0.104-0.128-0.206-0.188-0.31        c1.222-0.62,2.366-1.518,3.525-2.074c7.986-3.784,20.115-6.389,30.797-3.751c0.611,0.097,0.254,1.168,1.058,1.067        C382.694,157.874,386.469,149.907,383.778,147.566z"/>
						<g>
							<path style="fill-rule:evenodd;clip-rule:evenodd;fill:#DBE9EF;" d="M343.357,165.121c2.038-1.896,3.109-4.056,5.353-5.891         c8.334-6.82,23.824-5.329,32.694,0c-2.339,19.007-5.692,37-9.108,54.923c29.147,18.007,44.657,50.993,53.586,91.651         c7.845,35.67,9.536,83.058,6.165,126.204c-0.476,6.03-0.861,11.627-5.623,13.127c-4.716,1.48-8.336-1.507-9.385-6.163         c-0.985,2.189-1.264,4.652-3.211,6.163c-4.784,3.711-12.291-0.279-12.596-5.893c-0.788,0.569-1.084,1.549-1.609,2.41         c-1.16,1.903-3.441,4.815-6.161,5.358c-5.313,1.069-8.029-2.215-9.914-5.893c-0.987,1.677-1.392,3.335-2.948,4.552         c-4.705,3.695-12.129,1.478-13.402-4.289c-1.193,2.394-2.06,4.691-4.286,5.902c-5.043,2.731-10.115-1.111-11.246-5.902         c-1.509,1.978-2.824,5.238-5.636,6.165c-5.51,1.83-9.164-2.2-10.987-6.165c-1.339,2.334-1.923,4.616-4.282,5.902         c-4.689,2.542-10.093-0.786-10.99-5.63c-1.633,1.438-2.253,4.005-4.289,5.094c-4.614,2.463-11.795-0.965-12.324-5.895         c-1.83,3.837-4.685,7.329-10.184,6.159c-3.559-0.759-6.052-4.884-7.234-8.037c-1.126,5.415-6.84,9.527-12.056,6.696         c-2.215-1.199-3.207-3.693-4.019-6.696c-1.148,3.886-3.835,7.524-9.115,6.163c-2.368-0.606-5.322-3.735-5.628-6.969         c-4.182-44.283-3.107-93.999,5.9-133.706c9.299-41.015,25.794-73.339,53.32-90.308c-3.01-18.248-6.831-35.679-8.838-54.923         c4.893-2.505,10.932-4.767,17.411-4.829C332.436,154.311,339.161,159.494,343.357,165.121z"/>
							<path style="fill-rule:evenodd;clip-rule:evenodd;fill:#7AB0C9;" d="M426.424,445.135c4.762-1.5,5.147-7.097,5.623-13.127         c0.015-0.193,0.028-0.388,0.043-0.581c-12.876,1.794-26.787,2.678-40.772,3.523c-44.32,2.691-93.108,5.288-136.664,0.233         c0.088,0.997,0.176,1.994,0.27,2.985c0.305,3.233,3.259,6.362,5.627,6.969c5.28,1.361,7.967-2.277,9.115-6.163         c0.812,3.003,1.804,5.497,4.019,6.696c5.216,2.83,10.93-1.281,12.056-6.696c1.182,3.153,3.676,7.278,7.234,8.037         c5.499,1.171,8.354-2.322,10.184-6.159c0.529,4.93,7.71,8.358,12.324,5.895c2.036-1.089,2.655-3.656,4.288-5.094         c0.896,4.844,6.3,8.172,10.99,5.63c2.359-1.286,2.943-3.567,4.282-5.902c1.823,3.966,5.477,7.995,10.987,6.165         c2.813-0.927,4.127-4.187,5.636-6.165c1.131,4.791,6.203,8.633,11.246,5.902c2.226-1.211,3.094-3.508,4.286-5.902         c1.273,5.767,8.697,7.984,13.402,4.289c1.556-1.217,1.961-2.875,2.948-4.552c1.885,3.678,4.601,6.962,9.914,5.893         c2.72-0.542,5.001-3.455,6.161-5.358c0.525-0.861,0.821-1.841,1.609-2.41c0.305,5.614,7.812,9.604,12.596,5.893         c1.947-1.511,2.226-3.974,3.211-6.163C418.088,443.628,421.708,446.615,426.424,445.135z"/>
						</g>
						<g>
							<path style="fill-rule:evenodd;clip-rule:evenodd;fill:#7AB0C9;" d="M343.89,216.837c0.438,4.264-3.671,6.944-6.165,3.749         c-0.998,3.211-2.726,7.073-6.699,6.167c-1.981-0.456-2.746-2.857-3.749-4.822c-1.359,1.881-2.644,9.993-6.165,9.909         c-3.089-0.071-3.094-6.254-2.678-10.18c-1.967,1.602-6.083,7.323-10.452,8.035c-2.107,0.345-4.461-0.456-4.556-2.41         c-0.277-5.659,6.384-9.865,9.376-13.134C322.219,216.003,332.553,216.917,343.89,216.837z"/>
							<path style="fill-rule:evenodd;clip-rule:evenodd;fill:#7AB0C9;" d="M342.339,216.837c-0.443,4.264,3.673,6.944,6.167,3.749         c0.998,3.211,2.726,7.073,6.699,6.167c1.985-0.456,2.744-2.857,3.753-4.822c1.354,1.881,2.64,9.993,6.161,9.909         c3.087-0.071,3.091-6.254,2.682-10.18c1.965,1.602,6.079,7.323,10.447,8.035c2.102,0.345,4.461-0.456,4.554-2.41         c0.279-5.659-6.382-9.865-9.383-13.134C364.01,216.003,353.678,216.917,342.339,216.837z"/>
						</g>
					</g>
					<g>
						<g>
							<path style="fill-rule:evenodd;clip-rule:evenodd;fill:#7AB0C9;" d="M320.71,208.565c0.664-3.246-2.625-5.315-4.39-3.315         C314.06,207.826,318.645,212.739,320.71,208.565z"/>
							<path style="fill-rule:evenodd;clip-rule:evenodd;fill:#7AB0C9;" d="M327.804,205.987c0.766-0.177,1.607-0.628,1.826-1.182         c0.85-2.12-3.558-7.292-5.931-5.851c-1.963,1.184-1.171,3.029,0.529,4.818C325.49,205.118,326.377,206.324,327.804,205.987z"/>
							<path style="fill-rule:evenodd;clip-rule:evenodd;fill:#7AB0C9;" d="M319.683,194.655c2.91-0.401,1.888-2.91,0.856-5.763         c-0.943-2.616-1.627-4.966-3.826-4.337c-0.529,0.148-1.328,0.589-1.657,1.224c-1.071,2.078,2.085,8.239,3.244,8.836         C318.654,194.792,319.336,194.704,319.683,194.655z"/>
						</g>
						<g>
							<path style="fill-rule:evenodd;clip-rule:evenodd;fill:#DBE9EF;" d="M267.553,425.181c0.664-3.246-2.625-5.315-4.39-3.315         C260.903,424.442,265.488,429.354,267.553,425.181z"/>
							<path style="fill-rule:evenodd;clip-rule:evenodd;fill:#DBE9EF;" d="M274.648,422.603c0.766-0.177,1.606-0.628,1.826-1.182         c0.85-2.12-3.558-7.292-5.931-5.851c-1.963,1.184-1.171,3.029,0.529,4.818C272.333,421.733,273.22,422.939,274.648,422.603z"/>
							<path style="fill-rule:evenodd;clip-rule:evenodd;fill:#DBE9EF;" d="M266.526,411.27c2.91-0.401,1.888-2.91,0.856-5.763         c-0.943-2.616-1.627-4.966-3.826-4.337c-0.529,0.148-1.328,0.589-1.657,1.224c-1.071,2.078,2.085,8.239,3.244,8.836         C265.497,411.407,266.179,411.319,266.526,411.27z"/>
						</g>
						<g>
							<path style="fill-rule:evenodd;clip-rule:evenodd;fill:#DBE9EF;" d="M414.129,283.185c-0.768-0.215-1.726-0.23-2.184,0.148         c-1.79,1.454-0.436,8.172,2.359,8.068c2.324-0.089,2.518-2.109,1.897-4.512C415.74,285.08,415.545,283.586,414.129,283.185z"/>
							<path style="fill-rule:evenodd;clip-rule:evenodd;fill:#DBE9EF;" d="M410.477,302.794c-0.496-0.283-1.113-0.463-1.653-0.29         c-1.016,0.312-2.717,2.928-3.094,4.654c-0.624,2.791,2.948,4.198,4.55,1.866C411.721,306.95,412.695,304.009,410.477,302.794         z"/>
							<path style="fill-rule:evenodd;clip-rule:evenodd;fill:#DBE9EF;" d="M402.675,283.467c-3.673-2.242-4.395,4.813-1.845,5.942         C404.46,291.026,404.908,284.823,402.675,283.467z"/>
							<path style="fill-rule:evenodd;clip-rule:evenodd;fill:#DBE9EF;" d="M395.463,269.021c-2.065,2.113,0.314,3.483,2.899,5.116         c2.37,1.492,4.357,2.934,5.732,1.073c0.323-0.443,0.692-1.288,0.553-2.007c-0.431-2.308-6.758-5.249-8.055-5.004         C396.2,268.273,395.713,268.77,395.463,269.021z"/>
						</g>
					</g>
					<g>
						<path style="fill-rule:evenodd;clip-rule:evenodd;fill:#FFAD8A;" d="M402.259,153.415        c-5.318,0.814-22.143,12.926-21.658,13.049c2.797,32.966,1.949,69.668,0.879,105.019c-1.358,2.133-4.692,8.207-5.316,10.401        c-1.367,4.815-2.708,11.746-2.465,15.604c0.091,1.474-0.79,5.61,1.146,5.663c2.022,0.049,2.277-6.274,2.985-7.349        c0.04,2.852,1.153,16.971,4.289,16.641c1.711-0.184,0.175-8.564,1.168-11.456c0.558,1.846,1.934,12.704,4.286,12.251        c1.25-0.241-0.142-8.338,0.996-10.773c1.036,3.324,1.507,10.058,3.333,9.867c1.399-0.139,0.279-8.192,1.44-10.969        c1.255,2.788,0.83,9.527,2.572,9.261c2.961-0.438,1.961-20.173,1.786-29.175c0.002-0.002-0.021-0.006-0.055-0.011        c2.522-21.882,5.05-44.286,6.807-67.284C405.958,194.341,408.293,169.432,402.259,153.415z"/>
						<path style="fill-rule:evenodd;clip-rule:evenodd;fill:#FFAD8A;" d="M304.453,281.41        c-0.875-38.558-1.353-78.936,1.391-115.218c0.219-0.046-18.392-19.013-18.392-19.013c-5.409,8.234-6.798,21.147-6.798,34.283        c0,34.054,3.306,62.715,6.494,92.393c-1.526,2.701-3.449,6.415-3.905,8.03c-1.372,4.815-2.713,11.746-2.467,15.604        c0.091,1.474-0.79,5.61,1.135,5.663c2.034,0.049,2.284-6.274,2.996-7.349c0.031,2.852,1.144,16.971,4.284,16.641        c1.713-0.184,0.179-8.564,1.175-11.456c0.555,1.846,1.927,12.704,4.286,12.251c1.241-0.241-0.142-8.338,0.989-10.773        c1.044,3.324,1.507,10.058,3.33,9.867c1.403-0.139,0.279-8.192,1.445-10.969c1.248,2.788,0.834,9.527,2.567,9.261        c2.965-0.438,1.965-20.173,1.788-29.175C304.779,281.442,304.658,281.429,304.453,281.41z"/>
					</g>
				</g>
			</g>
			<g>
				<g>
					<path style="fill-rule:evenodd;clip-rule:evenodd;fill:#42758A;" d="M324.228,52.54c0.755,2.189,1.627,4.353,2.954,5.765       c0.254,0.279,0.85,0.5,0.582,1.044c-0.733,0.378-1.23-0.662-1.737-1.337c-0.916-1.257-1.633-2.653-2.266-4.453       c-0.33-0.929-0.735-1.91-0.717-2.724c0.02-1.259,1.268-1.144,1.487,0.035C324.638,51.465,324.416,52.208,324.228,52.54z"/>
					<path style="fill-rule:evenodd;clip-rule:evenodd;fill:#42758A;" d="M323.52,63.012c-0.088,0.859-0.848,0.321-1.164,0.146       c-1.193-0.659-2.494-1.589-3.749-2.04c-0.109,0.203-0.031,0.542-0.283,0.633c-0.631,0.115-2.091-0.288-2.129-0.994       c-0.02-0.429,0.589-0.671,0.945-0.71c0.912-0.093,2.155,0.443,3.087,0.941c0.921,0.498,1.77,1.219,2.503,1.606       C323.018,62.744,323.432,62.667,323.52,63.012z"/>
					<path style="fill-rule:evenodd;clip-rule:evenodd;fill:#FF2828;" d="M321.394,62.605c0.033-0.303-0.297-0.564-0.465-0.834       c-0.62-0.976-2.02-3.565-0.93-5.138c1.372-1.985,4.902-0.881,6.148,0.679c0.15-2.965,2.348-5.143,5.242-3.713       c2.127,1.049,3.691,3.992,3.97,7.026c0.276,3.1-0.529,6.789-2.614,8.673c-1.396,1.257-3.545,1.814-6.349,1.436       c-3.045-0.412-5.769-1.854-7.579-3.503c-0.615-0.553-1.35-1.206-1.416-2.146C317.264,62.866,319.654,62.91,321.394,62.605z"/>
				</g>
				<g>
					<path style="fill-rule:evenodd;clip-rule:evenodd;fill:#FF2828;" d="M346.63,55.961c0.608-0.799,1.168-1.737,2.248-1.839       c2.032-0.195,2.547,2.104,1.675,3.862c2.875-1.115,5.072,0.212,4.638,3.463c-0.279,2.062-1.281,3.99-2.698,5.276       c-1.58,1.432-4.076,2.622-6.411,2.461c-4.997-0.345-6.393-7.081-6.11-11.656c0.137-2.177,0.898-4.764,2.211-5.822       c0.739-0.6,2.23-0.748,3.087,0.051C346.192,52.618,346.588,54.452,346.63,55.961z"/>
					<path style="fill-rule:evenodd;clip-rule:evenodd;fill:#42758A;" d="M357.643,50.031c0.022,0.575-0.509,0.659-0.792,0.98       c-0.155,0.17-0.215,0.48-0.416,0.715c-0.226,0.248-2.153,2.047-2.417,0.872c-0.137-0.644,1.091-1.806,1.465-2.118       c0.272-0.217,0.706-0.414,0.921-0.602c-1.016,0.053-1.77,0.799-2.523,1.463c-1.396,1.228-2.791,2.576-3.966,4.388       c-0.241,0.38-0.367,0.821-0.675,1.427c-0.334,0.657-0.794,1.708-1.381,0.867c0.23-0.985,0.918-1.684,1.339-2.562       c0.429-0.898,0.608-1.905,0.929-3.036c-0.17-0.281-0.458-0.365-0.613-0.77c-0.33-0.905,0.013-2.297,0.741-2.312       c1.445-0.04,0.684,2.795,0.484,3.93c1.169-1.058,3.51-3.994,5.572-4.276C356.982,48.898,357.243,49.641,357.643,50.031z"/>
				</g>
				<g>
					<path style="fill-rule:evenodd;clip-rule:evenodd;fill:#42758A;" d="M369.361,66.254c0.142,0.704-0.347,1.235-0.347,1.81       c-0.009,0.327-0.356,0.219-0.547,0.312c-1.647,2.071-3.882,4.058-6.148,5.543c-0.274,0.177-0.653,0.593-0.976,0.117       c0.272-0.664,0.976-1.053,1.489-1.47c1.551-1.244,3.229-2.485,4.581-4.083C366.745,67.367,368.221,65.364,369.361,66.254z"/>
					<path style="fill-rule:evenodd;clip-rule:evenodd;fill:#42758A;" d="M361.585,75.168c-0.124-0.89,1.098-0.967,1.837-1.202       c2.144-0.684,5.099-1.556,7.621-1.463c0.757,0.024,1.93,0.195,1.903,0.87c-0.029,0.823-1.671,1.113-2.372,0.779       c-0.175-0.321,0.086-0.693,0.241-0.861c-2.58,0.201-4.946,0.58-7.165,1.29C362.957,74.798,362.342,75.32,361.585,75.168z"/>
					<path style="fill-rule:evenodd;clip-rule:evenodd;fill:#FF2828;" d="M364.063,71.448c1.151-0.341,3.455-2.109,5.234-1.872       c0.684,0.093,1.071,0.615,1.339,1.255c-0.254,2.702-2.658,3.693-4.295,4.78c1.222,0.511,2.578,1.075,2.554,2.425       c-0.035,1.742-2.175,2.361-3.625,2.711c-3.125,0.743-7.369,0.564-9.39-1.394c-1.062-1.038-1.693-2.943-1.277-5.165       c0.485-2.638,2.476-4.957,4.109-6.579c0.892-0.872,2.403-2.226,3.766-2.62c0.662-0.184,1.604-0.135,2.171,0.385       C365.966,66.588,364.986,69.763,364.063,71.448z"/>
				</g>
			</g>
		</g>
		<g>
			<g>
				<g>
					<polygon style="fill-rule:evenodd;clip-rule:evenodd;fill:#FFAD8A;" points="161.617,460.767 140.535,460.767 141.991,479.353        161.617,479.353      "/>
					<path style="fill-rule:evenodd;clip-rule:evenodd;fill:#568EAF;" d="M162.306,476.835c-7.515-0.17-14.962-0.279-22.081-0.044       c-0.779-0.139-0.254,1.075-0.429,1.565c-1.635,4.176-6.209,7.207-10.627,8.856c-6.761,2.529-15.19,2.965-15.225,11.921       c0.465,0.732,2,0.438,3.142,0.456c16.504,0.33,33.504,0.119,50.076,0.411c-0.086-4.196-1.166-7.969-1.93-11.667       c-0.775-3.7-1.569-7.256-2.545-10.897C162.702,477.1,162.551,476.921,162.306,476.835z"/>
					<polygon style="fill-rule:evenodd;clip-rule:evenodd;fill:#3E758A;" points="164.545,473.069 136.226,473.069 121.601,293.106        168.754,293.106      "/>
				</g>
				<g>
					<polygon style="fill-rule:evenodd;clip-rule:evenodd;fill:#FFAD8A;" points="179.454,460.767 200.534,460.767 199.067,479.353        179.454,479.353      "/>
					<path style="fill-rule:evenodd;clip-rule:evenodd;fill:#568EAF;" d="M178.763,476.835c7.509-0.17,14.964-0.279,22.078-0.044       c0.777-0.139,0.255,1.075,0.427,1.565c1.642,4.176,6.214,7.207,10.631,8.856c6.761,2.529,15.185,2.965,15.223,11.921       c-0.46,0.732-1.998,0.438-3.138,0.456c-16.511,0.33-33.508,0.119-50.081,0.411c0.086-4.196,1.168-7.969,1.938-11.667       c0.761-3.7,1.56-7.256,2.536-10.897C178.363,477.1,178.518,476.921,178.763,476.835z"/>
					<polygon style="fill-rule:evenodd;clip-rule:evenodd;fill:#3E758A;" points="176.53,473.069 204.834,473.069 219.461,293.106        172.308,293.106      "/>
				</g>
			</g>
			<g>
				<path style="fill-rule:evenodd;clip-rule:evenodd;fill:#F5FCFF;" d="M197.861,82.607c-2.848,19.447-8.905,40.829-12.266,60.561      c-2.757,16.216-6.293,32.218-10.177,48.229c-0.533,2.173-0.912,5.608-2.421,5.897c-3.052,0.591-5.528-10.071-6.161-12.061      c-7.201-22.849-13.831-46.323-19.016-71.276c-1.538-7.354-5.132-13.326-5.364-21.777c-0.073-2.671,2.605-7.413,1.916-9.666      c5.559-2.693,13.315-4.751,21.395-5.267C176.603,76.555,191.479,78.343,197.861,82.607z"/>
				<g>
					<g>
						<g>
							<path style="fill-rule:evenodd;clip-rule:evenodd;fill:#FFAD8A;" d="M153.334,40.889c-3.673-0.241-7.907,0.914-8.453,4.021         c-0.706,3.997,3.266,6.654,5.838,7.854c1.173,0.551,2.47,0.56,3.224,1.206c0.721,0.631,1.626,3.337,1.81,4.428         c1.485,8.874-1.939,22.813,3.421,28.963c0.843,0.965,3.045,2.722,4.428,3.421c2.598,1.326,7.283,1.859,10.872,0.81         c4.572-1.339,8.838-5.771,9.867-10.671c0.564-2.748-0.223-7.024,0-10.846c4.548-1.027,8.624-3.85,10.666-8.653         c1.118-2.638,1.598-7.586,0.803-11.476c-0.443-2.167-1.613-4.977-2.815-8.049c-2.038-5.18-3.879-10.186-6.242-15.101         c-1.397-2.91-2.554-5.519-3.828-6.845c-2.706-2.837-7.604-4.809-13.488-4.227c-8.509,0.841-16.754,7.887-17.71,16.305         C151.299,35.79,152.159,38.174,153.334,40.889"/>
							<g>
								<g>
									<g>
										<path style="fill-rule:evenodd;clip-rule:evenodd;fill:#F5FCFF;" d="M167.86,42.642c6.108,2.985,8.816-2.171,8.816-2.171            s-1.751-1.297-4.879-0.673C169.48,40.256,167.86,42.642,167.86,42.642"/>
										<path style="fill-rule:evenodd;clip-rule:evenodd;fill:#42758A;" d="M176.676,40.471c0,0-1.308,2.514-4.218,3.016            c-0.16-0.177-0.502-0.529-0.611-0.759c-0.447-1.056-0.042-2.284,0.91-3.067C175.276,39.444,176.676,40.471,176.676,40.471            "/>
									</g>
									<path style="fill:#B25B1A;" d="M166.835,40.703c2.622-3.777,7.502-3.957,9.325-3.463l0.443-1.615           c-2.892-0.783-8.263-0.027-11.138,4.125L166.835,40.703z"/>
								</g>
								<g>
									<g>
										<path style="fill-rule:evenodd;clip-rule:evenodd;fill:#F5FCFF;" d="M182.187,37.61c5.53,3.038,8.259-1.627,8.259-1.627            s-1.556-1.279-4.488-0.845C183.789,35.47,182.187,37.61,182.187,37.61"/>
										<path style="fill-rule:evenodd;clip-rule:evenodd;fill:#42758A;" d="M190.445,35.983c0,0-1.315,2.273-4.037,2.613            c-0.142-0.175-0.447-0.513-0.527-0.735c-0.376-0.996,0.051-2.118,0.976-2.804C189.2,34.963,190.445,35.983,190.445,35.983            "/>
									</g>
									<path style="fill:#B25B1A;" d="M181.324,36.038c2.412-3.474,6.904-3.645,8.586-3.189l0.438-1.62           c-2.697-0.732-7.71-0.029-10.396,3.855L181.324,36.038z"/>
								</g>
								<path style="fill-rule:evenodd;clip-rule:evenodd;fill:#F28C68;" d="M167.431,65.847c0.841,4.253,9.104,9.458,16.911,8.411          v-4.182C177.466,70.815,171.673,68.405,167.431,65.847"/>
								<g>
									<path style="fill-rule:evenodd;clip-rule:evenodd;fill:#F5FCFF;" d="M172.667,52.565c-1.186,4.636,4.8,8.632,10.868,7.849           c2.197-0.283,5.769-1.976,6.039-4.428c0.469-4.286-3.525-3.631-7.042-3.828C179.093,51.969,173.658,48.674,172.667,52.565"/>
									<path style="fill-rule:evenodd;clip-rule:evenodd;fill:#F28C68;" d="M182.218,50.405c8.991-2.932,0.874-8.376-1.801-11.671           c-0.15-0.177-0.274-0.589-0.611-0.604C178.035,38.032,180.461,47.276,182.218,50.405"/>
									<path style="fill-rule:evenodd;clip-rule:evenodd;fill:#FFAD87;" d="M164.027,49.891c0,1.768,1.427,3.202,3.2,3.202           c1.768,0,3.202-1.434,3.202-3.202c0-1.77-1.434-3.204-3.202-3.204C165.455,46.687,164.027,48.121,164.027,49.891"/>
									<path style="fill:#FFAD87;" d="M189.591,42.834c0,1.766,1.434,3.207,3.206,3.207c0.6,0,1.157-0.182,1.631-0.462           c-0.438-1.166-0.93-2.397-1.432-3.68c-0.294-0.739-0.577-1.465-0.852-2.197C190.687,40.006,189.591,41.292,189.591,42.834z           "/>
								</g>
							</g>
						</g>
						<path style="fill-rule:evenodd;clip-rule:evenodd;fill:#B25B1A;" d="M184.922,0.443c3.62,2.585-1.952,7.438-4.395,10.644        c4.147-1.602,11.171-11.383,15.052-7.668c3.229,3.078-2.753,8.964-5.842,12.764c-4.906,6.026-11.332,9.77-20.133,14.736        c-2.481,1.405-5.515,3.151-6.761,5.063c-1.352,2.073-0.792,5.18-0.513,7.692c0.268,2.496,2.315,6.8-0.943,7.54        c-2.182,0.496-2.565-2.917-3.66-4.598c-0.927-1.456-2.107-3.065-3.375-4.034c-1.801-1.383-2.881-1.751-4.676-1.62        c-2.748-9.781-0.892-20.337,8.704-25.847c3.111-1.79,6.982-2.204,10.445-4.019C174.784,7.981,181.178-2.237,184.922,0.443z"/>
					</g>
					<g>
						<g>
							<path style="fill-rule:evenodd;clip-rule:evenodd;fill:#DBE9EF;" d="M169.703,93.586c-1.956,2.401-3.744,6.493-7.369,6.409         c-4.625-0.111-9.567-11.47-11.543-17.305c-1.082-3.226,4.636-9.02,5.136-8.648c1.286,0.954,2.074,3.346,3.2,5.127         C162.571,84.59,165.676,88.339,169.703,93.586z"/>
							<path style="fill-rule:evenodd;clip-rule:evenodd;fill:#DBE9EF;" d="M170.551,93.586c1.956,2.401,3.744,6.493,7.373,6.409         c4.616-0.111,9.555-11.47,11.529-17.305c1.095-3.226-4.627-9.02-5.121-8.648c-1.299,0.954-2.08,3.346-3.206,5.127         C177.683,84.59,174.583,88.339,170.551,93.586z"/>
							<path style="fill-rule:evenodd;clip-rule:evenodd;fill:#FF2828;" d="M177.975,96.963c-1.715,1.288-6.061-1.719-7.949-3.226         c-1.832,1.002-5.236,4.275-6.88,3.3c-2.122-1.262-2.2-8.759,0.004-9.876c1.861-0.941,4.532,3.313,6.584,5.121         c2.731-1.188,6.075-6.3,8.245-5.196C180.182,88.204,179.947,95.476,177.975,96.963z"/>
						</g>
						<path style="fill-rule:evenodd;clip-rule:evenodd;fill:#E41818;" d="M171.843,93.353c0,0.934-0.755,1.688-1.68,1.688        c-0.934,0-1.686-0.755-1.686-1.688c0-0.927,0.753-1.682,1.686-1.682C171.089,91.672,171.843,92.426,171.843,93.353z"/>
					</g>
				</g>
			</g>
			<g>
				<g>
					<path style="fill-rule:evenodd;clip-rule:evenodd;fill:#FFAD8A;" d="M248.119,270.647c-0.62,2.587-1.879,9.821-1.753,12.229       c0.283,5.276,1.31,12.667,2.874,16.438c0.598,1.436,1.122,5.875,3.074,5.26c2.043-0.639,0.133-7.046,0.474-8.358       c1.013,2.837,6.953,16.562,9.969,15.159c1.655-0.761-2.746-8.617-2.742-11.844c1.191,1.662,6.272,12.038,8.471,10.775       c1.164-0.666-2.99-8.276-2.689-11.105c2.175,2.968,4.946,9.535,6.71,8.726c1.343-0.622-2.527-8.29-2.317-11.463       c2.208,2.368,4.094,9.241,5.734,8.387c2.817-1.456-6.358-29.012-9.62-37.945C266.331,266.848,251.958,271.816,248.119,270.647z       "/>
					<path style="fill-rule:evenodd;clip-rule:evenodd;fill:#568EAF;" d="M197.699,82.202c-0.177,0-0.356,0-0.531,0       c-4.762,39.324-10.372,76.824-23.656,108.662c-0.912,2.175-2.348,4.337-2.678,6.165c-0.679,3.705,0,8.458,0,12.859       c-0.005,29.135-0.042,58.871,0.263,87.887c17.217-0.739,34.887-1.02,52.258-1.604c2.319-37.961,2.489-78.077,2.408-118.438       c6.393,31.572,10.821,65.1,15.544,98.343c10.199-1.33,20.432-2.611,30.543-4.019c-2.284-42.163-7.429-87.849-15.004-127.016       c-1.179-6.077-2.768-12.634-4.824-18.754c-2.136-6.362-4.747-12.421-7.767-16.615c-7.365-10.208-20.069-15.362-31.888-21.167       C208.043,86.376,202.063,84.068,197.699,82.202z"/>
				</g>
				<g>
					<path style="fill-rule:evenodd;clip-rule:evenodd;fill:#FFAD8A;" d="M94.641,270.647c0.629,2.587,1.888,9.821,1.755,12.229       c-0.279,5.276-1.31,12.667-2.877,16.438c-0.584,1.436-1.117,5.875-3.074,5.26c-2.036-0.639-0.133-7.046-0.471-8.358       c-1.011,2.837-6.957,16.562-9.976,15.159c-1.644-0.761,2.753-8.617,2.744-11.844c-1.182,1.662-6.269,12.038-8.471,10.775       c-1.155-0.666,2.994-8.276,2.693-11.105c-2.18,2.968-4.942,9.535-6.703,8.726c-1.345-0.622,2.525-8.29,2.304-11.463       c-2.197,2.368-4.087,9.241-5.729,8.387c-2.808-1.456,6.367-29.012,9.629-37.945C76.43,266.848,90.799,271.816,94.641,270.647z"/>
					<path style="fill-rule:evenodd;clip-rule:evenodd;fill:#568EAF;" d="M144.885,82.255c0.179,0,0.356,0,0.538,0       c4.762,39.315,10.54,76.771,23.827,108.609c0.91,2.175,2.348,4.337,2.678,6.165c0.679,3.705,0,8.458,0,12.859       c0,29.135,0.042,58.871-0.263,87.887c-17.212-0.739-34.883-1.02-52.252-1.604c-2.326-37.961-2.492-78.077-2.417-118.438       c-6.387,31.572-10.819,65.1-15.537,98.343c-10.197-1.33-20.432-2.611-30.549-4.019c2.288-42.163,7.431-87.849,15.001-127.016       c1.184-6.077,2.773-12.634,4.831-18.754c2.133-6.362,4.742-12.421,7.765-16.615c7.369-10.208,20.069-15.362,31.893-21.167       C134.717,86.376,140.53,84.119,144.885,82.255z"/>
				</g>
			</g>
			<g>
				<g>
					<path style="fill-rule:evenodd;clip-rule:evenodd;fill:#F5FCFF;" d="M129.194,286.925c0.664-3.246-2.625-5.315-4.39-3.315       C122.544,286.186,127.129,291.099,129.194,286.925z"/>
					<path style="fill-rule:evenodd;clip-rule:evenodd;fill:#F5FCFF;" d="M136.288,284.347c0.766-0.177,1.607-0.628,1.826-1.182       c0.85-2.12-3.558-7.291-5.931-5.851c-1.963,1.184-1.171,3.029,0.529,4.818C133.974,283.478,134.861,284.684,136.288,284.347z"/>
					<path style="fill-rule:evenodd;clip-rule:evenodd;fill:#F5FCFF;" d="M128.167,273.015c2.91-0.4,1.888-2.91,0.856-5.762       c-0.943-2.616-1.627-4.966-3.826-4.337c-0.529,0.148-1.328,0.589-1.657,1.224c-1.071,2.078,2.085,8.239,3.244,8.836       C127.138,273.152,127.819,273.064,128.167,273.015z"/>
				</g>
				<g>
					<path style="fill-rule:evenodd;clip-rule:evenodd;fill:#3E758A;" d="M231.621,106.7c-0.79,0.104-1.678,0.467-1.95,0.996       c-1.073,2.04,2.815,7.683,5.344,6.488c2.1-0.996,1.485-2.93-0.033-4.895C233.848,107.806,233.082,106.509,231.621,106.7z"/>
					<path style="fill-rule:evenodd;clip-rule:evenodd;fill:#3E758A;" d="M235.979,126.162c-0.567-0.064-1.204,0.013-1.633,0.385       c-0.81,0.686-1.345,3.76-1.014,5.495c0.525,2.81,4.362,2.7,4.917-0.075C238.758,129.495,238.497,126.408,235.979,126.162z"/>
					<path style="fill-rule:evenodd;clip-rule:evenodd;fill:#3E758A;" d="M221.203,111.464c-4.26-0.615-2.147,6.154,0.639,6.189       C225.819,117.711,223.788,111.831,221.203,111.464z"/>
					<path style="fill-rule:evenodd;clip-rule:evenodd;fill:#3E758A;" d="M208.888,101.019c-1.067,2.757,1.66,3.08,4.678,3.565       c2.766,0.438,5.16,0.983,5.692-1.27c0.124-0.533,0.131-1.456-0.281-2.063c-1.306-1.952-8.279-2.166-9.374-1.429       C209.271,100.043,209.018,100.691,208.888,101.019z"/>
				</g>
				<g>
					<path style="fill-rule:evenodd;clip-rule:evenodd;fill:#F5FCFF;" d="M108.998,109.116c0.79,0.104,1.677,0.467,1.949,0.996       c1.073,2.04-2.815,7.683-5.344,6.488c-2.1-0.996-1.485-2.93,0.033-4.895C106.772,110.223,107.538,108.926,108.998,109.116z"/>
					<path style="fill-rule:evenodd;clip-rule:evenodd;fill:#F5FCFF;" d="M104.641,128.579c0.567-0.064,1.204,0.013,1.633,0.385       c0.81,0.686,1.346,3.76,1.014,5.495c-0.525,2.811-4.362,2.7-4.917-0.075C101.862,131.912,102.123,128.825,104.641,128.579z"/>
					<path style="fill-rule:evenodd;clip-rule:evenodd;fill:#F5FCFF;" d="M119.417,113.881c4.26-0.615,2.147,6.154-0.639,6.189       C114.801,120.128,116.832,114.248,119.417,113.881z"/>
					<path style="fill-rule:evenodd;clip-rule:evenodd;fill:#F5FCFF;" d="M131.732,103.436c1.067,2.757-1.66,3.08-4.678,3.565       c-2.766,0.438-5.16,0.983-5.692-1.27c-0.124-0.533-0.131-1.456,0.281-2.063c1.305-1.952,8.279-2.166,9.374-1.429       C131.349,102.46,131.601,103.108,131.732,103.436z"/>
				</g>
			</g>
			<g>
				<path style="fill-rule:evenodd;clip-rule:evenodd;fill:#7AB0C9;" d="M197.093,81.806c-0.232-0.053-0.25,0.106-0.27,0.268      c-5.006,27.808-13.723,57.594-20.899,85.211c-1.77,6.812-3.401,14.13-4.014,22.506c-0.199,2.656-0.5,5.351-0.274,7.772      c0.367,3.912,2.591,11.343,6.167,11.521c3.68,0.186,5.944-6.11,7.236-9.374c4.747-12.018,6.749-26.028,7.23-41.802      c1.279,0.108,2.322,2.144,3.485,3.483c1.065,1.221,2.244,2.883,4.284,2.941c4.771,0.153,7.039-8.792,8.309-14.464      c1.574-7.053,2.054-13.461,2.684-20.102c1.292-13.767,3.335-32.419-2.954-40.457C205.325,85.781,200.162,83.537,197.093,81.806z      "/>
				<path style="fill-rule:evenodd;clip-rule:evenodd;fill:#7AB0C9;" d="M145.675,81.806c0.219-0.053,0.246,0.106,0.263,0.268      c5.006,27.808,13.727,57.594,20.897,85.211c1.772,6.812,3.406,14.13,4.023,22.506c0.193,2.656,0.496,5.351,0.268,7.772      c-0.367,3.912-2.594,11.343-6.161,11.521c-3.687,0.186-5.946-6.11-7.238-9.374c-4.742-12.018-6.745-26.028-7.236-41.802      c-1.277,0.108-2.317,2.144-3.483,3.483c-1.064,1.221-2.24,2.883-4.284,2.941c-4.76,0.153-7.039-8.792-8.307-14.464      c-1.574-7.053-2.056-13.461-2.678-20.102c-1.295-13.767-3.333-32.419,2.945-40.457      C137.443,85.781,142.606,83.537,145.675,81.806z"/>
			</g>
		</g>
	</g>
	<g>
		<path style="fill-rule:evenodd;clip-rule:evenodd;fill:#FF6B6B;" d="M267.132,97.472c1.494-1.821,2.943-5.964,5.742-4.501    c3.804,1.983-0.294,12.386-1.653,17.781c-0.808,3.206-2.481,11.346-5.636,10.919c-2.191-0.297-2.945-6.34-3.591-9.814    c-0.806-4.344-1.376-8.38-1.438-11.536c-0.055-3.16,0.241-7.104,2.914-7.172C265.822,93.086,266.464,95.219,267.132,97.472z"/>
		<path style="fill-rule:evenodd;clip-rule:evenodd;fill:#FF6B6B;" d="M251.491,87.976c-1.735-0.155-2.315-2.186-2.93-3.609    c-2.841-6.574-5.678-14.282-7.537-21.868c-0.786-3.2-1.753-6.65-1.551-9.759c0.142-2.197,0.967-5.125,2.326-5.727    c4.468-1.97,6.995,4.853,7.546,7.781c1.095-0.467,0.704-1.821,0.991-2.636c1.18-3.3,5.092-9.407,9.111-4.997    c4.656,5.105-0.958,22.143-3.397,29.864c-0.653,2.065-1.509,3.952-2.08,5.771C253.315,84.907,253.306,87.414,251.491,87.976z"/>
	</g>
</g>















</svg>
