<?xml version="1.0" encoding="UTF-8"?>
<!-- Generator: Adobe Illustrator 25.2.1, SVG Export Plug-In . SVG Version: 6.00 Build 0)  -->
<svg xmlns="http://www.w3.org/2000/svg" xmlns:xlink="http://www.w3.org/1999/xlink" version="1.1" id="Capa_1" x="0px" y="0px" viewBox="0 0 500 500" style="enable-background:new 0 0 500 500;" xml:space="preserve" width="512" height="512">
<g>
	<g>
		<path style="fill-rule:evenodd;clip-rule:evenodd;fill:#42758A;" d="M81.741,287.605c6.65,2.205,26.821,11.954,30.149,19.076    c2.505,5.377,0.758,38.879,0.758,38.879s-19.577-12.986-19.144-20.396c0.427-7.442,7.959-8.795,13.965-10.367    c0,0-4.605-1.534-7.045-2.31C90.901,309.462,83.872,304.382,81.741,287.605z"/>
		<path style="fill-rule:evenodd;clip-rule:evenodd;fill:#F22B2B;" d="M291.29,260.801c-1.456,3.372-3.457,6.847-3.793,11.386    c-1.055,14.263,1.152,32.389,0.032,48.835c-47.653,14.846-98.53,29.949-146.789,44.191c-8.804-6.056-14.03-9.247-22.785-15.994    c-5.525-4.255-5.984-2.048-6.13-9.954c-0.13-7.387,1.672-24.923-1.223-32.315c-2.868-7.314-23.201-14.762-28.861-19.123    c-0.687-3.288-0.839-9.366-0.839-9.366l155.263-73.314c0,0,30.149,38.871,36.907,42.749    C279.878,251.802,285.257,256.727,291.29,260.801z"/>
		<path style="fill-rule:evenodd;clip-rule:evenodd;fill:#FF4E4E;" d="M310.152,30.882c-1.104,50.28-1.823,107.492-3.788,160.176    c-0.341,8.952,0.422,18.341,0,27.33c-0.947,19.795-0.893,35.354-14.431,43.27c-12.25-8.494-24.327-17.169-39.477-22.773    L79.733,278.461c-5.135-61.324-2.906-123.729-4.913-187.606c-0.281-9.162-1.991-18.623,0-25.812    c1.45-5.19,9.604-15.156,14.43-17.461c5.422-2.591,15.318-2.516,24.289-3.795c53.112-7.54,117.826-16.845,169.287-24.296    C294.958,17.74,304.184,21.958,310.152,30.882z"/>
		<path style="fill-rule:evenodd;clip-rule:evenodd;fill:#42758A;" d="M465.425,350.476c-5.508,6.028-60.206,27.952-60.206,27.952    c-24.873-14.321-49.882-30.974-76.433-46.931c-12.634-7.586-25.187-14.309-43.276-9.867c4.859-15.102-1.071-37.685,2.278-53.901    c0.254-1.218,2.565-2.316,1.52-3.796c0.557-0.708,1.38-1.149,2.273-1.516c6.785-5.474,87.422,41.103,87.422,41.103    S459.917,345.555,465.425,350.476z"/>
		<path style="fill-rule:evenodd;clip-rule:evenodd;fill:#42758A;" d="M311.321,30.884c-1.602,47.614-0.898,100.732-2.272,150.305    c-0.871,31.347,4.377,67.901-15.946,80.468c-2.965,0.441-38.422-20.642-39.477-22.773c17.239-7.391,15.02-12.921,15.946-34.923    c1.304-30.944,2.283-78.464,2.283-114.629c-0.011-17.113,2.202-33.646-2.283-44.029c-2.343-5.412-8.003-11.861-12.147-14.42    c-4.41-2.732-7.548-4.034-15.459-5.319C265.816,24.54,299.547,9.975,311.321,30.884z"/>
		<path style="fill-rule:evenodd;clip-rule:evenodd;fill:#FF4E4E;" d="M413.801,375.162    c-43.741,15.084-92.773,30.656-138.884,45.191c-6.65,2.098-13.976,4.288-20.031,5.132c-26.329,3.656-39.255-7.741-53.762-18.471    c-14.49-10.712-16.503-9.48-63.079-43.633c-0.568-7.636,18.245-19.835,28.023-24.436c12.91-6.083,24.045-9.258,34.921-12.908    c25.739-8.642,51.673-16.282,79.701-18.222c35.808-2.466,60.309,15.69,82.752,28.849c14.198,8.325,26.989,16.567,39.472,26.57    C407.032,366.533,412.465,369.915,413.801,375.162z"/>
		<path style="fill-rule:evenodd;clip-rule:evenodd;fill:#568EAF;" d="M311.321,30.882c-0.676-1.12-4.523-5.066-6.931-6.797    c-9.458-6.788-22.428-3.635-37.096-1.553c-51.716,7.34-99.986,13.624-151.827,21.256c-18.765,2.761-34.521,3.751-39.477,22.014    c-2.045,7.575-0.173,18.052,0,28.849c0.752,46.799,0.812,96.779,3.939,145.995c1.542,24.332-1.98,57.103,12.007,67.32    c4.291,3.132,10.14,4.831,16.703,6.831c-2.722,0.525-7.115,0.337-10.632,0c-13.067-1.262-21.973-8.28-31.485-15.624    c-7.516-5.801-18.922-19.254-23.169-33.722c-4.183-14.205-4.118-31.998-5.319-49.345c-2.267-32.9-4.551-69.196-4.551-104.757    c0-21.555-4.534-49.647,2.278-66.045c3.171-7.629,12.369-16.722,19.739-18.978c7.38-2.255,16.476-1.951,25.047-3.033    c52.495-6.64,118.615-15.049,170.05-22.78c11.638-1.748,23.293,1.197,34.916,5.318C299.395,10.752,312.181,17.727,311.321,30.882z    "/>
		<path style="fill-rule:evenodd;clip-rule:evenodd;fill:#568EAF;" d="M108.638,314.797c0,0-14.328,1.891-14.831,9.611    c-0.666,10.081,19.116,20.071,29.841,28.039c26.285,19.513,53.859,37.121,81.4,57.241c12.087,8.834,22.417,17.279,46.711,15.014    c16.4-1.527,34.05-8.855,51.213-14.253c32.064-10.088,66.266-21.397,99.126-32.02c22.2-7.182,58.518-23.414,63.328-27.952    c3.901,9.865,3.723,54.787-3.035,66.046c-8.619,14.361-31.518,21.296-48.589,27.357c-46.657,16.566-90.057,30.137-136.633,46.276    c-15.048,5.217-33.542,14.72-51.624,6.835c-5.638-2.455-12.191-8.875-18.218-13.667c-29.148-23.165-56.613-46.404-86.546-69.84    c-10.502-8.226-28.563-18.307-32.638-29.605c-2.619-7.237-3.079-20.106-2.548-31.33c0.541-11.438-0.222-26.037,3.306-31.676    C92.043,315.83,108.638,314.797,108.638,314.797z"/>
	</g>
	<g>
		<g>
			<path style="fill-rule:evenodd;clip-rule:evenodd;fill:#FFA481;" d="M339.792,352.511c-1.612-10.459-6.368-19.965-12.477-26.934     c-6.287-7.172-15.269-10.313-26.275-12.875c-3.035-0.709-6.683-4.74-9.242-1.498c19.863,6.584,33.368,20.656,35.495,42.244     C330.269,353.042,335.674,352.574,339.792,352.511z"/>
			<path style="fill-rule:evenodd;clip-rule:evenodd;fill:#FFDCC5;" d="M339.386,352.547c0.573-0.035,5.584-0.212,5.573-0.302     c-0.914-7.353-3.03-14.54-5.389-19.058c-7.802-14.943-27.563-27.011-43.681-30.138c-44.671-8.682-86.762,29.045-87.79,72.782     c4.778-0.746,13.911-2.504,15.318-2.616c5.389-35.069,34.131-60.478,65.784-61.342     C313.961,311.203,335.442,325.441,339.386,352.547z"/>
		</g>
		<g>
			<polygon style="fill-rule:evenodd;clip-rule:evenodd;fill:#C9E5ED;" points="310.374,264.092 300.631,285.18 260.622,287.241      245.352,265.073 263.273,256.972 289.888,257.51    "/>
			<polygon style="fill:#68AEC2;" points="263.015,290.358 262.955,285.18 236.165,277.173 258.143,308.856 271.784,314.856      262.523,291.648    "/>
			<polygon style="fill:#A5CDDE;" points="258.446,285.581 256.558,290.53 271.784,314.856 271.871,314.9 294.639,311.975      295.034,311.429 305.471,278.461    "/>
			<polygon style="fill:#C9E5ED;" points="299.273,283.961 295.034,311.429 319.832,276.645    "/>
			<polygon style="fill:#68AEC2;" points="298.665,287.907 300.804,273.12 259.67,272.63 257.05,289.239    "/>
			<polygon style="fill:#F5FCFF;" points="319.832,276.645 310.52,264.1 293.757,273.127 293.616,273.12 298.665,287.907    "/>
			<polygon style="fill:#A5CDDE;" points="257.05,289.239 263.446,272.685 262.997,272.676 245.498,265.082 236.165,277.173      256.958,289.24    "/>
		</g>
	</g>
</g>















</svg>
